Kanchenjunga-Bold.ufo
<glyph name="exclam" format="2">
  <advance width="775"/>
  <unicode hex="0021"/>
  <outline>
    <contour>
      <point x="503" y="480" type="line"/>
      <point x="509" y="770"/>
      <point x="504" y="1076"/>
      <point x="543" y="1510" type="curve"/>
      <point x="235" y="1510" type="line"/>
      <point x="273" y="1076"/>
      <point x="268" y="770"/>
      <point x="275" y="480" type="curve"/>
    </contour>
    <contour>
      <point x="228" y="137" type="curve" smooth="yes"/>
      <point x="228" y="43"/>
      <point x="298" y="-25"/>
      <point x="390" y="-25" type="curve" smooth="yes"/>
      <point x="483" y="-25"/>
      <point x="552" y="43"/>
      <point x="552" y="137" type="curve" smooth="yes"/>
      <point x="552" y="229"/>
      <point x="483" y="298"/>
      <point x="390" y="298" type="curve" smooth="yes"/>
      <point x="298" y="298"/>
      <point x="228" y="229"/>
    </contour>
  </outline>
</glyph>
<glyph name="quotedbl" format="2">
  <advance width="1065"/>
  <unicode hex="0022"/>
  <outline>
    <contour>
      <point x="435" y="1045" type="line"/>
      <point x="440" y="1186"/>
      <point x="443" y="1339"/>
      <point x="472" y="1585" type="curve"/>
      <point x="240" y="1585" type="line"/>
      <point x="271" y="1339"/>
      <point x="273" y="1186"/>
      <point x="277" y="1045" type="curve"/>
    </contour>
    <contour>
      <point x="788" y="1045" type="line"/>
      <point x="793" y="1186"/>
      <point x="796" y="1339"/>
      <point x="825" y="1585" type="curve"/>
      <point x="593" y="1585" type="line"/>
      <point x="624" y="1339"/>
      <point x="626" y="1186"/>
      <point x="630" y="1045" type="curve"/>
    </contour>
  </outline>
</glyph>
<glyph name="numbersign" format="2">
  <advance width="1227"/>
  <unicode hex="0023"/>
  <outline>
    <contour>
      <point x="444" y="1393" type="line"/>
      <point x="84" y="133" type="line"/>
      <point x="280" y="133" type="line"/>
      <point x="640" y="1393" type="line"/>
    </contour>
    <contour>
      <point x="22" y="475" type="line"/>
      <point x="1113" y="475" type="line"/>
      <point x="1113" y="665" type="line"/>
      <point x="22" y="665" type="line"/>
    </contour>
    <contour>
      <point x="81" y="887" type="line"/>
      <point x="1172" y="887" type="line"/>
      <point x="1172" y="1077" type="line"/>
      <point x="81" y="1077" type="line"/>
    </contour>
    <contour>
      <point x="902" y="1393" type="line"/>
      <point x="542" y="133" type="line"/>
      <point x="739" y="133" type="line"/>
      <point x="1099" y="1393" type="line"/>
    </contour>
  </outline>
</glyph>
<glyph name="dollar" format="2">
  <advance width="1227"/>
  <unicode hex="0024"/>
  <outline>
    <contour>
      <point x="1013" y="1313" type="line"/>
      <point x="893" y="1371"/>
      <point x="777" y="1389"/>
      <point x="636" y="1389" type="curve" smooth="yes"/>
      <point x="330" y="1389"/>
      <point x="177" y="1193"/>
      <point x="177" y="1017" type="curve" smooth="yes"/>
      <point x="177" y="840"/>
      <point x="281" y="733"/>
      <point x="553" y="633" type="curve" smooth="yes"/>
      <point x="824" y="534"/>
      <point x="871" y="479"/>
      <point x="871" y="389" type="curve" smooth="yes"/>
      <point x="871" y="260"/>
      <point x="754" y="194"/>
      <point x="599" y="194" type="curve" smooth="yes"/>
      <point x="457" y="194"/>
      <point x="317" y="256"/>
      <point x="208" y="360" type="curve"/>
      <point x="146" y="124" type="line"/>
      <point x="240" y="50"/>
      <point x="408" y="0"/>
      <point x="599" y="0" type="curve" smooth="yes"/>
      <point x="857" y="0"/>
      <point x="1086" y="154"/>
      <point x="1086" y="414" type="curve" smooth="yes"/>
      <point x="1086" y="626"/>
      <point x="935" y="724"/>
      <point x="689" y="816" type="curve" smooth="yes"/>
      <point x="436" y="910"/>
      <point x="392" y="956"/>
      <point x="392" y="1037" type="curve" smooth="yes"/>
      <point x="392" y="1132"/>
      <point x="479" y="1201"/>
      <point x="626" y="1201" type="curve" smooth="yes"/>
      <point x="751" y="1201"/>
      <point x="870" y="1169"/>
      <point x="962" y="1094" type="curve"/>
    </contour>
    <contour>
      <point x="563" y="1600" type="line"/>
      <point x="563" y="791" type="line"/>
      <point x="543" y="724" type="line"/>
      <point x="543" y="-220" type="line"/>
      <point x="699" y="-220" type="line"/>
      <point x="699" y="674" type="line"/>
      <point x="720" y="748" type="line"/>
      <point x="720" y="1600" type="line"/>
    </contour>
  </outline>
</glyph>
<glyph name="percent" format="2">
  <advance width="1552"/>
  <unicode hex="0025"/>
  <outline>
    <contour>
      <point x="1073" y="1480" type="line"/>
      <point x="291" y="-25" type="line"/>
      <point x="486" y="-25" type="line"/>
      <point x="1266" y="1480" type="line"/>
    </contour>
    <contour>
      <point x="516" y="1076" type="curve" smooth="yes"/>
      <point x="516" y="892"/>
      <point x="473" y="818"/>
      <point x="394" y="818" type="curve" smooth="yes"/>
      <point x="312" y="818"/>
      <point x="274" y="891"/>
      <point x="274" y="1091" type="curve" smooth="yes"/>
      <point x="274" y="1275"/>
      <point x="314" y="1347"/>
      <point x="394" y="1347" type="curve" smooth="yes"/>
      <point x="478" y="1347"/>
      <point x="516" y="1276"/>
    </contour>
    <contour>
      <point x="711" y="1089" type="curve" smooth="yes"/>
      <point x="711" y="1362"/>
      <point x="581" y="1480"/>
      <point x="399" y="1480" type="curve" smooth="yes"/>
      <point x="218" y="1480"/>
      <point x="79" y="1360"/>
      <point x="79" y="1078" type="curve" smooth="yes"/>
      <point x="79" y="796"/>
      <point x="208" y="685"/>
      <point x="390" y="685" type="curve" smooth="yes"/>
      <point x="572" y="685"/>
      <point x="711" y="794"/>
    </contour>
    <contour>
      <point x="1278" y="366" type="curve" smooth="yes"/>
      <point x="1278" y="182"/>
      <point x="1235" y="108"/>
      <point x="1156" y="108" type="curve" smooth="yes"/>
      <point x="1074" y="108"/>
      <point x="1036" y="181"/>
      <point x="1036" y="381" type="curve" smooth="yes"/>
      <point x="1036" y="565"/>
      <point x="1076" y="637"/>
      <point x="1156" y="637" type="curve" smooth="yes"/>
      <point x="1240" y="637"/>
      <point x="1278" y="566"/>
    </contour>
    <contour>
      <point x="1473" y="379" type="curve" smooth="yes"/>
      <point x="1473" y="652"/>
      <point x="1343" y="770"/>
      <point x="1161" y="770" type="curve" smooth="yes"/>
      <point x="980" y="770"/>
      <point x="841" y="650"/>
      <point x="841" y="368" type="curve" smooth="yes"/>
      <point x="841" y="86"/>
      <point x="970" y="-25"/>
      <point x="1152" y="-25" type="curve" smooth="yes"/>
      <point x="1334" y="-25"/>
      <point x="1473" y="84"/>
    </contour>
  </outline>
</glyph>
<glyph name="ampersand" format="2">
  <advance width="1311"/>
  <unicode hex="0026"/>
  <outline>
    <contour>
      <point x="1032" y="590" type="line"/>
      <point x="968" y="423"/>
      <point x="687" y="177"/>
      <point x="512" y="177" type="curve" smooth="yes"/>
      <point x="387" y="177"/>
      <point x="300" y="260"/>
      <point x="300" y="373" type="curve" smooth="yes"/>
      <point x="300" y="483"/>
      <point x="373" y="560"/>
      <point x="547" y="713" type="curve" smooth="yes"/>
      <point x="728" y="872"/>
      <point x="880" y="1055"/>
      <point x="880" y="1193" type="curve" smooth="yes"/>
      <point x="880" y="1375"/>
      <point x="732" y="1485"/>
      <point x="547" y="1485" type="curve" smooth="yes"/>
      <point x="354" y="1485"/>
      <point x="178" y="1385"/>
      <point x="178" y="1170" type="curve" smooth="yes"/>
      <point x="178" y="1003"/>
      <point x="392" y="795"/>
      <point x="572" y="550" type="curve" smooth="yes"/>
      <point x="837" y="187"/>
      <point x="1016" y="-25"/>
      <point x="1068" y="-25" type="curve" smooth="yes"/>
      <point x="1103" y="-25"/>
      <point x="1215" y="51"/>
      <point x="1252" y="83" type="curve"/>
      <point x="1157" y="123"/>
      <point x="1011" y="302"/>
      <point x="740" y="680" type="curve" smooth="yes"/>
      <point x="577" y="906"/>
      <point x="385" y="1082"/>
      <point x="385" y="1180" type="curve" smooth="yes"/>
      <point x="385" y="1258"/>
      <point x="455" y="1323"/>
      <point x="532" y="1323" type="curve" smooth="yes"/>
      <point x="612" y="1323"/>
      <point x="673" y="1267"/>
      <point x="673" y="1185" type="curve" smooth="yes"/>
      <point x="673" y="1109"/>
      <point x="593" y="1001"/>
      <point x="420" y="840" type="curve" smooth="yes"/>
      <point x="216" y="651"/>
      <point x="78" y="527"/>
      <point x="78" y="354" type="curve" smooth="yes"/>
      <point x="78" y="131"/>
      <point x="234" y="-25"/>
      <point x="497" y="-25" type="curve" smooth="yes"/>
      <point x="776" y="-25"/>
      <point x="1079" y="267"/>
      <point x="1157" y="428" type="curve"/>
    </contour>
  </outline>
</glyph>
<glyph name="quotesingle" format="2">
  <advance width="618"/>
  <unicode hex="0027"/>
  <outline>
    <contour>
      <point x="388" y="1045" type="line"/>
      <point x="393" y="1186"/>
      <point x="396" y="1339"/>
      <point x="425" y="1585" type="curve"/>
      <point x="193" y="1585" type="line"/>
      <point x="224" y="1339"/>
      <point x="226" y="1186"/>
      <point x="230" y="1045" type="curve"/>
    </contour>
  </outline>
</glyph>
<glyph name="parenleft" format="2">
  <advance width="838"/>
  <unicode hex="0028"/>
  <outline>
    <contour>
      <point x="555" y="1640" type="line"/>
      <point x="290" y="1444"/>
      <point x="115" y="1062"/>
      <point x="115" y="625" type="curve" smooth="yes"/>
      <point x="115" y="218"/>
      <point x="260" y="-125"/>
      <point x="535" y="-410" type="curve"/>
      <point x="667" y="-248" type="line"/>
      <point x="440" y="5"/>
      <point x="352" y="316"/>
      <point x="352" y="632" type="curve" smooth="yes"/>
      <point x="352" y="953"/>
      <point x="442" y="1267"/>
      <point x="661" y="1465" type="curve"/>
    </contour>
  </outline>
</glyph>
<glyph name="parenright" format="2">
  <advance width="838"/>
  <unicode hex="0029"/>
  <outline>
    <contour>
      <point x="178" y="1465" type="line"/>
      <point x="393" y="1267"/>
      <point x="487" y="946"/>
      <point x="487" y="632" type="curve" smooth="yes"/>
      <point x="487" y="316"/>
      <point x="396" y="5"/>
      <point x="172" y="-248" type="curve"/>
      <point x="304" y="-410" type="line"/>
      <point x="579" y="-125"/>
      <point x="724" y="218"/>
      <point x="724" y="625" type="curve" smooth="yes"/>
      <point x="724" y="1062"/>
      <point x="549" y="1444"/>
      <point x="284" y="1640" type="curve"/>
    </contour>
  </outline>
</glyph>
<glyph name="asterisk" format="2">
  <advance width="1036"/>
  <unicode hex="002A"/>
  <outline>
    <contour>
      <point x="603" y="1600" type="curve"/>
      <point x="422" y="1600" type="line"/>
      <point x="442" y="1487"/>
      <point x="455" y="1404"/>
      <point x="462" y="1305" type="curve"/>
      <point x="381" y="1355"/>
      <point x="311" y="1401"/>
      <point x="219" y="1472" type="curve"/>
      <point x="126" y="1317" type="line"/>
      <point x="237" y="1278"/>
      <point x="330" y="1243"/>
      <point x="410" y="1204" type="curve"/>
      <point x="328" y="1161"/>
      <point x="247" y="1126"/>
      <point x="136" y="1080" type="curve"/>
      <point x="226" y="918" type="line"/>
      <point x="314" y="993"/>
      <point x="380" y="1049"/>
      <point x="461" y="1105" type="curve"/>
      <point x="455" y="1007"/>
      <point x="447" y="922"/>
      <point x="431" y="809" type="curve"/>
      <point x="611" y="809" type="line"/>
      <point x="590" y="928"/>
      <point x="583" y="1009"/>
      <point x="575" y="1103" type="curve"/>
      <point x="659" y="1050"/>
      <point x="725" y="1005"/>
      <point x="817" y="934" type="curve"/>
      <point x="912" y="1093" type="line"/>
      <point x="798" y="1134"/>
      <point x="716" y="1163"/>
      <point x="629" y="1204" type="curve"/>
      <point x="712" y="1248"/>
      <point x="791" y="1284"/>
      <point x="901" y="1332" type="curve"/>
      <point x="813" y="1489" type="line"/>
      <point x="725" y="1415"/>
      <point x="657" y="1361"/>
      <point x="576" y="1305" type="curve"/>
      <point x="580" y="1399"/>
      <point x="588" y="1480"/>
    </contour>
  </outline>
</glyph>
<glyph name="plus" format="2">
  <advance width="1200"/>
  <unicode hex="002B"/>
  <outline>
    <contour>
      <point x="505" y="1180" type="line"/>
      <point x="505" y="285" type="line"/>
      <point x="695" y="285" type="line"/>
      <point x="695" y="1180" type="line"/>
    </contour>
    <contour>
      <point x="155" y="640" type="line"/>
      <point x="1045" y="640" type="line"/>
      <point x="1045" y="830" type="line"/>
      <point x="155" y="830" type="line"/>
    </contour>
  </outline>
</glyph>
<glyph name="comma" format="2">
  <advance width="660"/>
  <unicode hex="002C"/>
  <outline>
    <contour>
      <point x="185" y="50" type="line"/>
      <point x="332" y="50" type="line"/>
      <point x="332" y="-40"/>
      <point x="283" y="-159"/>
      <point x="193" y="-253" type="curve"/>
      <point x="303" y="-313" type="line"/>
      <point x="425" y="-205"/>
      <point x="515" y="-58"/>
      <point x="515" y="102" type="curve" smooth="yes"/>
      <point x="515" y="218"/>
      <point x="446" y="297"/>
      <point x="343" y="297" type="curve" smooth="yes"/>
      <point x="262" y="297"/>
      <point x="189" y="228"/>
      <point x="185" y="157" type="curve"/>
    </contour>
  </outline>
</glyph>
<glyph name="hyphen" format="2">
  <advance width="883"/>
  <unicode hex="002D"/>
  <anchor x="443" y="1100" name="U"/>
  <outline>
    <contour>
      <point x="80" y="538" type="line"/>
      <point x="803" y="538" type="line"/>
      <point x="803" y="722" type="line"/>
      <point x="80" y="722" type="line"/>
    </contour>
  </outline>
</glyph>
<glyph name="period" format="2">
  <advance width="687"/>
  <unicode hex="002E"/>
  <outline>
    <contour>
      <point x="195" y="137" type="curve" smooth="yes"/>
      <point x="195" y="43"/>
      <point x="265" y="-25"/>
      <point x="357" y="-25" type="curve" smooth="yes"/>
      <point x="449" y="-25"/>
      <point x="518" y="43"/>
      <point x="518" y="137" type="curve" smooth="yes"/>
      <point x="518" y="229"/>
      <point x="449" y="298"/>
      <point x="357" y="298" type="curve" smooth="yes"/>
      <point x="265" y="298"/>
      <point x="195" y="229"/>
    </contour>
  </outline>
</glyph>
<glyph name="slash" format="2">
  <advance width="1053"/>
  <unicode hex="002F"/>
  <outline>
    <contour>
      <point x="840" y="1600" type="line"/>
      <point x="10" y="-245" type="line"/>
      <point x="213" y="-245" type="line"/>
      <point x="1043" y="1600" type="line"/>
    </contour>
  </outline>
</glyph>
<glyph name="zero" format="2">
  <advance width="1227"/>
  <unicode hex="0030"/>
  <anchor x="618" y="-100" name="L"/>
  <anchor x="618" y="1530" name="U"/>
  <outline>
    <contour>
      <point x="883" y="715" type="curve" smooth="yes"/>
      <point x="883" y="348"/>
      <point x="785" y="185"/>
      <point x="613" y="185" type="curve" smooth="yes"/>
      <point x="435" y="185"/>
      <point x="343" y="352"/>
      <point x="343" y="745" type="curve" smooth="yes"/>
      <point x="343" y="1113"/>
      <point x="440" y="1275"/>
      <point x="613" y="1275" type="curve" smooth="yes"/>
      <point x="795" y="1275"/>
      <point x="883" y="1109"/>
    </contour>
    <contour>
      <point x="1140" y="740" type="curve" smooth="yes"/>
      <point x="1140" y="1286"/>
      <point x="947" y="1485"/>
      <point x="623" y="1485" type="curve" smooth="yes"/>
      <point x="314" y="1485"/>
      <point x="87" y="1283"/>
      <point x="87" y="720" type="curve" smooth="yes"/>
      <point x="87" y="162"/>
      <point x="294" y="-25"/>
      <point x="603" y="-25" type="curve" smooth="yes"/>
      <point x="914" y="-25"/>
      <point x="1140" y="158"/>
    </contour>
  </outline>
</glyph>
<glyph name="one" format="2">
  <advance width="1227"/>
  <unicode hex="0031"/>
  <anchor x="617" y="-100" name="L"/>
  <anchor x="617" y="1530" name="U"/>
  <outline>
    <contour>
      <point x="207" y="0" type="line"/>
      <point x="1073" y="0" type="line"/>
      <point x="1073" y="213" type="line"/>
      <point x="763" y="213" type="line"/>
      <point x="763" y="1467" type="line"/>
      <point x="523" y="1467" type="line"/>
      <point x="198" y="1275" type="line"/>
      <point x="230" y="1041" type="line"/>
      <point x="516" y="1200" type="line"/>
      <point x="516" y="213" type="line"/>
      <point x="207" y="213" type="line"/>
    </contour>
  </outline>
</glyph>
<glyph name="two" format="2">
  <advance width="1227"/>
  <unicode hex="0032"/>
  <anchor x="617" y="-100" name="L"/>
  <anchor x="603" y="1530" name="U"/>
  <outline>
    <contour>
      <point x="1102" y="233" type="line"/>
      <point x="1022" y="219"/>
      <point x="924" y="218"/>
      <point x="727" y="218" type="curve" smooth="yes"/>
      <point x="465" y="218" type="line"/>
      <point x="684" y="399"/>
      <point x="1049" y="736"/>
      <point x="1049" y="1065" type="curve" smooth="yes"/>
      <point x="1049" y="1323"/>
      <point x="849" y="1485"/>
      <point x="575" y="1485" type="curve" smooth="yes"/>
      <point x="406" y="1485"/>
      <point x="215" y="1402"/>
      <point x="127" y="1290" type="curve"/>
      <point x="185" y="1073" type="line"/>
      <point x="274" y="1181"/>
      <point x="424" y="1258"/>
      <point x="547" y="1258" type="curve" smooth="yes"/>
      <point x="697" y="1258"/>
      <point x="791" y="1166"/>
      <point x="791" y="1025" type="curve" smooth="yes"/>
      <point x="791" y="761"/>
      <point x="400" y="398"/>
      <point x="129" y="203" type="curve"/>
      <point x="129" y="0" type="line"/>
      <point x="1102" y="0" type="line"/>
    </contour>
  </outline>
</glyph>
<glyph name="three" format="2">
  <advance width="1227"/>
  <unicode hex="0033"/>
  <anchor x="617" y="-100" name="L"/>
  <anchor x="617" y="1530" name="U"/>
  <outline>
    <contour>
      <point x="403" y="880" type="line"/>
      <point x="403" y="663" type="line"/>
      <point x="487" y="663" type="line"/>
      <point x="716" y="663"/>
      <point x="862" y="561"/>
      <point x="862" y="425" type="curve" smooth="yes"/>
      <point x="862" y="274"/>
      <point x="718" y="190"/>
      <point x="572" y="190" type="curve" smooth="yes"/>
      <point x="405" y="190"/>
      <point x="251" y="265"/>
      <point x="142" y="388" type="curve"/>
      <point x="110" y="133" type="line"/>
      <point x="215" y="35"/>
      <point x="375" y="-25"/>
      <point x="552" y="-25" type="curve" smooth="yes"/>
      <point x="867" y="-25"/>
      <point x="1117" y="170"/>
      <point x="1117" y="405" type="curve" smooth="yes"/>
      <point x="1117" y="672"/>
      <point x="889" y="763"/>
      <point x="747" y="787" type="curve"/>
      <point x="889" y="816"/>
      <point x="1067" y="957"/>
      <point x="1067" y="1140" type="curve" smooth="yes"/>
      <point x="1067" y="1354"/>
      <point x="861" y="1485"/>
      <point x="587" y="1485" type="curve" smooth="yes"/>
      <point x="420" y="1485"/>
      <point x="253" y="1416"/>
      <point x="173" y="1325" type="curve"/>
      <point x="208" y="1115" type="line"/>
      <point x="321" y="1231"/>
      <point x="443" y="1270"/>
      <point x="597" y="1270" type="curve" smooth="yes"/>
      <point x="703" y="1270"/>
      <point x="817" y="1212"/>
      <point x="817" y="1106" type="curve" smooth="yes"/>
      <point x="817" y="993"/>
      <point x="674" y="880"/>
      <point x="487" y="880" type="curve"/>
    </contour>
  </outline>
</glyph>
<glyph name="four" format="2">
  <advance width="1227"/>
  <unicode hex="0034"/>
  <anchor x="619" y="-100" name="L"/>
  <anchor x="619" y="1530" name="U"/>
  <outline>
    <contour>
      <point x="1158" y="362" type="line"/>
      <point x="1158" y="563" type="line"/>
      <point x="988" y="563" type="line"/>
      <point x="988" y="1467" type="line"/>
      <point x="725" y="1467" type="line"/>
      <point x="83" y="563" type="line"/>
      <point x="83" y="362" type="line"/>
      <point x="748" y="362" type="line"/>
      <point x="748" y="0" type="line"/>
      <point x="988" y="0" type="line"/>
      <point x="988" y="362" type="line"/>
    </contour>
    <contour>
      <point x="748" y="1176" type="line"/>
      <point x="748" y="563" type="line"/>
      <point x="304" y="563" type="line"/>
    </contour>
  </outline>
</glyph>
<glyph name="five" format="2">
  <advance width="1227"/>
  <unicode hex="0035"/>
  <anchor x="617" y="-100" name="L"/>
  <anchor x="617" y="1530" name="U"/>
  <outline>
    <contour>
      <point x="195" y="658" type="line"/>
      <point x="319" y="706"/>
      <point x="417" y="723"/>
      <point x="523" y="723" type="curve" smooth="yes"/>
      <point x="683" y="723"/>
      <point x="843" y="645"/>
      <point x="843" y="470" type="curve" smooth="yes"/>
      <point x="843" y="301"/>
      <point x="717" y="195"/>
      <point x="543" y="195" type="curve" smooth="yes"/>
      <point x="403" y="195"/>
      <point x="294" y="229"/>
      <point x="160" y="337" type="curve"/>
      <point x="123" y="80" type="line"/>
      <point x="248" y="2"/>
      <point x="378" y="-25"/>
      <point x="533" y="-25" type="curve" smooth="yes"/>
      <point x="846" y="-25"/>
      <point x="1093" y="163"/>
      <point x="1093" y="475" type="curve" smooth="yes"/>
      <point x="1093" y="749"/>
      <point x="879" y="930"/>
      <point x="598" y="930" type="curve" smooth="yes"/>
      <point x="533" y="930"/>
      <point x="462" y="915"/>
      <point x="430" y="903" type="curve"/>
      <point x="430" y="1240" type="line"/>
      <point x="778" y="1240" type="line"/>
      <point x="862" y="1240"/>
      <point x="958" y="1236"/>
      <point x="1033" y="1220" type="curve"/>
      <point x="1033" y="1460" type="line"/>
      <point x="195" y="1460" type="line"/>
    </contour>
  </outline>
</glyph>
<glyph name="six" format="2">
  <advance width="1227"/>
  <unicode hex="0036"/>
  <anchor x="617" y="-100" name="L"/>
  <anchor x="617" y="1530" name="U"/>
  <outline>
    <contour>
      <point x="1066" y="1395" type="line"/>
      <point x="962" y="1465"/>
      <point x="870" y="1485"/>
      <point x="738" y="1485" type="curve" smooth="yes"/>
      <point x="263" y="1485"/>
      <point x="103" y="1062"/>
      <point x="103" y="680" type="curve" smooth="yes"/>
      <point x="103" y="229"/>
      <point x="301" y="-25"/>
      <point x="641" y="-25" type="curve" smooth="yes"/>
      <point x="946" y="-25"/>
      <point x="1148" y="175"/>
      <point x="1148" y="470" type="curve" smooth="yes"/>
      <point x="1148" y="726"/>
      <point x="963" y="915"/>
      <point x="678" y="915" type="curve" smooth="yes"/>
      <point x="487" y="915"/>
      <point x="341" y="800"/>
      <point x="228" y="645" type="curve"/>
      <point x="293" y="543" type="line"/>
      <point x="375" y="646"/>
      <point x="503" y="713"/>
      <point x="658" y="713" type="curve" smooth="yes"/>
      <point x="824" y="713"/>
      <point x="913" y="604"/>
      <point x="913" y="448" type="curve" smooth="yes"/>
      <point x="913" y="311"/>
      <point x="811" y="190"/>
      <point x="654" y="190" type="curve" smooth="yes"/>
      <point x="459" y="190"/>
      <point x="345" y="388"/>
      <point x="345" y="645" type="curve" smooth="yes"/>
      <point x="345" y="1132"/>
      <point x="518" y="1270"/>
      <point x="728" y="1270" type="curve" smooth="yes"/>
      <point x="824" y="1270"/>
      <point x="923" y="1246"/>
      <point x="1009" y="1160" type="curve"/>
    </contour>
  </outline>
</glyph>
<glyph name="seven" format="2">
  <advance width="1227"/>
  <unicode hex="0037"/>
  <anchor x="617" y="-100" name="L"/>
  <anchor x="617" y="1530" name="U"/>
  <outline>
    <contour>
      <point x="500" y="0" type="line"/>
      <point x="629" y="459"/>
      <point x="821" y="868"/>
      <point x="1117" y="1273" type="curve"/>
      <point x="1117" y="1460" type="line"/>
      <point x="100" y="1460" type="line"/>
      <point x="100" y="1222" type="line"/>
      <point x="176" y="1238"/>
      <point x="292" y="1242"/>
      <point x="480" y="1242" type="curve" smooth="yes"/>
      <point x="823" y="1242" type="line"/>
      <point x="565" y="865"/>
      <point x="419" y="566"/>
      <point x="248" y="0" type="curve"/>
    </contour>
  </outline>
</glyph>
<glyph name="eight" format="2">
  <advance width="1227"/>
  <unicode hex="0038"/>
  <anchor x="617" y="-100" name="L"/>
  <anchor x="617" y="1530" name="U"/>
  <outline>
    <contour>
      <point x="613" y="-25" type="curve" smooth="yes"/>
      <point x="884" y="-25"/>
      <point x="1137" y="141"/>
      <point x="1137" y="412" type="curve" smooth="yes"/>
      <point x="1137" y="631"/>
      <point x="992" y="739"/>
      <point x="882" y="795" type="curve"/>
      <point x="960" y="842"/>
      <point x="1070" y="923"/>
      <point x="1070" y="1105" type="curve" smooth="yes"/>
      <point x="1070" y="1350"/>
      <point x="867" y="1485"/>
      <point x="623" y="1485" type="curve" smooth="yes"/>
      <point x="381" y="1485"/>
      <point x="157" y="1350"/>
      <point x="157" y="1105" type="curve" smooth="yes"/>
      <point x="157" y="923"/>
      <point x="272" y="838"/>
      <point x="350" y="795" type="curve"/>
      <point x="221" y="725"/>
      <point x="90" y="624"/>
      <point x="90" y="405" type="curve" smooth="yes"/>
      <point x="90" y="134"/>
      <point x="344" y="-25"/>
    </contour>
    <contour>
      <point x="840" y="1095" type="curve" smooth="yes"/>
      <point x="840" y="966"/>
      <point x="750" y="885"/>
      <point x="613" y="885" type="curve" smooth="yes"/>
      <point x="477" y="885"/>
      <point x="387" y="966"/>
      <point x="387" y="1095" type="curve" smooth="yes"/>
      <point x="387" y="1215"/>
      <point x="484" y="1288"/>
      <point x="613" y="1288" type="curve" smooth="yes"/>
      <point x="756" y="1288"/>
      <point x="840" y="1209"/>
    </contour>
    <contour>
      <point x="893" y="438" type="curve" smooth="yes"/>
      <point x="893" y="297"/>
      <point x="785" y="185"/>
      <point x="613" y="185" type="curve" smooth="yes"/>
      <point x="447" y="185"/>
      <point x="333" y="297"/>
      <point x="333" y="438" type="curve" smooth="yes"/>
      <point x="333" y="585"/>
      <point x="453" y="690"/>
      <point x="613" y="690" type="curve" smooth="yes"/>
      <point x="771" y="690"/>
      <point x="893" y="585"/>
    </contour>
  </outline>
</glyph>
<glyph name="nine" format="2">
  <advance width="1227"/>
  <unicode hex="0039"/>
  <anchor x="617" y="-100" name="L"/>
  <anchor x="617" y="1530" name="U"/>
  <outline>
    <contour>
      <point x="170" y="65" type="line"/>
      <point x="268" y="2"/>
      <point x="374" y="-25"/>
      <point x="498" y="-25" type="curve" smooth="yes"/>
      <point x="973" y="-25"/>
      <point x="1131" y="411"/>
      <point x="1131" y="780" type="curve" smooth="yes"/>
      <point x="1131" y="1166"/>
      <point x="963" y="1485"/>
      <point x="601" y="1485" type="curve" smooth="yes"/>
      <point x="326" y="1485"/>
      <point x="87" y="1302"/>
      <point x="87" y="1002" type="curve" smooth="yes"/>
      <point x="87" y="766"/>
      <point x="278" y="579"/>
      <point x="556" y="579" type="curve" smooth="yes"/>
      <point x="747" y="579"/>
      <point x="919" y="710"/>
      <point x="1016" y="871" type="curve"/>
      <point x="945" y="981" type="line"/>
      <point x="871" y="867"/>
      <point x="735" y="780"/>
      <point x="580" y="780" type="curve" smooth="yes"/>
      <point x="428" y="780"/>
      <point x="323" y="880"/>
      <point x="323" y="1036" type="curve" smooth="yes"/>
      <point x="323" y="1167"/>
      <point x="427" y="1270"/>
      <point x="584" y="1270" type="curve" smooth="yes"/>
      <point x="798" y="1270"/>
      <point x="890" y="1090"/>
      <point x="890" y="813" type="curve" smooth="yes"/>
      <point x="890" y="326"/>
      <point x="719" y="190"/>
      <point x="508" y="190" type="curve" smooth="yes"/>
      <point x="412" y="190"/>
      <point x="307" y="214"/>
      <point x="221" y="300" type="curve"/>
    </contour>
  </outline>
</glyph>
<glyph name="colon" format="2">
  <advance width="687"/>
  <unicode hex="003A"/>
  <outline>
    <contour>
      <point x="195" y="763" type="curve" smooth="yes"/>
      <point x="195" y="669"/>
      <point x="265" y="602"/>
      <point x="357" y="602" type="curve" smooth="yes"/>
      <point x="449" y="602"/>
      <point x="518" y="669"/>
      <point x="518" y="763" type="curve" smooth="yes"/>
      <point x="518" y="856"/>
      <point x="449" y="925"/>
      <point x="357" y="925" type="curve" smooth="yes"/>
      <point x="265" y="925"/>
      <point x="195" y="856"/>
    </contour>
    <contour>
      <point x="195" y="137" type="curve" smooth="yes"/>
      <point x="195" y="43"/>
      <point x="265" y="-25"/>
      <point x="357" y="-25" type="curve" smooth="yes"/>
      <point x="449" y="-25"/>
      <point x="518" y="43"/>
      <point x="518" y="137" type="curve" smooth="yes"/>
      <point x="518" y="229"/>
      <point x="449" y="298"/>
      <point x="357" y="298" type="curve" smooth="yes"/>
      <point x="265" y="298"/>
      <point x="195" y="229"/>
    </contour>
  </outline>
</glyph>
<glyph name="semicolon" format="2">
  <advance width="690"/>
  <unicode hex="003B"/>
  <outline>
    <contour>
      <point x="195" y="763" type="curve" smooth="yes"/>
      <point x="195" y="669"/>
      <point x="265" y="602"/>
      <point x="357" y="602" type="curve" smooth="yes"/>
      <point x="449" y="602"/>
      <point x="518" y="669"/>
      <point x="518" y="763" type="curve" smooth="yes"/>
      <point x="518" y="856"/>
      <point x="449" y="925"/>
      <point x="357" y="925" type="curve" smooth="yes"/>
      <point x="265" y="925"/>
      <point x="195" y="856"/>
    </contour>
    <contour>
      <point x="185" y="50" type="line"/>
      <point x="338" y="50" type="line"/>
      <point x="338" y="-40"/>
      <point x="276" y="-159"/>
      <point x="187" y="-253" type="curve"/>
      <point x="317" y="-313" type="line"/>
      <point x="438" y="-205"/>
      <point x="528" y="-45"/>
      <point x="528" y="115" type="curve" smooth="yes"/>
      <point x="528" y="231"/>
      <point x="459" y="310"/>
      <point x="357" y="310" type="curve" smooth="yes"/>
      <point x="262" y="310"/>
      <point x="189" y="241"/>
      <point x="185" y="170" type="curve"/>
    </contour>
  </outline>
</glyph>
<glyph name="less" format="2">
  <advance width="1200"/>
  <unicode hex="003C"/>
  <outline>
    <contour>
      <point x="1073" y="458" type="line"/>
      <point x="357" y="730" type="line"/>
      <point x="1073" y="1002" type="line"/>
      <point x="1073" y="1215" type="line"/>
      <point x="107" y="822" type="line"/>
      <point x="107" y="638" type="line"/>
      <point x="1073" y="245" type="line"/>
    </contour>
  </outline>
</glyph>
<glyph name="equal" format="2">
  <advance width="1200"/>
  <unicode hex="003D"/>
  <outline>
    <contour>
      <point x="120" y="460" type="line"/>
      <point x="1080" y="460" type="line"/>
      <point x="1080" y="643" type="line"/>
      <point x="120" y="643" type="line"/>
    </contour>
    <contour>
      <point x="120" y="810" type="line"/>
      <point x="1080" y="810" type="line"/>
      <point x="1080" y="993" type="line"/>
      <point x="120" y="993" type="line"/>
    </contour>
  </outline>
</glyph>
<glyph name="greater" format="2">
  <advance width="1200"/>
  <unicode hex="003E"/>
  <outline>
    <contour>
      <point x="127" y="245" type="line"/>
      <point x="1093" y="638" type="line"/>
      <point x="1093" y="822" type="line"/>
      <point x="127" y="1215" type="line"/>
      <point x="127" y="1002" type="line"/>
      <point x="843" y="730" type="line"/>
      <point x="127" y="458" type="line"/>
    </contour>
  </outline>
</glyph>
<glyph name="question" format="2">
  <advance width="1077"/>
  <unicode hex="003F"/>
  <outline>
    <contour>
      <point x="607" y="480" type="line"/>
      <point x="607" y="760"/>
      <point x="677" y="879"/>
      <point x="762" y="989" type="curve" smooth="yes"/>
      <point x="824" y="1068"/>
      <point x="877" y="1135"/>
      <point x="877" y="1227" type="curve" smooth="yes"/>
      <point x="877" y="1409"/>
      <point x="737" y="1540"/>
      <point x="487" y="1540" type="curve" smooth="yes"/>
      <point x="348" y="1540"/>
      <point x="206" y="1478"/>
      <point x="140" y="1415" type="curve"/>
      <point x="185" y="1196" type="line"/>
      <point x="261" y="1275"/>
      <point x="365" y="1318"/>
      <point x="459" y="1318" type="curve" smooth="yes"/>
      <point x="572" y="1318"/>
      <point x="618" y="1262"/>
      <point x="618" y="1203" type="curve" smooth="yes"/>
      <point x="618" y="1159"/>
      <point x="585" y="1112"/>
      <point x="533" y="1043" type="curve" smooth="yes"/>
      <point x="456" y="937"/>
      <point x="368" y="782"/>
      <point x="368" y="480" type="curve"/>
    </contour>
    <contour>
      <point x="328" y="137" type="curve" smooth="yes"/>
      <point x="328" y="43"/>
      <point x="398" y="-25"/>
      <point x="490" y="-25" type="curve" smooth="yes"/>
      <point x="583" y="-25"/>
      <point x="652" y="43"/>
      <point x="652" y="137" type="curve" smooth="yes"/>
      <point x="652" y="229"/>
      <point x="583" y="298"/>
      <point x="490" y="298" type="curve" smooth="yes"/>
      <point x="398" y="298"/>
      <point x="328" y="229"/>
    </contour>
  </outline>
</glyph>
<glyph name="at" format="2">
  <advance width="1729"/>
  <unicode hex="0040"/>
  <outline>
    <contour>
      <point x="1142" y="3" type="line"/>
      <point x="1071" y="-46"/>
      <point x="980" y="-72"/>
      <point x="887" y="-72" type="curve" smooth="yes"/>
      <point x="546" y="-72"/>
      <point x="273" y="194"/>
      <point x="273" y="605" type="curve" smooth="yes"/>
      <point x="273" y="983"/>
      <point x="552" y="1250"/>
      <point x="887" y="1250" type="curve" smooth="yes"/>
      <point x="1273" y="1250"/>
      <point x="1462" y="995"/>
      <point x="1462" y="670" type="curve" smooth="yes"/>
      <point x="1462" y="445"/>
      <point x="1358" y="328"/>
      <point x="1297" y="328" type="curve" smooth="yes"/>
      <point x="1244" y="328"/>
      <point x="1205" y="423"/>
      <point x="1205" y="643" type="curve" smooth="yes"/>
      <point x="1205" y="980" type="line"/>
      <point x="1118" y="1015"/>
      <point x="978" y="1040"/>
      <point x="897" y="1040" type="curve" smooth="yes"/>
      <point x="733" y="1040"/>
      <point x="617" y="964"/>
      <point x="533" y="828" type="curve" smooth="yes"/>
      <point x="485" y="750"/>
      <point x="458" y="653"/>
      <point x="458" y="530" type="curve" smooth="yes"/>
      <point x="458" y="301"/>
      <point x="604" y="170"/>
      <point x="738" y="170" type="curve" smooth="yes"/>
      <point x="862" y="170"/>
      <point x="1005" y="343"/>
      <point x="1057" y="467" type="curve"/>
      <point x="1067" y="299"/>
      <point x="1145" y="167"/>
      <point x="1267" y="167" type="curve" smooth="yes"/>
      <point x="1442" y="167"/>
      <point x="1635" y="361"/>
      <point x="1635" y="700" type="curve" smooth="yes"/>
      <point x="1635" y="1134"/>
      <point x="1330" y="1418"/>
      <point x="897" y="1418" type="curve" smooth="yes"/>
      <point x="475" y="1418"/>
      <point x="92" y="1133"/>
      <point x="92" y="575" type="curve" smooth="yes"/>
      <point x="92" y="41"/>
      <point x="474" y="-242"/>
      <point x="872" y="-242" type="curve" smooth="yes"/>
      <point x="1007" y="-242"/>
      <point x="1167" y="-195"/>
      <point x="1267" y="-125" type="curve"/>
    </contour>
    <contour>
      <point x="1022" y="713" type="line"/>
      <point x="990" y="575"/>
      <point x="855" y="340"/>
      <point x="765" y="340" type="curve" smooth="yes"/>
      <point x="693" y="340"/>
      <point x="642" y="418"/>
      <point x="642" y="575" type="curve" smooth="yes"/>
      <point x="642" y="652"/>
      <point x="662" y="735"/>
      <point x="697" y="784" type="curve" smooth="yes"/>
      <point x="739" y="847"/>
      <point x="799" y="872"/>
      <point x="867" y="872" type="curve" smooth="yes"/>
      <point x="941" y="872"/>
      <point x="989" y="853"/>
      <point x="1022" y="837" type="curve"/>
    </contour>
  </outline>
</glyph>
<glyph name="A" format="2">
  <advance width="1455"/>
  <unicode hex="0041"/>
  <anchor x="726" y="0" name="H"/>
  <anchor x="717" y="-100" name="L"/>
  <anchor x="1480" y="0" name="O"/>
  <anchor x="717" y="1530" name="U"/>
  <outline>
    <contour>
      <point x="315" y="0" type="line"/>
      <point x="433" y="365" type="line"/>
      <point x="1001" y="365" type="line"/>
      <point x="1120" y="0" type="line"/>
      <point x="1384" y="0" type="line"/>
      <point x="1349" y="80"/>
      <point x="1315" y="168"/>
      <point x="1250" y="355" type="curve" smooth="yes"/>
      <point x="870" y="1460" type="line"/>
      <point x="561" y="1460" type="line"/>
      <point x="181" y="355" type="line" smooth="yes"/>
      <point x="117" y="167"/>
      <point x="84" y="81"/>
      <point x="48" y="0" type="curve"/>
    </contour>
    <contour>
      <point x="937" y="560" type="line"/>
      <point x="495" y="560" type="line"/>
      <point x="715" y="1240" type="line"/>
    </contour>
  </outline>
</glyph>
<glyph name="B" format="2">
  <advance width="1352"/>
  <unicode hex="0042"/>
  <anchor x="652" y="-100" name="L"/>
  <anchor x="652" y="1530" name="U"/>
  <outline>
    <contour>
      <point x="422" y="1269" type="line"/>
      <point x="460" y="1271"/>
      <point x="545" y="1274"/>
      <point x="617" y="1274" type="curve" smooth="yes"/>
      <point x="809" y="1274"/>
      <point x="888" y="1210"/>
      <point x="888" y="1081" type="curve" smooth="yes"/>
      <point x="888" y="951"/>
      <point x="787" y="868"/>
      <point x="590" y="868" type="curve" smooth="yes"/>
      <point x="422" y="868" type="line"/>
    </contour>
    <contour>
      <point x="168" y="455" type="line"/>
      <point x="168" y="257"/>
      <point x="168" y="80"/>
      <point x="153" y="0" type="curve"/>
      <point x="204" y="-3"/>
      <point x="401" y="-10"/>
      <point x="622" y="-10" type="curve" smooth="yes"/>
      <point x="1033" y="-10"/>
      <point x="1210" y="180"/>
      <point x="1210" y="427" type="curve" smooth="yes"/>
      <point x="1210" y="671"/>
      <point x="1047" y="760"/>
      <point x="897" y="800" type="curve"/>
      <point x="1029" y="851"/>
      <point x="1135" y="949"/>
      <point x="1135" y="1113" type="curve" smooth="yes"/>
      <point x="1135" y="1379"/>
      <point x="924" y="1470"/>
      <point x="610" y="1470" type="curve" smooth="yes"/>
      <point x="425" y="1470"/>
      <point x="248" y="1466"/>
      <point x="153" y="1460" type="curve"/>
      <point x="168" y="1380"/>
      <point x="168" y="1196"/>
      <point x="168" y="1000" type="curve" smooth="yes"/>
    </contour>
    <contour>
      <point x="422" y="672" type="line"/>
      <point x="629" y="672" type="line" smooth="yes"/>
      <point x="846" y="672"/>
      <point x="963" y="593"/>
      <point x="963" y="440" type="curve" smooth="yes"/>
      <point x="963" y="250"/>
      <point x="811" y="193"/>
      <point x="638" y="193" type="curve" smooth="yes"/>
      <point x="534" y="193"/>
      <point x="456" y="196"/>
      <point x="422" y="198" type="curve"/>
    </contour>
  </outline>
</glyph>
<glyph name="C" format="2">
  <advance width="1375"/>
  <unicode hex="0043"/>
  <anchor x="747" y="0" name="H"/>
  <anchor x="747" y="-100" name="L"/>
  <anchor x="747" y="1530" name="U"/>
  <outline>
    <contour>
      <point x="1207" y="382" type="line"/>
      <point x="1096" y="270"/>
      <point x="931" y="197"/>
      <point x="780" y="197" type="curve" smooth="yes"/>
      <point x="517" y="197"/>
      <point x="347" y="401"/>
      <point x="347" y="735" type="curve" smooth="yes"/>
      <point x="347" y="1089"/>
      <point x="535" y="1268"/>
      <point x="790" y="1268" type="curve" smooth="yes"/>
      <point x="918" y="1268"/>
      <point x="1045" y="1229"/>
      <point x="1172" y="1125" type="curve"/>
      <point x="1238" y="1345" type="line"/>
      <point x="1095" y="1450"/>
      <point x="950" y="1485"/>
      <point x="780" y="1485" type="curve" smooth="yes"/>
      <point x="415" y="1485"/>
      <point x="92" y="1225"/>
      <point x="92" y="710" type="curve" smooth="yes"/>
      <point x="92" y="260"/>
      <point x="343" y="-25"/>
      <point x="753" y="-25" type="curve" smooth="yes"/>
      <point x="918" y="-25"/>
      <point x="1133" y="39"/>
      <point x="1253" y="140" type="curve"/>
    </contour>
  </outline>
</glyph>
<glyph name="D" format="2">
  <advance width="1468"/>
  <unicode hex="0044"/>
  <anchor x="752" y="-100" name="L"/>
  <anchor x="752" y="1530" name="U"/>
  <outline>
    <contour>
      <point x="168" y="455" type="line"/>
      <point x="168" y="257"/>
      <point x="168" y="80"/>
      <point x="153" y="0" type="curve"/>
      <point x="290" y="-4"/>
      <point x="507" y="-10"/>
      <point x="604" y="-10" type="curve" smooth="yes"/>
      <point x="909" y="-10"/>
      <point x="1352" y="145"/>
      <point x="1352" y="740" type="curve" smooth="yes"/>
      <point x="1352" y="1381"/>
      <point x="880" y="1470"/>
      <point x="625" y="1470" type="curve" smooth="yes"/>
      <point x="485" y="1470"/>
      <point x="241" y="1466"/>
      <point x="153" y="1460" type="curve"/>
      <point x="168" y="1380"/>
      <point x="168" y="1196"/>
      <point x="168" y="1000" type="curve" smooth="yes"/>
    </contour>
    <contour>
      <point x="422" y="1262" type="line"/>
      <point x="466" y="1264"/>
      <point x="563" y="1267"/>
      <point x="621" y="1267" type="curve" smooth="yes"/>
      <point x="891" y="1267"/>
      <point x="1099" y="1134"/>
      <point x="1099" y="720" type="curve" smooth="yes"/>
      <point x="1099" y="341"/>
      <point x="855" y="199"/>
      <point x="617" y="199" type="curve" smooth="yes"/>
      <point x="533" y="199"/>
      <point x="463" y="205"/>
      <point x="422" y="209" type="curve"/>
    </contour>
  </outline>
</glyph>
<glyph name="E" format="2">
  <advance width="1195"/>
  <unicode hex="0045"/>
  <anchor x="607" y="0" name="H"/>
  <anchor x="607" y="-100" name="L"/>
  <anchor x="975" y="0" name="O"/>
  <anchor x="1218" y="1200" name="R"/>
  <anchor x="607" y="1530" name="U"/>
  <outline>
    <contour>
      <point x="422" y="865" type="line"/>
      <point x="422" y="1252" type="line"/>
      <point x="1051" y="1252" type="line"/>
      <point x="1051" y="1460" type="line"/>
      <point x="153" y="1460" type="line"/>
      <point x="168" y="1380"/>
      <point x="168" y="1222"/>
      <point x="168" y="1025" type="curve" smooth="yes"/>
      <point x="168" y="435" type="line" smooth="yes"/>
      <point x="168" y="238"/>
      <point x="168" y="80"/>
      <point x="153" y="0" type="curve"/>
      <point x="1081" y="0" type="line"/>
      <point x="1081" y="223" type="line"/>
      <point x="1003" y="209"/>
      <point x="875" y="208"/>
      <point x="682" y="208" type="curve" smooth="yes"/>
      <point x="422" y="208" type="line"/>
      <point x="422" y="662" type="line"/>
      <point x="976" y="662" type="line"/>
      <point x="976" y="865" type="line"/>
    </contour>
  </outline>
</glyph>
<glyph name="F" format="2">
  <advance width="1183"/>
  <unicode hex="0046"/>
  <anchor x="618" y="-100" name="L"/>
  <anchor x="618" y="1530" name="U"/>
  <outline>
    <contour>
      <point x="422" y="852" type="line"/>
      <point x="422" y="1252" type="line"/>
      <point x="1070" y="1252" type="line"/>
      <point x="1070" y="1460" type="line"/>
      <point x="153" y="1460" type="line"/>
      <point x="168" y="1380"/>
      <point x="168" y="1217"/>
      <point x="168" y="1020" type="curve" smooth="yes"/>
      <point x="168" y="435" type="line" smooth="yes"/>
      <point x="168" y="238"/>
      <point x="168" y="80"/>
      <point x="153" y="0" type="curve"/>
      <point x="437" y="0" type="line"/>
      <point x="422" y="75"/>
      <point x="422" y="227"/>
      <point x="422" y="417" type="curve" smooth="yes"/>
      <point x="422" y="648" type="line"/>
      <point x="985" y="648" type="line"/>
      <point x="985" y="852" type="line"/>
    </contour>
  </outline>
</glyph>
<glyph name="G" format="2">
  <advance width="1455"/>
  <unicode hex="0047"/>
  <anchor x="786" y="0" name="H"/>
  <anchor x="786" y="-100" name="L"/>
  <anchor x="786" y="1530" name="U"/>
  <outline>
    <contour>
      <point x="1316" y="772" type="line"/>
      <point x="756" y="772" type="line"/>
      <point x="756" y="567" type="line"/>
      <point x="1083" y="567" type="line"/>
      <point x="1083" y="278" type="line"/>
      <point x="965" y="214"/>
      <point x="881" y="197"/>
      <point x="765" y="197" type="curve" smooth="yes"/>
      <point x="512" y="197"/>
      <point x="347" y="406"/>
      <point x="347" y="745" type="curve" smooth="yes"/>
      <point x="347" y="1063"/>
      <point x="523" y="1268"/>
      <point x="802" y="1268" type="curve" smooth="yes"/>
      <point x="941" y="1268"/>
      <point x="1080" y="1232"/>
      <point x="1222" y="1126" type="curve"/>
      <point x="1301" y="1345" type="line"/>
      <point x="1120" y="1462"/>
      <point x="975" y="1485"/>
      <point x="807" y="1485" type="curve" smooth="yes"/>
      <point x="403" y="1485"/>
      <point x="92" y="1199"/>
      <point x="92" y="720" type="curve" smooth="yes"/>
      <point x="92" y="241"/>
      <point x="374" y="-25"/>
      <point x="766" y="-25" type="curve" smooth="yes"/>
      <point x="946" y="-25"/>
      <point x="1103" y="11"/>
      <point x="1316" y="155" type="curve"/>
    </contour>
  </outline>
</glyph>
<glyph name="H" format="2">
  <advance width="1502"/>
  <unicode hex="0048"/>
  <anchor x="298" y="0" name="H"/>
  <anchor x="738" y="-100" name="L"/>
  <anchor x="738" y="1530" name="U"/>
  <outline>
    <contour>
      <point x="1323" y="0" type="line"/>
      <point x="1308" y="80"/>
      <point x="1308" y="235"/>
      <point x="1308" y="432" type="curve" smooth="yes"/>
      <point x="1308" y="1028" type="line" smooth="yes"/>
      <point x="1308" y="1225"/>
      <point x="1308" y="1380"/>
      <point x="1323" y="1460" type="curve"/>
      <point x="1055" y="1460" type="line"/>
      <point x="1055" y="852" type="line"/>
      <point x="422" y="852" type="line"/>
      <point x="422" y="1460" type="line"/>
      <point x="153" y="1460" type="line"/>
      <point x="168" y="1380"/>
      <point x="168" y="1225"/>
      <point x="168" y="1028" type="curve" smooth="yes"/>
      <point x="168" y="432" type="line" smooth="yes"/>
      <point x="168" y="235"/>
      <point x="168" y="80"/>
      <point x="153" y="0" type="curve"/>
      <point x="422" y="0" type="line"/>
      <point x="422" y="648" type="line"/>
      <point x="1055" y="648" type="line"/>
      <point x="1055" y="0" type="line"/>
    </contour>
  </outline>
</glyph>
<glyph name="I" format="2">
  <advance width="1022"/>
  <unicode hex="0049"/>
  <anchor x="506" y="0" name="H"/>
  <anchor x="503" y="-100" name="L"/>
  <anchor x="699" y="0" name="O"/>
  <anchor x="1001" y="1200" name="R"/>
  <anchor x="506" y="1530" name="U"/>
  <outline>
    <contour>
      <point x="133" y="1460" type="line"/>
      <point x="133" y="1275" type="line"/>
      <point x="373" y="1275" type="line"/>
      <point x="373" y="185" type="line"/>
      <point x="133" y="185" type="line"/>
      <point x="133" y="0" type="line"/>
      <point x="868" y="0" type="line"/>
      <point x="868" y="185" type="line"/>
      <point x="627" y="185" type="line"/>
      <point x="627" y="1275" type="line"/>
      <point x="868" y="1275" type="line"/>
      <point x="868" y="1460" type="line"/>
    </contour>
  </outline>
</glyph>
<glyph name="J" format="2">
  <advance width="1008"/>
  <unicode hex="004A"/>
  <anchor x="413" y="-100" name="L"/>
  <anchor x="695" y="1530" name="U"/>
  <outline>
    <contour>
      <point x="562" y="1460" type="line"/>
      <point x="575" y="1354"/>
      <point x="577" y="1175"/>
      <point x="577" y="980" type="curve" smooth="yes"/>
      <point x="577" y="534" type="line" smooth="yes"/>
      <point x="577" y="341"/>
      <point x="522" y="203"/>
      <point x="357" y="203" type="curve" smooth="yes"/>
      <point x="259" y="203"/>
      <point x="151" y="246"/>
      <point x="79" y="323" type="curve"/>
      <point x="32" y="90" type="line"/>
      <point x="108" y="9"/>
      <point x="255" y="-25"/>
      <point x="357" y="-25" type="curve" smooth="yes"/>
      <point x="639" y="-25"/>
      <point x="830" y="126"/>
      <point x="830" y="535" type="curve" smooth="yes"/>
      <point x="830" y="678"/>
      <point x="830" y="1116"/>
      <point x="830" y="1460" type="curve"/>
    </contour>
  </outline>
</glyph>
<glyph name="K" format="2">
  <advance width="1390"/>
  <unicode hex="004B"/>
  <anchor x="303" y="0" name="H"/>
  <anchor x="725" y="-100" name="L"/>
  <anchor x="700" y="1530" name="U"/>
  <outline>
    <contour>
      <point x="938" y="1460" type="line"/>
      <point x="346" y="722" type="line"/>
      <point x="481" y="728" type="line"/>
      <point x="563" y="697" type="line"/>
      <point x="1242" y="1460" type="line"/>
    </contour>
    <contour>
      <point x="376" y="732" type="line"/>
      <point x="988" y="0" type="line"/>
      <point x="1317" y="0" type="line"/>
      <point x="571" y="839" type="line"/>
    </contour>
    <contour>
      <point x="422" y="1460" type="line"/>
      <point x="153" y="1460" type="line"/>
      <point x="168" y="1380"/>
      <point x="168" y="1222"/>
      <point x="168" y="1025" type="curve" smooth="yes"/>
      <point x="168" y="435" type="line" smooth="yes"/>
      <point x="168" y="238"/>
      <point x="168" y="80"/>
      <point x="153" y="0" type="curve"/>
      <point x="422" y="0" type="line"/>
    </contour>
  </outline>
</glyph>
<glyph name="L" format="2">
  <advance width="1113"/>
  <unicode hex="004C"/>
  <anchor x="611" y="0" name="H"/>
  <anchor x="611" y="-100" name="L"/>
  <anchor x="613" y="1200" name="R"/>
  <anchor x="611" y="1530" name="U"/>
  <outline>
    <contour>
      <point x="422" y="208" type="line"/>
      <point x="422" y="1460" type="line"/>
      <point x="153" y="1460" type="line"/>
      <point x="168" y="1380"/>
      <point x="168" y="1222"/>
      <point x="168" y="1025" type="curve" smooth="yes"/>
      <point x="168" y="435" type="line" smooth="yes"/>
      <point x="168" y="238"/>
      <point x="168" y="80"/>
      <point x="153" y="0" type="curve"/>
      <point x="1065" y="0" type="line"/>
      <point x="1065" y="223" type="line"/>
      <point x="987" y="209"/>
      <point x="832" y="208"/>
      <point x="640" y="208" type="curve" smooth="yes"/>
    </contour>
  </outline>
</glyph>
<glyph name="M" format="2">
  <advance width="1835"/>
  <unicode hex="004D"/>
  <anchor x="1536" y="0" name="H"/>
  <anchor x="905" y="-100" name="L"/>
  <anchor x="905" y="1530" name="U"/>
  <outline>
    <contour>
      <point x="906" y="252" type="line"/>
      <point x="535" y="1460" type="line"/>
      <point x="305" y="1460" type="line"/>
      <point x="414" y="1188" type="line"/>
      <point x="777" y="0" type="line"/>
      <point x="1038" y="0" type="line"/>
      <point x="1399" y="1188" type="line"/>
      <point x="1507" y="1460" type="line"/>
      <point x="1280" y="1460" type="line"/>
    </contour>
    <contour>
      <point x="223" y="1460" type="line"/>
      <point x="223" y="1460"/>
      <point x="179" y="198"/>
      <point x="153" y="0" type="curve"/>
      <point x="395" y="0" type="line"/>
      <point x="425" y="1205" type="line"/>
      <point x="458" y="1460" type="line"/>
    </contour>
    <contour>
      <point x="1657" y="0" type="line"/>
      <point x="1636" y="145"/>
      <point x="1605" y="917"/>
      <point x="1587" y="1460" type="curve"/>
      <point x="1348" y="1460" type="line"/>
      <point x="1389" y="1205" type="line"/>
      <point x="1415" y="0" type="line"/>
    </contour>
  </outline>
</glyph>
<glyph name="N" format="2">
  <advance width="1530"/>
  <unicode hex="004E"/>
  <anchor x="1237" y="0" name="H"/>
  <anchor x="756" y="-100" name="L"/>
  <anchor x="756" y="1530" name="U"/>
  <outline>
    <contour>
      <point x="215" y="1325" type="line"/>
      <point x="1108" y="0" type="line"/>
      <point x="1290" y="133" type="line"/>
      <point x="397" y="1460" type="line"/>
    </contour>
    <contour>
      <point x="1108" y="0" type="line"/>
      <point x="1337" y="0" type="line"/>
      <point x="1337" y="1025" type="line" smooth="yes"/>
      <point x="1337" y="1222"/>
      <point x="1338" y="1380"/>
      <point x="1352" y="1460" type="curve"/>
      <point x="1108" y="1460" type="line"/>
    </contour>
    <contour>
      <point x="397" y="1460" type="line"/>
      <point x="153" y="1460" type="line"/>
      <point x="168" y="1380"/>
      <point x="168" y="1222"/>
      <point x="168" y="1025" type="curve" smooth="yes"/>
      <point x="168" y="435" type="line" smooth="yes"/>
      <point x="168" y="238"/>
      <point x="168" y="80"/>
      <point x="153" y="0" type="curve"/>
      <point x="397" y="0" type="line"/>
    </contour>
  </outline>
</glyph>
<glyph name="O" format="2">
  <advance width="1487"/>
  <unicode hex="004F"/>
  <anchor x="732" y="0" name="H"/>
  <anchor x="732" y="-100" name="L"/>
  <anchor x="982" y="0" name="O"/>
  <anchor x="1473" y="1200" name="R"/>
  <anchor x="732" y="1530" name="U"/>
  <outline>
    <contour>
      <point x="1115" y="715" type="curve" smooth="yes"/>
      <point x="1115" y="389"/>
      <point x="948" y="197"/>
      <point x="733" y="197" type="curve" smooth="yes"/>
      <point x="503" y="197"/>
      <point x="347" y="409"/>
      <point x="347" y="745" type="curve" smooth="yes"/>
      <point x="347" y="1062"/>
      <point x="508" y="1263"/>
      <point x="733" y="1263" type="curve" smooth="yes"/>
      <point x="959" y="1263"/>
      <point x="1115" y="1055"/>
    </contour>
    <contour>
      <point x="1370" y="740" type="curve" smooth="yes"/>
      <point x="1370" y="1219"/>
      <point x="1077" y="1485"/>
      <point x="743" y="1485" type="curve" smooth="yes"/>
      <point x="405" y="1485"/>
      <point x="92" y="1199"/>
      <point x="92" y="720" type="curve" smooth="yes"/>
      <point x="92" y="241"/>
      <point x="386" y="-25"/>
      <point x="723" y="-25" type="curve" smooth="yes"/>
      <point x="1058" y="-25"/>
      <point x="1370" y="260"/>
    </contour>
  </outline>
</glyph>
<glyph name="P" format="2">
  <advance width="1248"/>
  <unicode hex="0050"/>
  <anchor x="669" y="-100" name="L"/>
  <anchor x="669" y="1530" name="U"/>
  <outline>
    <contour>
      <point x="422" y="537" type="line"/>
      <point x="487" y="530"/>
      <point x="554" y="527"/>
      <point x="627" y="527" type="curve" smooth="yes"/>
      <point x="956" y="527"/>
      <point x="1172" y="713"/>
      <point x="1172" y="1017" type="curve" smooth="yes"/>
      <point x="1172" y="1318"/>
      <point x="957" y="1470"/>
      <point x="634" y="1470" type="curve" smooth="yes"/>
      <point x="459" y="1470"/>
      <point x="238" y="1463"/>
      <point x="153" y="1460" type="curve"/>
      <point x="168" y="1380"/>
      <point x="168" y="1196"/>
      <point x="168" y="1000" type="curve"/>
      <point x="168" y="435" type="line" smooth="yes"/>
      <point x="168" y="238"/>
      <point x="168" y="80"/>
      <point x="153" y="0" type="curve"/>
      <point x="437" y="0" type="line"/>
      <point x="423" y="78"/>
      <point x="422" y="237"/>
      <point x="422" y="435" type="curve" smooth="yes"/>
    </contour>
    <contour>
      <point x="422" y="1262" type="line"/>
      <point x="482" y="1265"/>
      <point x="523" y="1267"/>
      <point x="606" y="1267" type="curve" smooth="yes"/>
      <point x="836" y="1267"/>
      <point x="918" y="1153"/>
      <point x="918" y="1003" type="curve" smooth="yes"/>
      <point x="918" y="830"/>
      <point x="824" y="723"/>
      <point x="602" y="723" type="curve" smooth="yes"/>
      <point x="536" y="723"/>
      <point x="471" y="726"/>
      <point x="422" y="733" type="curve"/>
    </contour>
  </outline>
</glyph>
<glyph name="Q" format="2">
  <advance width="1522"/>
  <unicode hex="0051"/>
  <anchor x="737" y="-270" name="L"/>
  <anchor x="737" y="1530" name="U"/>
  <outline>
    <contour>
      <point x="1370" y="740" type="curve" smooth="yes"/>
      <point x="1370" y="1219"/>
      <point x="1078" y="1485"/>
      <point x="743" y="1485" type="curve" smooth="yes"/>
      <point x="405" y="1485"/>
      <point x="92" y="1199"/>
      <point x="92" y="720" type="curve" smooth="yes"/>
      <point x="92" y="241"/>
      <point x="384" y="-25"/>
      <point x="722" y="-25" type="curve" smooth="yes"/>
      <point x="794" y="-25"/>
      <point x="833" y="-21"/>
      <point x="884" y="-10" type="curve"/>
      <point x="953" y="-10"/>
      <point x="1256" y="-215"/>
      <point x="1340" y="-215" type="curve" smooth="yes"/>
      <point x="1401" y="-215"/>
      <point x="1485" y="-72"/>
      <point x="1508" y="-25" type="curve"/>
      <point x="1370" y="-9"/>
      <point x="1220" y="68"/>
      <point x="1124" y="130" type="curve"/>
      <point x="1281" y="267"/>
      <point x="1370" y="474"/>
    </contour>
    <contour>
      <point x="1115" y="715" type="curve" smooth="yes"/>
      <point x="1115" y="389"/>
      <point x="950" y="197"/>
      <point x="733" y="197" type="curve" smooth="yes"/>
      <point x="503" y="197"/>
      <point x="347" y="409"/>
      <point x="347" y="745" type="curve" smooth="yes"/>
      <point x="347" y="1062"/>
      <point x="508" y="1263"/>
      <point x="733" y="1263" type="curve" smooth="yes"/>
      <point x="959" y="1263"/>
      <point x="1115" y="1055"/>
    </contour>
  </outline>
</glyph>
<glyph name="R" format="2">
  <advance width="1355"/>
  <unicode hex="0052"/>
  <anchor x="555" y="0" name="H"/>
  <anchor x="663" y="-100" name="L"/>
  <anchor x="643" y="1530" name="U"/>
  <outline>
    <contour>
      <point x="422" y="598" type="line"/>
      <point x="623" y="598" type="line"/>
      <point x="875" y="598"/>
      <point x="1147" y="730"/>
      <point x="1147" y="1047" type="curve" smooth="yes"/>
      <point x="1147" y="1336"/>
      <point x="933" y="1470"/>
      <point x="622" y="1470" type="curve" smooth="yes"/>
      <point x="409" y="1470"/>
      <point x="178" y="1461"/>
      <point x="153" y="1460" type="curve"/>
      <point x="168" y="1380"/>
      <point x="168" y="1196"/>
      <point x="168" y="1000" type="curve" smooth="yes"/>
      <point x="168" y="435" type="line"/>
      <point x="168" y="238"/>
      <point x="168" y="80"/>
      <point x="153" y="0" type="curve"/>
      <point x="437" y="0" type="line"/>
      <point x="423" y="78"/>
      <point x="422" y="238"/>
      <point x="422" y="435" type="curve"/>
    </contour>
    <contour>
      <point x="422" y="1262" type="line"/>
      <point x="475" y="1265"/>
      <point x="520" y="1267"/>
      <point x="595" y="1267" type="curve" smooth="yes"/>
      <point x="795" y="1267"/>
      <point x="893" y="1196"/>
      <point x="893" y="1038" type="curve" smooth="yes"/>
      <point x="893" y="866"/>
      <point x="780" y="793"/>
      <point x="588" y="793" type="curve"/>
      <point x="422" y="793" type="line"/>
    </contour>
    <contour>
      <point x="558" y="635" type="line"/>
      <point x="980" y="0" type="line"/>
      <point x="1302" y="0" type="line"/>
      <point x="1241" y="66"/>
      <point x="856" y="603"/>
      <point x="790" y="695" type="curve"/>
    </contour>
  </outline>
</glyph>
<glyph name="S" format="2">
  <advance width="1220"/>
  <unicode hex="0053"/>
  <anchor x="604" y="0" name="H"/>
  <anchor x="604" y="-100" name="L"/>
  <anchor x="604" y="1530" name="U"/>
  <outline>
    <contour>
      <point x="1050" y="1395" type="line"/>
      <point x="911" y="1458"/>
      <point x="793" y="1485"/>
      <point x="628" y="1485" type="curve" smooth="yes"/>
      <point x="278" y="1485"/>
      <point x="132" y="1243"/>
      <point x="132" y="1067" type="curve" smooth="yes"/>
      <point x="132" y="891"/>
      <point x="198" y="763"/>
      <point x="512" y="665" type="curve" smooth="yes"/>
      <point x="809" y="572"/>
      <point x="859" y="506"/>
      <point x="859" y="415" type="curve" smooth="yes"/>
      <point x="859" y="276"/>
      <point x="729" y="197"/>
      <point x="588" y="197" type="curve" smooth="yes"/>
      <point x="432" y="197"/>
      <point x="279" y="247"/>
      <point x="140" y="362" type="curve"/>
      <point x="92" y="110" type="line"/>
      <point x="200" y="31"/>
      <point x="385" y="-25"/>
      <point x="588" y="-25" type="curve" smooth="yes"/>
      <point x="876" y="-25"/>
      <point x="1114" y="165"/>
      <point x="1114" y="445" type="curve" smooth="yes"/>
      <point x="1114" y="658"/>
      <point x="969" y="779"/>
      <point x="703" y="860" type="curve" smooth="yes"/>
      <point x="433" y="942"/>
      <point x="386" y="991"/>
      <point x="386" y="1085" type="curve" smooth="yes"/>
      <point x="386" y="1176"/>
      <point x="482" y="1267"/>
      <point x="618" y="1267" type="curve" smooth="yes"/>
      <point x="755" y="1267"/>
      <point x="854" y="1232"/>
      <point x="1007" y="1153" type="curve"/>
    </contour>
  </outline>
</glyph>
<glyph name="T" format="2">
  <advance width="1265"/>
  <unicode hex="0054"/>
  <anchor x="622" y="0" name="H"/>
  <anchor x="622" y="-100" name="L"/>
  <anchor x="622" y="1530" name="U"/>
  <outline>
    <contour>
      <point x="38" y="1460" type="line"/>
      <point x="38" y="1232" type="line"/>
      <point x="113" y="1249"/>
      <point x="190" y="1252"/>
      <point x="273" y="1252" type="curve" smooth="yes"/>
      <point x="494" y="1252" type="line"/>
      <point x="494" y="420" type="line" smooth="yes"/>
      <point x="494" y="230"/>
      <point x="491" y="77"/>
      <point x="474" y="0" type="curve"/>
      <point x="767" y="0" type="line"/>
      <point x="750" y="77"/>
      <point x="747" y="230"/>
      <point x="747" y="420" type="curve" smooth="yes"/>
      <point x="747" y="1252" type="line"/>
      <point x="972" y="1252" type="line" smooth="yes"/>
      <point x="1056" y="1252"/>
      <point x="1132" y="1249"/>
      <point x="1207" y="1232" type="curve"/>
      <point x="1207" y="1460" type="line"/>
    </contour>
  </outline>
</glyph>
<glyph name="U" format="2">
  <advance width="1473"/>
  <unicode hex="0055"/>
  <anchor x="724" y="0" name="H"/>
  <anchor x="724" y="-100" name="L"/>
  <anchor x="975" y="0" name="O"/>
  <anchor x="1453" y="1200" name="R"/>
  <anchor x="724" y="1530" name="U"/>
  <outline>
    <contour>
      <point x="1027" y="1460" type="line"/>
      <point x="1027" y="560" type="line" smooth="yes"/>
      <point x="1027" y="329"/>
      <point x="957" y="181"/>
      <point x="727" y="181" type="curve" smooth="yes"/>
      <point x="491" y="181"/>
      <point x="422" y="329"/>
      <point x="422" y="560" type="curve" smooth="yes"/>
      <point x="422" y="1460" type="line"/>
      <point x="153" y="1460" type="line"/>
      <point x="167" y="1380"/>
      <point x="168" y="1222"/>
      <point x="168" y="1025" type="curve" smooth="yes"/>
      <point x="168" y="515" type="line"/>
      <point x="168" y="190"/>
      <point x="352" y="-25"/>
      <point x="727" y="-25" type="curve" smooth="yes"/>
      <point x="1097" y="-25"/>
      <point x="1280" y="190"/>
      <point x="1280" y="515" type="curve"/>
      <point x="1280" y="1025" type="line" smooth="yes"/>
      <point x="1280" y="1232"/>
      <point x="1282" y="1380"/>
      <point x="1295" y="1460" type="curve"/>
    </contour>
  </outline>
</glyph>
<glyph name="V" format="2">
  <advance width="1432"/>
  <unicode hex="0056"/>
  <anchor x="713" y="0" name="H"/>
  <anchor x="705" y="-100" name="L"/>
  <anchor x="913" y="0" name="O"/>
  <anchor x="705" y="1530" name="U"/>
  <outline>
    <contour>
      <point x="1108" y="1460" type="line"/>
      <point x="705" y="238" type="line"/>
      <point x="303" y="1460" type="line"/>
      <point x="28" y="1460" type="line"/>
      <point x="61" y="1378"/>
      <point x="98" y="1288"/>
      <point x="167" y="1095" type="curve" smooth="yes"/>
      <point x="557" y="0" type="line"/>
      <point x="855" y="0" type="line"/>
      <point x="1243" y="1095" type="line" smooth="yes"/>
      <point x="1312" y="1289"/>
      <point x="1347" y="1378"/>
      <point x="1383" y="1460" type="curve"/>
    </contour>
  </outline>
</glyph>
<glyph name="W" format="2">
  <advance width="2117"/>
  <unicode hex="0057"/>
  <anchor x="1044" y="-100" name="L"/>
  <anchor x="1044" y="1530" name="U"/>
  <outline>
    <contour>
      <point x="1487" y="0" type="line"/>
      <point x="1635" y="0" type="line"/>
      <point x="1943" y="1095" type="line" smooth="yes"/>
      <point x="1998" y="1289"/>
      <point x="2026" y="1378"/>
      <point x="2058" y="1460" type="curve"/>
      <point x="1778" y="1460" type="line"/>
      <point x="1470" y="130" type="line"/>
    </contour>
    <contour>
      <point x="1160" y="1460" type="line"/>
      <point x="925" y="1460" type="line"/>
      <point x="993" y="1305" type="line"/>
      <point x="1350" y="0" type="line"/>
      <point x="1500" y="0" type="line"/>
      <point x="1520" y="130" type="line"/>
    </contour>
    <contour>
      <point x="593" y="0" type="line"/>
      <point x="738" y="0" type="line"/>
      <point x="1092" y="1305" type="line"/>
      <point x="1160" y="1460" type="line"/>
      <point x="925" y="1460" type="line"/>
      <point x="573" y="130" type="line"/>
    </contour>
    <contour>
      <point x="313" y="1460" type="line"/>
      <point x="33" y="1460" type="line"/>
      <point x="64" y="1381"/>
      <point x="95" y="1286"/>
      <point x="148" y="1095" type="curve" smooth="yes"/>
      <point x="453" y="0" type="line"/>
      <point x="607" y="0" type="line"/>
      <point x="623" y="130" type="line"/>
    </contour>
  </outline>
</glyph>
<glyph name="X" format="2">
  <advance width="1352"/>
  <unicode hex="0058"/>
  <anchor x="663" y="-100" name="L"/>
  <anchor x="663" y="1530" name="U"/>
  <outline>
    <contour>
      <point x="1003" y="0" type="line"/>
      <point x="1293" y="0" type="line"/>
      <point x="1232" y="82"/>
      <point x="1196" y="125"/>
      <point x="1066" y="336" type="curve" smooth="yes"/>
      <point x="375" y="1460" type="line"/>
      <point x="80" y="1460" type="line"/>
      <point x="144" y="1376"/>
      <point x="193" y="1316"/>
      <point x="320" y="1110" type="curve" smooth="yes"/>
    </contour>
    <contour>
      <point x="588" y="900" type="line"/>
      <point x="258" y="340" type="line" smooth="yes"/>
      <point x="134" y="129"/>
      <point x="96" y="86"/>
      <point x="33" y="0" type="curve"/>
      <point x="323" y="0" type="line"/>
      <point x="686" y="619" type="line"/>
    </contour>
    <contour>
      <point x="748" y="652" type="line"/>
      <point x="1017" y="1110" type="line" smooth="yes"/>
      <point x="1134" y="1308"/>
      <point x="1190" y="1383"/>
      <point x="1253" y="1460" type="curve"/>
      <point x="958" y="1460" type="line"/>
      <point x="649" y="933" type="line"/>
    </contour>
  </outline>
</glyph>
<glyph name="Y" format="2">
  <advance width="1349"/>
  <unicode hex="0059"/>
  <anchor x="665" y="-100" name="L"/>
  <anchor x="665" y="1530" name="U"/>
  <outline>
    <contour>
      <point x="574" y="567" type="line"/>
      <point x="767" y="672" type="line"/>
      <point x="326" y="1460" type="line"/>
      <point x="28" y="1460" type="line"/>
      <point x="140" y="1311"/>
      <point x="206" y="1197"/>
      <point x="283" y="1065" type="curve" smooth="yes"/>
    </contour>
    <contour>
      <point x="757" y="567" type="line"/>
      <point x="1051" y="1065" type="line" smooth="yes"/>
      <point x="1127" y="1195"/>
      <point x="1183" y="1291"/>
      <point x="1301" y="1460" type="curve"/>
      <point x="1010" y="1460" type="line"/>
      <point x="577" y="667" type="line"/>
    </contour>
    <contour>
      <point x="538" y="677" type="line"/>
      <point x="538" y="435" type="line" smooth="yes"/>
      <point x="538" y="238"/>
      <point x="538" y="80"/>
      <point x="523" y="0" type="curve"/>
      <point x="807" y="0" type="line"/>
      <point x="792" y="80"/>
      <point x="792" y="238"/>
      <point x="792" y="435" type="curve" smooth="yes"/>
      <point x="792" y="677" type="line"/>
    </contour>
  </outline>
</glyph>
<glyph name="Z" format="2">
  <advance width="1243"/>
  <unicode hex="005A"/>
  <anchor x="625" y="-100" name="L"/>
  <anchor x="625" y="1530" name="U"/>
  <outline>
    <contour>
      <point x="1125" y="1460" type="line"/>
      <point x="128" y="1460" type="line"/>
      <point x="128" y="1232" type="line"/>
      <point x="214" y="1249"/>
      <point x="340" y="1252"/>
      <point x="550" y="1252" type="curve" smooth="yes"/>
      <point x="819" y="1252" type="line"/>
      <point x="68" y="148" type="line"/>
      <point x="68" y="0" type="line"/>
      <point x="1155" y="0" type="line"/>
      <point x="1155" y="228" type="line"/>
      <point x="1075" y="214"/>
      <point x="916" y="208"/>
      <point x="720" y="208" type="curve" smooth="yes"/>
      <point x="380" y="208" type="line"/>
      <point x="1125" y="1300" type="line"/>
    </contour>
  </outline>
</glyph>
<glyph name="bracketleft" format="2">
  <advance width="830"/>
  <unicode hex="005B"/>
  <outline>
    <contour>
      <point x="687" y="-410" type="line"/>
      <point x="687" y="-220" type="line"/>
      <point x="442" y="-220" type="line"/>
      <point x="442" y="1410" type="line"/>
      <point x="687" y="1410" type="line"/>
      <point x="687" y="1600" type="line"/>
      <point x="193" y="1600" type="line"/>
      <point x="193" y="-410" type="line"/>
    </contour>
  </outline>
</glyph>
<glyph name="backslash" format="2">
  <advance width="1053"/>
  <unicode hex="005C"/>
  <outline>
    <contour>
      <point x="1043" y="-245" type="line"/>
      <point x="213" y="1600" type="line"/>
      <point x="10" y="1600" type="line"/>
      <point x="840" y="-245" type="line"/>
    </contour>
  </outline>
</glyph>
<glyph name="bracketright" format="2">
  <advance width="830"/>
  <unicode hex="005D"/>
  <outline>
    <contour>
      <point x="637" y="-410" type="line"/>
      <point x="637" y="1600" type="line"/>
      <point x="143" y="1600" type="line"/>
      <point x="143" y="1410" type="line"/>
      <point x="388" y="1410" type="line"/>
      <point x="388" y="-220" type="line"/>
      <point x="143" y="-220" type="line"/>
      <point x="143" y="-410" type="line"/>
    </contour>
  </outline>
</glyph>
<glyph name="asciicircum" format="2">
  <advance width="870"/>
  <unicode hex="005E"/>
  <anchor x="440" y="1635" name="U"/>
  <outline>
    <contour>
      <point x="875" y="1190" type="line"/>
      <point x="569" y="1600" type="line"/>
      <point x="312" y="1600" type="line"/>
      <point x="5" y="1190" type="line"/>
      <point x="215" y="1190" type="line"/>
      <point x="440" y="1437" type="line"/>
      <point x="665" y="1190" type="line"/>
    </contour>
  </outline>
</glyph>
<glyph name="underscore" format="2">
  <advance width="1287"/>
  <unicode hex="005F"/>
  <outline>
    <contour>
      <point x="0" y="-353" type="line"/>
      <point x="1287" y="-353" type="line"/>
      <point x="1287" y="-170" type="line"/>
      <point x="0" y="-170" type="line"/>
    </contour>
  </outline>
</glyph>
<glyph name="grave" format="2">
  <advance width="620"/>
  <unicode hex="0060"/>
  <anchor x="463" y="1635" name="U"/>
  <outline>
    <contour>
      <point x="0" y="1600" type="line"/>
      <point x="407" y="1190" type="line"/>
      <point x="620" y="1190" type="line"/>
      <point x="310" y="1600" type="line"/>
    </contour>
  </outline>
</glyph>
<glyph name="a" format="2">
  <advance width="1177"/>
  <unicode hex="0061"/>
  <anchor x="587" y="0" name="H"/>
  <anchor x="587" y="-100" name="L"/>
  <anchor x="1165" y="0" name="O"/>
  <anchor x="1177" y="1000" name="R"/>
  <anchor x="587" y="1100" name="U"/>
  <outline>
    <contour>
      <point x="437" y="-25" type="curve" smooth="yes"/>
      <point x="556" y="-25"/>
      <point x="684" y="25"/>
      <point x="798" y="142" type="curve"/>
      <point x="812" y="83"/>
      <point x="835" y="29"/>
      <point x="848" y="0" type="curve"/>
      <point x="1088" y="0" type="line"/>
      <point x="1046" y="112"/>
      <point x="1017" y="226"/>
      <point x="1017" y="370" type="curve" smooth="yes"/>
      <point x="1017" y="760" type="line" smooth="yes"/>
      <point x="1017" y="919"/>
      <point x="851" y="1040"/>
      <point x="600" y="1040" type="curve" smooth="yes"/>
      <point x="437" y="1040"/>
      <point x="323" y="995"/>
      <point x="213" y="950" type="curve"/>
      <point x="208" y="881"/>
      <point x="204" y="756"/>
      <point x="203" y="712" type="curve"/>
      <point x="320" y="794"/>
      <point x="422" y="837"/>
      <point x="528" y="837" type="curve" smooth="yes"/>
      <point x="678" y="837"/>
      <point x="768" y="800"/>
      <point x="768" y="710" type="curve" smooth="yes"/>
      <point x="768" y="652" type="line"/>
      <point x="727" y="649"/>
      <point x="567" y="638"/>
      <point x="498" y="631" type="curve" smooth="yes"/>
      <point x="189" y="601"/>
      <point x="98" y="428"/>
      <point x="98" y="275" type="curve" smooth="yes"/>
      <point x="98" y="116"/>
      <point x="241" y="-25"/>
    </contour>
    <contour>
      <point x="495" y="183" type="curve" smooth="yes"/>
      <point x="404" y="183"/>
      <point x="345" y="234"/>
      <point x="345" y="307" type="curve" smooth="yes"/>
      <point x="345" y="381"/>
      <point x="393" y="443"/>
      <point x="542" y="461" type="curve" smooth="yes"/>
      <point x="597" y="468"/>
      <point x="725" y="480"/>
      <point x="768" y="482" type="curve"/>
      <point x="768" y="345" type="line"/>
      <point x="664" y="205"/>
      <point x="584" y="183"/>
    </contour>
  </outline>
</glyph>
<glyph name="b" format="2">
  <advance width="1195"/>
  <unicode hex="0062"/>
  <anchor x="603" y="0" name="H"/>
  <anchor x="603" y="-100" name="L"/>
  <anchor x="1195" y="1000" name="R"/>
  <anchor x="603" y="1635" name="U"/>
  <outline>
    <contour>
      <point x="123" y="1600" type="line"/>
      <point x="138" y="1488"/>
      <point x="138" y="1273"/>
      <point x="138" y="1130" type="curve" smooth="yes"/>
      <point x="138" y="829"/>
      <point x="138" y="356"/>
      <point x="138" y="65" type="curve"/>
      <point x="281" y="25"/>
      <point x="442" y="-25"/>
      <point x="625" y="-25" type="curve" smooth="yes"/>
      <point x="916" y="-25"/>
      <point x="1103" y="197"/>
      <point x="1103" y="540" type="curve" smooth="yes"/>
      <point x="1103" y="832"/>
      <point x="963" y="1040"/>
      <point x="764" y="1040" type="curve" smooth="yes"/>
      <point x="600" y="1040"/>
      <point x="478" y="953"/>
      <point x="387" y="838" type="curve"/>
      <point x="387" y="904"/>
      <point x="387" y="1311"/>
      <point x="387" y="1600" type="curve"/>
    </contour>
    <contour>
      <point x="387" y="585" type="line"/>
      <point x="447" y="723"/>
      <point x="564" y="818"/>
      <point x="674" y="818" type="curve" smooth="yes"/>
      <point x="795" y="818"/>
      <point x="863" y="698"/>
      <point x="863" y="505" type="curve" smooth="yes"/>
      <point x="863" y="305"/>
      <point x="751" y="170"/>
      <point x="595" y="170" type="curve" smooth="yes"/>
      <point x="522" y="170"/>
      <point x="471" y="184"/>
      <point x="387" y="222" type="curve"/>
    </contour>
  </outline>
</glyph>
<glyph name="c" format="2">
  <advance width="1021"/>
  <unicode hex="0063"/>
  <anchor x="563" y="1" name="H"/>
  <anchor x="577" y="-99" name="L"/>
  <anchor x="1020" y="1001" name="R"/>
  <anchor x="573" y="1101" name="U"/>
  <outline>
    <contour>
      <point x="930" y="75" type="curve"/>
      <point x="903" y="293" type="line"/>
      <point x="816" y="222"/>
      <point x="731" y="180"/>
      <point x="611" y="180" type="curve" smooth="yes"/>
      <point x="440" y="180"/>
      <point x="342" y="311"/>
      <point x="342" y="500" type="curve" smooth="yes"/>
      <point x="342" y="708"/>
      <point x="453" y="838"/>
      <point x="611" y="838" type="curve" smooth="yes"/>
      <point x="721" y="838"/>
      <point x="802" y="806"/>
      <point x="879" y="743" type="curve"/>
      <point x="920" y="964" type="line"/>
      <point x="847" y="1006"/>
      <point x="745" y="1040"/>
      <point x="613" y="1040" type="curve" smooth="yes"/>
      <point x="296" y="1040"/>
      <point x="92" y="799"/>
      <point x="92" y="490" type="curve" smooth="yes"/>
      <point x="92" y="164"/>
      <point x="310" y="-25"/>
      <point x="579" y="-25" type="curve" smooth="yes"/>
      <point x="728" y="-25"/>
      <point x="835" y="8"/>
    </contour>
  </outline>
</glyph>
<glyph name="d" format="2">
  <advance width="1240"/>
  <unicode hex="0064"/>
  <anchor x="598" y="0" name="H"/>
  <anchor x="598" y="-100" name="L"/>
  <anchor x="1253" y="1000" name="R"/>
  <anchor x="608" y="1635" name="U"/>
  <outline>
    <contour>
      <point x="1087" y="1600" type="line"/>
      <point x="813" y="1600" type="line"/>
      <point x="832" y="1516"/>
      <point x="838" y="1395"/>
      <point x="838" y="1235" type="curve"/>
      <point x="838" y="955" type="line"/>
      <point x="764" y="999"/>
      <point x="668" y="1040"/>
      <point x="587" y="1040" type="curve" smooth="yes"/>
      <point x="317" y="1040"/>
      <point x="102" y="814"/>
      <point x="102" y="460" type="curve" smooth="yes"/>
      <point x="102" y="167"/>
      <point x="266" y="-25"/>
      <point x="512" y="-25" type="curve" smooth="yes"/>
      <point x="653" y="-25"/>
      <point x="772" y="48"/>
      <point x="863" y="178" type="curve"/>
      <point x="880" y="107"/>
      <point x="903" y="33"/>
      <point x="918" y="0" type="curve"/>
      <point x="1162" y="0" type="line"/>
      <point x="1119" y="112"/>
      <point x="1087" y="278"/>
      <point x="1087" y="530" type="curve"/>
    </contour>
    <contour>
      <point x="838" y="400" type="line"/>
      <point x="788" y="289"/>
      <point x="671" y="178"/>
      <point x="560" y="178" type="curve" smooth="yes"/>
      <point x="417" y="178"/>
      <point x="350" y="286"/>
      <point x="350" y="490" type="curve" smooth="yes"/>
      <point x="350" y="699"/>
      <point x="466" y="823"/>
      <point x="587" y="823" type="curve" smooth="yes"/>
      <point x="682" y="823"/>
      <point x="744" y="805"/>
      <point x="838" y="757" type="curve"/>
    </contour>
  </outline>
</glyph>
<glyph name="e" format="2">
  <advance width="1105"/>
  <unicode hex="0065"/>
  <anchor x="561" y="0" name="H"/>
  <anchor x="583" y="-100" name="L"/>
  <anchor x="908" y="0" name="O"/>
  <anchor x="1118" y="1000" name="R"/>
  <anchor x="577" y="1100" name="U"/>
  <outline>
    <contour>
      <point x="1003" y="462" type="line"/>
      <point x="1003" y="480"/>
      <point x="1003" y="524"/>
      <point x="1003" y="542" type="curve" smooth="yes"/>
      <point x="1003" y="784"/>
      <point x="918" y="1040"/>
      <point x="584" y="1040" type="curve" smooth="yes"/>
      <point x="280" y="1040"/>
      <point x="92" y="826"/>
      <point x="92" y="495" type="curve" smooth="yes"/>
      <point x="92" y="155"/>
      <point x="323" y="-25"/>
      <point x="584" y="-25" type="curve" smooth="yes"/>
      <point x="740" y="-25"/>
      <point x="865" y="2"/>
      <point x="1008" y="75" type="curve"/>
      <point x="988" y="281" type="line"/>
      <point x="864" y="207"/>
      <point x="740" y="180"/>
      <point x="609" y="180" type="curve" smooth="yes"/>
      <point x="437" y="180"/>
      <point x="335" y="281"/>
      <point x="335" y="505" type="curve" smooth="yes"/>
      <point x="335" y="749"/>
      <point x="416" y="850"/>
      <point x="570" y="850" type="curve" smooth="yes"/>
      <point x="697" y="850"/>
      <point x="773" y="779"/>
      <point x="773" y="628" type="curve"/>
      <point x="243" y="628" type="line"/>
      <point x="243" y="462" type="line"/>
    </contour>
  </outline>
</glyph>
<glyph name="f" format="2">
  <advance width="783"/>
  <unicode hex="0066"/>
  <anchor x="377" y="0" name="H"/>
  <anchor x="378" y="-100" name="L"/>
  <anchor x="472" y="1635" name="U"/>
  <outline>
    <contour>
      <point x="233" y="1170" type="curve" smooth="yes"/>
      <point x="233" y="890"/>
      <point x="233" y="416"/>
      <point x="233" y="0" type="curve"/>
      <point x="512" y="0" type="line"/>
      <point x="490" y="105"/>
      <point x="482" y="300"/>
      <point x="482" y="494" type="curve" smooth="yes"/>
      <point x="482" y="673"/>
      <point x="482" y="992"/>
      <point x="482" y="1176" type="curve" smooth="yes"/>
      <point x="482" y="1342"/>
      <point x="528" y="1408"/>
      <point x="627" y="1408" type="curve" smooth="yes"/>
      <point x="679" y="1408"/>
      <point x="747" y="1384"/>
      <point x="792" y="1345" type="curve"/>
      <point x="845" y="1550" type="line"/>
      <point x="785" y="1590"/>
      <point x="687" y="1620"/>
      <point x="612" y="1620" type="curve" smooth="yes"/>
      <point x="375" y="1620"/>
      <point x="233" y="1467"/>
    </contour>
    <contour>
      <point x="33" y="820" type="line"/>
      <point x="742" y="820" type="line"/>
      <point x="742" y="1002" type="line"/>
      <point x="33" y="1002" type="line"/>
    </contour>
  </outline>
</glyph>
<glyph name="g" format="2">
  <advance width="1165"/>
  <unicode hex="0067"/>
  <anchor x="572" y="-454" name="H"/>
  <anchor x="572" y="-535" name="L"/>
  <anchor x="1156" y="1000" name="R"/>
  <anchor x="548" y="1100" name="U"/>
  <outline>
    <contour>
      <point x="345" y="395" type="line"/>
      <point x="249" y="357"/>
      <point x="195" y="275"/>
      <point x="195" y="215" type="curve" smooth="yes"/>
      <point x="195" y="116"/>
      <point x="274" y="15"/>
      <point x="546" y="-17" type="curve" smooth="yes"/>
      <point x="800" y="-47"/>
      <point x="873" y="-96"/>
      <point x="873" y="-170" type="curve" smooth="yes"/>
      <point x="873" y="-238"/>
      <point x="742" y="-321"/>
      <point x="585" y="-321" type="curve" smooth="yes"/>
      <point x="386" y="-321"/>
      <point x="292" y="-244"/>
      <point x="292" y="-180" type="curve" smooth="yes"/>
      <point x="292" y="-121"/>
      <point x="319" y="-56"/>
      <point x="530" y="20" type="curve"/>
      <point x="524" y="41"/>
      <point x="402" y="64"/>
      <point x="311" y="75" type="curve"/>
      <point x="130" y="2"/>
      <point x="43" y="-89"/>
      <point x="43" y="-200" type="curve" smooth="yes"/>
      <point x="43" y="-409"/>
      <point x="328" y="-505"/>
      <point x="570" y="-505" type="curve" smooth="yes"/>
      <point x="821" y="-505"/>
      <point x="1122" y="-375"/>
      <point x="1122" y="-160" type="curve" smooth="yes"/>
      <point x="1122" y="6"/>
      <point x="1022" y="117"/>
      <point x="725" y="152" type="curve" smooth="yes"/>
      <point x="468" y="182"/>
      <point x="404" y="210"/>
      <point x="404" y="248" type="curve" smooth="yes"/>
      <point x="404" y="280"/>
      <point x="443" y="320"/>
      <point x="559" y="350" type="curve"/>
    </contour>
    <contour>
      <point x="1085" y="1040" type="line"/>
      <point x="986" y="1033"/>
      <point x="854" y="997"/>
      <point x="765" y="940" type="curve"/>
      <point x="830" y="788" type="line"/>
      <point x="922" y="826"/>
      <point x="1002" y="843"/>
      <point x="1075" y="843" type="curve"/>
    </contour>
    <contour>
      <point x="120" y="673" type="curve" smooth="yes"/>
      <point x="120" y="462"/>
      <point x="307" y="312"/>
      <point x="550" y="312" type="curve" smooth="yes"/>
      <point x="794" y="312"/>
      <point x="980" y="469"/>
      <point x="980" y="680" type="curve" smooth="yes"/>
      <point x="980" y="884"/>
      <point x="794" y="1040"/>
      <point x="550" y="1040" type="curve" smooth="yes"/>
      <point x="307" y="1040"/>
      <point x="120" y="877"/>
    </contour>
    <contour>
      <point x="346" y="680" type="curve" smooth="yes"/>
      <point x="346" y="781"/>
      <point x="432" y="863"/>
      <point x="550" y="863" type="curve" smooth="yes"/>
      <point x="668" y="863"/>
      <point x="753" y="781"/>
      <point x="753" y="680" type="curve" smooth="yes"/>
      <point x="753" y="571"/>
      <point x="668" y="489"/>
      <point x="550" y="489" type="curve" smooth="yes"/>
      <point x="432" y="489"/>
      <point x="346" y="571"/>
    </contour>
  </outline>
</glyph>
<glyph name="h" format="2">
  <advance width="1215"/>
  <unicode hex="0068"/>
  <anchor x="270" y="0" name="H"/>
  <anchor x="608" y="-100" name="L"/>
  <anchor x="608" y="1635" name="U"/>
  <outline>
    <contour>
      <point x="387" y="580" type="line"/>
      <point x="425" y="694"/>
      <point x="544" y="818"/>
      <point x="668" y="818" type="curve" smooth="yes"/>
      <point x="784" y="818"/>
      <point x="838" y="763"/>
      <point x="838" y="550" type="curve" smooth="yes"/>
      <point x="838" y="450"/>
      <point x="838" y="178"/>
      <point x="838" y="0" type="curve"/>
      <point x="1087" y="0" type="line"/>
      <point x="1087" y="197"/>
      <point x="1087" y="504"/>
      <point x="1087" y="625" type="curve" smooth="yes"/>
      <point x="1087" y="900"/>
      <point x="980" y="1040"/>
      <point x="773" y="1040" type="curve" smooth="yes"/>
      <point x="631" y="1040"/>
      <point x="485" y="974"/>
      <point x="387" y="843" type="curve"/>
      <point x="387" y="876"/>
      <point x="387" y="1294"/>
      <point x="387" y="1600" type="curve"/>
      <point x="123" y="1600" type="line"/>
      <point x="138" y="1514"/>
      <point x="138" y="1345"/>
      <point x="138" y="1130" type="curve" smooth="yes"/>
      <point x="138" y="988"/>
      <point x="138" y="402"/>
      <point x="138" y="0" type="curve"/>
      <point x="387" y="0" type="line"/>
    </contour>
  </outline>
</glyph>
<glyph name="i" format="2">
  <advance width="615"/>
  <unicode hex="0069"/>
  <anchor x="317" y="0" name="H"/>
  <anchor x="308" y="-100" name="L"/>
  <anchor x="553" y="0" name="O"/>
  <anchor x="612" y="1000" name="R"/>
  <anchor x="307" y="1100" name="U"/>
  <outline>
    <contour>
      <point x="168" y="1020" type="line"/>
      <point x="181" y="915"/>
      <point x="183" y="725"/>
      <point x="183" y="530" type="curve" smooth="yes"/>
      <point x="183" y="388"/>
      <point x="183" y="144"/>
      <point x="183" y="0" type="curve"/>
      <point x="452" y="0" type="line"/>
      <point x="439" y="107"/>
      <point x="432" y="346"/>
      <point x="432" y="475" type="curve" smooth="yes"/>
      <point x="432" y="576"/>
      <point x="432" y="827"/>
      <point x="432" y="1020" type="curve"/>
    </contour>
    <contour>
      <point x="148" y="1372" type="curve" smooth="yes"/>
      <point x="148" y="1278"/>
      <point x="215" y="1210"/>
      <point x="307" y="1210" type="curve" smooth="yes"/>
      <point x="400" y="1210"/>
      <point x="467" y="1278"/>
      <point x="467" y="1372" type="curve" smooth="yes"/>
      <point x="467" y="1464"/>
      <point x="400" y="1533"/>
      <point x="307" y="1533" type="curve" smooth="yes"/>
      <point x="215" y="1533"/>
      <point x="148" y="1464"/>
    </contour>
  </outline>
</glyph>
<glyph name="j" format="2">
  <advance width="645"/>
  <unicode hex="006A"/>
  <anchor x="135" y="-500" name="L"/>
  <anchor x="341" y="1100" name="U"/>
  <outline>
    <contour>
      <point x="468" y="1020" type="line"/>
      <point x="205" y="1020" type="line"/>
      <point x="218" y="915"/>
      <point x="220" y="725"/>
      <point x="220" y="530" type="curve" smooth="yes"/>
      <point x="220" y="5" type="line" smooth="yes"/>
      <point x="220" y="-174"/>
      <point x="159" y="-255"/>
      <point x="45" y="-255" type="curve" smooth="yes"/>
      <point x="-19" y="-255"/>
      <point x="-104" y="-221"/>
      <point x="-148" y="-181" type="curve"/>
      <point x="-190" y="-394" type="line"/>
      <point x="-142" y="-429"/>
      <point x="-33" y="-470"/>
      <point x="47" y="-470" type="curve" smooth="yes"/>
      <point x="290" y="-470"/>
      <point x="468" y="-348"/>
      <point x="468" y="25" type="curve" smooth="yes"/>
    </contour>
    <contour>
      <point x="185" y="1372" type="curve" smooth="yes"/>
      <point x="185" y="1278"/>
      <point x="251" y="1210"/>
      <point x="343" y="1210" type="curve" smooth="yes"/>
      <point x="436" y="1210"/>
      <point x="503" y="1278"/>
      <point x="503" y="1372" type="curve" smooth="yes"/>
      <point x="503" y="1464"/>
      <point x="436" y="1533"/>
      <point x="343" y="1533" type="curve" smooth="yes"/>
      <point x="251" y="1533"/>
      <point x="185" y="1464"/>
    </contour>
  </outline>
</glyph>
<glyph name="k" format="2">
  <advance width="1104"/>
  <unicode hex="006B"/>
  <anchor x="265" y="0" name="H"/>
  <anchor x="581" y="-100" name="L"/>
  <anchor x="1105" y="1000" name="R"/>
  <anchor x="587" y="1635" name="U"/>
  <outline>
    <contour>
      <point x="387" y="0" type="line"/>
      <point x="387" y="1600" type="line"/>
      <point x="123" y="1600" type="line"/>
      <point x="138" y="1514"/>
      <point x="138" y="1345"/>
      <point x="138" y="1130" type="curve" smooth="yes"/>
      <point x="138" y="987"/>
      <point x="138" y="402"/>
      <point x="138" y="0" type="curve"/>
    </contour>
    <contour>
      <point x="727" y="1020" type="line"/>
      <point x="329" y="563" type="line"/>
      <point x="527" y="527" type="line"/>
      <point x="1060" y="1020" type="line"/>
    </contour>
    <contour>
      <point x="335" y="563" type="line"/>
      <point x="764" y="0" type="line"/>
      <point x="1090" y="0" type="line"/>
      <point x="497" y="663" type="line"/>
    </contour>
  </outline>
</glyph>
<glyph name="l" format="2">
  <advance width="615"/>
  <unicode hex="006C"/>
  <anchor x="320" y="0" name="H"/>
  <anchor x="320" y="-100" name="L"/>
  <anchor x="623" y="1000" name="R"/>
  <anchor x="308" y="1635" name="U"/>
  <outline>
    <contour>
      <point x="432" y="1600" type="line"/>
      <point x="163" y="1600" type="line"/>
      <point x="176" y="1485"/>
      <point x="183" y="1324"/>
      <point x="183" y="1130" type="curve" smooth="yes"/>
      <point x="183" y="0" type="line"/>
      <point x="452" y="0" type="line"/>
      <point x="439" y="109"/>
      <point x="432" y="346"/>
      <point x="432" y="475" type="curve" smooth="yes"/>
    </contour>
  </outline>
</glyph>
<glyph name="m" format="2">
  <advance width="1735"/>
  <unicode hex="006D"/>
  <anchor x="1469" y="0" name="H"/>
  <anchor x="882" y="-100" name="L"/>
  <anchor x="1090" y="0" name="O"/>
  <anchor x="882" y="1100" name="U"/>
  <outline>
    <contour>
      <point x="1002" y="660" type="line"/>
      <point x="1050" y="756"/>
      <point x="1132" y="818"/>
      <point x="1213" y="818" type="curve" smooth="yes"/>
      <point x="1311" y="818"/>
      <point x="1338" y="770"/>
      <point x="1338" y="550" type="curve" smooth="yes"/>
      <point x="1338" y="0" type="line"/>
      <point x="1587" y="0" type="line"/>
      <point x="1587" y="660" type="line" smooth="yes"/>
      <point x="1587" y="907"/>
      <point x="1520" y="1040"/>
      <point x="1317" y="1040" type="curve" smooth="yes"/>
      <point x="1212" y="1040"/>
      <point x="1103" y="1007"/>
      <point x="978" y="872" type="curve"/>
      <point x="945" y="960"/>
      <point x="863" y="1040"/>
      <point x="732" y="1040" type="curve" smooth="yes"/>
      <point x="616" y="1040"/>
      <point x="516" y="1007"/>
      <point x="394" y="872" type="curve"/>
      <point x="385" y="918"/>
      <point x="371" y="980"/>
      <point x="352" y="1020" type="curve"/>
      <point x="118" y="1020" type="line"/>
      <point x="139" y="951"/>
      <point x="168" y="811"/>
      <point x="168" y="615" type="curve" smooth="yes"/>
      <point x="168" y="0" type="line"/>
      <point x="417" y="0" type="line"/>
      <point x="417" y="647" type="line"/>
      <point x="460" y="747"/>
      <point x="546" y="818"/>
      <point x="628" y="818" type="curve" smooth="yes"/>
      <point x="724" y="818"/>
      <point x="753" y="779"/>
      <point x="753" y="570" type="curve" smooth="yes"/>
      <point x="753" y="0" type="line"/>
      <point x="1002" y="0" type="line"/>
    </contour>
  </outline>
</glyph>
<glyph name="n" format="2">
  <advance width="1225"/>
  <unicode hex="006E"/>
  <anchor x="737" y="0" name="H"/>
  <anchor x="613" y="-100" name="L"/>
  <anchor x="613" y="1100" name="U"/>
  <outline>
    <contour>
      <point x="1097" y="0" type="line"/>
      <point x="1097" y="197"/>
      <point x="1097" y="504"/>
      <point x="1097" y="625" type="curve" smooth="yes"/>
      <point x="1097" y="900"/>
      <point x="976" y="1040"/>
      <point x="770" y="1040" type="curve" smooth="yes"/>
      <point x="629" y="1040"/>
      <point x="509" y="979"/>
      <point x="382" y="832" type="curve"/>
      <point x="375" y="878"/>
      <point x="357" y="979"/>
      <point x="342" y="1020" type="curve"/>
      <point x="98" y="1020" type="line"/>
      <point x="120" y="951"/>
      <point x="148" y="811"/>
      <point x="148" y="615" type="curve" smooth="yes"/>
      <point x="148" y="473"/>
      <point x="148" y="181"/>
      <point x="148" y="0" type="curve"/>
      <point x="397" y="0" type="line"/>
      <point x="397" y="580" type="line"/>
      <point x="435" y="694"/>
      <point x="554" y="818"/>
      <point x="678" y="818" type="curve" smooth="yes"/>
      <point x="795" y="818"/>
      <point x="848" y="756"/>
      <point x="848" y="550" type="curve" smooth="yes"/>
      <point x="848" y="450"/>
      <point x="848" y="178"/>
      <point x="848" y="0" type="curve"/>
    </contour>
  </outline>
</glyph>
<glyph name="o" format="2">
  <advance width="1153"/>
  <unicode hex="006F"/>
  <anchor x="575" y="0" name="H"/>
  <anchor x="577" y="-100" name="L"/>
  <anchor x="805" y="0" name="O"/>
  <anchor x="1153" y="1000" name="R"/>
  <anchor x="577" y="1100" name="U"/>
  <outline>
    <contour>
      <point x="92" y="506" type="curve" smooth="yes"/>
      <point x="92" y="162"/>
      <point x="287" y="-25"/>
      <point x="567" y="-25" type="curve" smooth="yes"/>
      <point x="834" y="-25"/>
      <point x="1062" y="162"/>
      <point x="1062" y="506" type="curve" smooth="yes"/>
      <point x="1062" y="850"/>
      <point x="867" y="1040"/>
      <point x="587" y="1040" type="curve" smooth="yes"/>
      <point x="319" y="1040"/>
      <point x="92" y="850"/>
    </contour>
    <contour>
      <point x="340" y="506" type="curve" smooth="yes"/>
      <point x="340" y="712"/>
      <point x="437" y="837"/>
      <point x="577" y="837" type="curve" smooth="yes"/>
      <point x="725" y="837"/>
      <point x="813" y="712"/>
      <point x="813" y="506" type="curve" smooth="yes"/>
      <point x="813" y="301"/>
      <point x="716" y="178"/>
      <point x="577" y="178" type="curve" smooth="yes"/>
      <point x="428" y="178"/>
      <point x="340" y="301"/>
    </contour>
  </outline>
</glyph>
<glyph name="p" format="2">
  <advance width="1213"/>
  <unicode hex="0070"/>
  <anchor x="282" y="-435" name="H"/>
  <anchor x="713" y="-100" name="L"/>
  <anchor x="1213" y="1000" name="R"/>
  <anchor x="623" y="1100" name="U"/>
  <outline>
    <contour>
      <point x="98" y="1020" type="line"/>
      <point x="143" y="907"/>
      <point x="148" y="734"/>
      <point x="148" y="485" type="curve" smooth="yes"/>
      <point x="148" y="221"/>
      <point x="148" y="-161"/>
      <point x="148" y="-490" type="curve"/>
      <point x="422" y="-490" type="line"/>
      <point x="405" y="-405"/>
      <point x="397" y="-310"/>
      <point x="397" y="-150" type="curve"/>
      <point x="397" y="72" type="line"/>
      <point x="490" y="13"/>
      <point x="567" y="-25"/>
      <point x="673" y="-25" type="curve" smooth="yes"/>
      <point x="920" y="-25"/>
      <point x="1122" y="193"/>
      <point x="1122" y="535" type="curve" smooth="yes"/>
      <point x="1122" y="828"/>
      <point x="972" y="1040"/>
      <point x="747" y="1040" type="curve" smooth="yes"/>
      <point x="601" y="1040"/>
      <point x="474" y="959"/>
      <point x="382" y="843" type="curve"/>
      <point x="373" y="929"/>
      <point x="357" y="989"/>
      <point x="342" y="1020" type="curve"/>
    </contour>
    <contour>
      <point x="397" y="582" type="line"/>
      <point x="459" y="740"/>
      <point x="570" y="825"/>
      <point x="668" y="825" type="curve" smooth="yes"/>
      <point x="797" y="825"/>
      <point x="873" y="700"/>
      <point x="873" y="505" type="curve" smooth="yes"/>
      <point x="873" y="306"/>
      <point x="757" y="184"/>
      <point x="629" y="184" type="curve" smooth="yes"/>
      <point x="552" y="184"/>
      <point x="510" y="205"/>
      <point x="397" y="287" type="curve"/>
    </contour>
  </outline>
</glyph>
<glyph name="q" format="2">
  <advance width="1183"/>
  <unicode hex="0071"/>
  <anchor x="450" y="-100" name="L"/>
  <anchor x="1183" y="1000" name="R"/>
  <anchor x="585" y="1100" name="U"/>
  <outline>
    <contour>
      <point x="792" y="-490" type="line"/>
      <point x="1065" y="-490" type="line"/>
      <point x="1048" y="-405"/>
      <point x="1040" y="-310"/>
      <point x="1040" y="-150" type="curve" smooth="yes"/>
      <point x="1040" y="-59"/>
      <point x="1040" y="539"/>
      <point x="1040" y="965" type="curve"/>
      <point x="913" y="1001"/>
      <point x="764" y="1040"/>
      <point x="622" y="1040" type="curve" smooth="yes"/>
      <point x="257" y="1040"/>
      <point x="102" y="742"/>
      <point x="102" y="435" type="curve" smooth="yes"/>
      <point x="102" y="117"/>
      <point x="318" y="-25"/>
      <point x="502" y="-25" type="curve" smooth="yes"/>
      <point x="595" y="-25"/>
      <point x="688" y="16"/>
      <point x="792" y="127" type="curve"/>
    </contour>
    <contour>
      <point x="792" y="367" type="line"/>
      <point x="722" y="245"/>
      <point x="637" y="184"/>
      <point x="560" y="184" type="curve" smooth="yes"/>
      <point x="454" y="184"/>
      <point x="350" y="270"/>
      <point x="350" y="485" type="curve" smooth="yes"/>
      <point x="350" y="652"/>
      <point x="429" y="825"/>
      <point x="635" y="825" type="curve" smooth="yes"/>
      <point x="683" y="825"/>
      <point x="744" y="810"/>
      <point x="792" y="790" type="curve"/>
    </contour>
  </outline>
</glyph>
<glyph name="r" format="2">
  <advance width="960"/>
  <unicode hex="0072"/>
  <anchor x="280" y="0" name="H"/>
  <anchor x="268" y="-100" name="L"/>
  <anchor x="518" y="1100" name="U"/>
  <outline>
    <contour>
      <point x="397" y="0" type="line"/>
      <point x="397" y="547" type="line"/>
      <point x="435" y="675"/>
      <point x="554" y="807"/>
      <point x="626" y="807" type="curve" smooth="yes"/>
      <point x="709" y="807"/>
      <point x="743" y="737"/>
      <point x="748" y="643" type="curve"/>
      <point x="950" y="678" type="line"/>
      <point x="950" y="872"/>
      <point x="881" y="1040"/>
      <point x="700" y="1040" type="curve" smooth="yes"/>
      <point x="609" y="1040"/>
      <point x="479" y="964"/>
      <point x="382" y="825" type="curve"/>
      <point x="375" y="873"/>
      <point x="357" y="978"/>
      <point x="342" y="1020" type="curve"/>
      <point x="98" y="1020" type="line"/>
      <point x="120" y="951"/>
      <point x="148" y="811"/>
      <point x="148" y="615" type="curve" smooth="yes"/>
      <point x="148" y="0" type="line"/>
    </contour>
  </outline>
</glyph>
<glyph name="s" format="2">
  <advance width="1012"/>
  <unicode hex="0073"/>
  <anchor x="508" y="0" name="H"/>
  <anchor x="508" y="-100" name="L"/>
  <anchor x="518" y="1100" name="U"/>
  <outline>
    <contour>
      <point x="882" y="960" type="line"/>
      <point x="807" y="998"/>
      <point x="692" y="1040"/>
      <point x="535" y="1040" type="curve" smooth="yes"/>
      <point x="205" y="1040"/>
      <point x="117" y="823"/>
      <point x="117" y="727" type="curve" smooth="yes"/>
      <point x="117" y="601"/>
      <point x="175" y="500"/>
      <point x="445" y="440" type="curve" smooth="yes"/>
      <point x="647" y="394"/>
      <point x="693" y="347"/>
      <point x="693" y="283" type="curve" smooth="yes"/>
      <point x="693" y="229"/>
      <point x="622" y="178"/>
      <point x="520" y="178" type="curve" smooth="yes"/>
      <point x="407" y="178"/>
      <point x="253" y="232"/>
      <point x="157" y="313" type="curve"/>
      <point x="103" y="90" type="line"/>
      <point x="188" y="28"/>
      <point x="342" y="-25"/>
      <point x="515" y="-25" type="curve" smooth="yes"/>
      <point x="749" y="-25"/>
      <point x="933" y="120"/>
      <point x="933" y="308" type="curve" smooth="yes"/>
      <point x="933" y="496"/>
      <point x="769" y="576"/>
      <point x="570" y="617" type="curve" smooth="yes"/>
      <point x="383" y="656"/>
      <point x="357" y="681"/>
      <point x="357" y="737" type="curve" smooth="yes"/>
      <point x="357" y="783"/>
      <point x="398" y="840"/>
      <point x="525" y="840" type="curve" smooth="yes"/>
      <point x="659" y="840"/>
      <point x="772" y="784"/>
      <point x="844" y="745" type="curve"/>
    </contour>
  </outline>
</glyph>
<glyph name="t" format="2">
  <advance width="868"/>
  <unicode hex="0074"/>
  <anchor x="512" y="0" name="H"/>
  <anchor x="512" y="-100" name="L"/>
  <anchor x="868" y="1000" name="R"/>
  <anchor x="348" y="1360" name="U"/>
  <outline>
    <contour>
      <point x="800" y="259" type="line"/>
      <point x="718" y="210"/>
      <point x="652" y="184"/>
      <point x="599" y="184" type="curve" smooth="yes"/>
      <point x="509" y="184"/>
      <point x="472" y="218"/>
      <point x="472" y="438" type="curve" smooth="yes"/>
      <point x="472" y="662"/>
      <point x="472" y="1016"/>
      <point x="472" y="1320" type="curve"/>
      <point x="223" y="1320" type="line"/>
      <point x="223" y="960"/>
      <point x="223" y="543"/>
      <point x="223" y="270" type="curve" smooth="yes"/>
      <point x="223" y="39"/>
      <point x="368" y="-25"/>
      <point x="546" y="-25" type="curve" smooth="yes"/>
      <point x="617" y="-25"/>
      <point x="706" y="-3"/>
      <point x="800" y="56" type="curve"/>
    </contour>
    <contour>
      <point x="783" y="820" type="line"/>
      <point x="783" y="1002" type="line"/>
      <point x="30" y="1002" type="line"/>
      <point x="30" y="820" type="line"/>
    </contour>
  </outline>
</glyph>
<glyph name="u" format="2">
  <advance width="1225"/>
  <unicode hex="0075"/>
  <anchor x="540" y="0" name="H"/>
  <anchor x="606" y="-100" name="L"/>
  <anchor x="857" y="0" name="O"/>
  <anchor x="1234" y="1000" name="R"/>
  <anchor x="606" y="1100" name="U"/>
  <outline>
    <contour>
      <point x="1137" y="0" type="line"/>
      <point x="1095" y="112"/>
      <point x="1072" y="256"/>
      <point x="1072" y="450" type="curve"/>
      <point x="1072" y="1020" type="line"/>
      <point x="803" y="1020" type="line"/>
      <point x="821" y="898"/>
      <point x="823" y="832"/>
      <point x="823" y="700" type="curve" smooth="yes"/>
      <point x="823" y="419" type="line"/>
      <point x="778" y="317"/>
      <point x="643" y="184"/>
      <point x="543" y="184" type="curve" smooth="yes"/>
      <point x="433" y="184"/>
      <point x="397" y="269"/>
      <point x="397" y="465" type="curve"/>
      <point x="397" y="1020" type="line"/>
      <point x="128" y="1020" type="line"/>
      <point x="146" y="900"/>
      <point x="148" y="827"/>
      <point x="148" y="700" type="curve" smooth="yes"/>
      <point x="148" y="681"/>
      <point x="148" y="424"/>
      <point x="148" y="405" type="curve" smooth="yes"/>
      <point x="148" y="120"/>
      <point x="254" y="-25"/>
      <point x="464" y="-25" type="curve" smooth="yes"/>
      <point x="602" y="-25"/>
      <point x="729" y="50"/>
      <point x="848" y="190" type="curve"/>
      <point x="858" y="119"/>
      <point x="884" y="44"/>
      <point x="903" y="0" type="curve"/>
    </contour>
  </outline>
</glyph>
<glyph name="v" format="2">
  <advance width="1093"/>
  <unicode hex="0076"/>
  <anchor x="560" y="0" name="H"/>
  <anchor x="555" y="-100" name="L"/>
  <anchor x="742" y="0" name="O"/>
  <anchor x="555" y="1100" name="U"/>
  <outline>
    <contour>
      <point x="804" y="1020" type="line"/>
      <point x="549" y="260" type="line"/>
      <point x="291" y="1020" type="line"/>
      <point x="13" y="1020" type="line"/>
      <point x="68" y="905"/>
      <point x="136" y="746"/>
      <point x="168" y="665" type="curve" smooth="yes"/>
      <point x="225" y="524"/>
      <point x="346" y="221"/>
      <point x="433" y="0" type="curve"/>
      <point x="660" y="0" type="line"/>
      <point x="749" y="225"/>
      <point x="877" y="548"/>
      <point x="924" y="665" type="curve" smooth="yes"/>
      <point x="956" y="744"/>
      <point x="1022" y="905"/>
      <point x="1079" y="1020" type="curve"/>
    </contour>
  </outline>
</glyph>
<glyph name="w" format="2">
  <advance width="1563"/>
  <unicode hex="0077"/>
  <anchor x="782" y="-100" name="L"/>
  <anchor x="782" y="1100" name="U"/>
  <outline>
    <contour>
      <point x="677" y="1020" type="line"/>
      <point x="467" y="262" type="line"/>
      <point x="292" y="1020" type="line"/>
      <point x="38" y="1020" type="line"/>
      <point x="85" y="867"/>
      <point x="113" y="771"/>
      <point x="143" y="665" type="curve" smooth="yes"/>
      <point x="328" y="0" type="line"/>
      <point x="585" y="0" type="line"/>
      <point x="782" y="725" type="line"/>
      <point x="978" y="0" type="line"/>
      <point x="1235" y="0" type="line"/>
      <point x="1420" y="665" type="line" smooth="yes"/>
      <point x="1454" y="785"/>
      <point x="1478" y="868"/>
      <point x="1525" y="1020" type="curve"/>
      <point x="1271" y="1020" type="line"/>
      <point x="1097" y="262" type="line"/>
      <point x="887" y="1020" type="line"/>
    </contour>
  </outline>
</glyph>
<glyph name="x" format="2">
  <advance width="1152"/>
  <unicode hex="0078"/>
  <anchor x="940" y="0" name="H"/>
  <anchor x="574" y="-100" name="L"/>
  <anchor x="591" y="1100" name="U"/>
  <outline>
    <contour>
      <point x="812" y="0" type="line"/>
      <point x="1108" y="0" type="line"/>
      <point x="1001" y="133"/>
      <point x="960" y="183"/>
      <point x="897" y="270" type="curve" smooth="yes"/>
      <point x="350" y="1020" type="line"/>
      <point x="53" y="1020" type="line"/>
      <point x="161" y="887"/>
      <point x="196" y="842"/>
      <point x="263" y="750" type="curve"/>
    </contour>
    <contour>
      <point x="496" y="616" type="line"/>
      <point x="247" y="270" type="line" smooth="yes"/>
      <point x="193" y="195"/>
      <point x="154" y="143"/>
      <point x="43" y="0" type="curve"/>
      <point x="322" y="0" type="line"/>
      <point x="575" y="374" type="line"/>
    </contour>
    <contour>
      <point x="645" y="405" type="line"/>
      <point x="890" y="750" type="line" smooth="yes"/>
      <point x="948" y="831"/>
      <point x="991" y="887"/>
      <point x="1093" y="1020" type="curve"/>
      <point x="815" y="1020" type="line"/>
      <point x="570" y="650" type="line"/>
    </contour>
  </outline>
</glyph>
<glyph name="y" format="2">
  <advance width="1087"/>
  <unicode hex="0079"/>
  <anchor x="828" y="-100" name="L"/>
  <anchor x="1143" y="1000" name="R"/>
  <anchor x="555" y="1100" name="U"/>
  <outline>
    <contour>
      <point x="604" y="160" type="line"/>
      <point x="299" y="1020" type="line"/>
      <point x="23" y="1020" type="line"/>
      <point x="100" y="864"/>
      <point x="147" y="757"/>
      <point x="183" y="665" type="curve" smooth="yes"/>
      <point x="488" y="-110" type="line"/>
    </contour>
    <contour>
      <point x="928" y="665" type="line" smooth="yes"/>
      <point x="961" y="758"/>
      <point x="1004" y="865"/>
      <point x="1073" y="1020" type="curve"/>
      <point x="798" y="1020" type="line"/>
      <point x="740" y="830"/>
      <point x="647" y="520"/>
      <point x="565" y="258" type="curve" smooth="yes"/>
      <point x="539" y="176"/>
      <point x="486" y="65"/>
      <point x="463" y="7" type="curve" smooth="yes"/>
      <point x="376" y="-219"/>
      <point x="309" y="-261"/>
      <point x="238" y="-261" type="curve" smooth="yes"/>
      <point x="172" y="-261"/>
      <point x="95" y="-221"/>
      <point x="53" y="-186" type="curve"/>
      <point x="-13" y="-385" type="line"/>
      <point x="60" y="-439"/>
      <point x="147" y="-470"/>
      <point x="238" y="-470" type="curve" smooth="yes"/>
      <point x="416" y="-470"/>
      <point x="549" y="-386"/>
      <point x="688" y="0" type="curve" smooth="yes"/>
    </contour>
  </outline>
</glyph>
<glyph name="z" format="2">
  <advance width="1053"/>
  <unicode hex="007A"/>
  <anchor x="535" y="0" name="H"/>
  <anchor x="535" y="-100" name="L"/>
  <anchor x="535" y="1100" name="U"/>
  <outline>
    <contour>
      <point x="128" y="1020" type="line"/>
      <point x="128" y="812" type="line"/>
      <point x="165" y="827"/>
      <point x="224" y="827"/>
      <point x="283" y="827" type="curve" smooth="yes"/>
      <point x="637" y="827" type="line"/>
      <point x="98" y="143" type="line"/>
      <point x="98" y="0" type="line"/>
      <point x="965" y="0" type="line"/>
      <point x="965" y="208" type="line"/>
      <point x="896" y="193"/>
      <point x="825" y="193"/>
      <point x="758" y="193" type="curve" smooth="yes"/>
      <point x="398" y="193" type="line"/>
      <point x="950" y="892" type="line"/>
      <point x="950" y="1020" type="line"/>
    </contour>
  </outline>
</glyph>
<glyph name="braceleft" format="2">
  <advance width="1027"/>
  <unicode hex="007B"/>
  <outline>
    <contour>
      <point x="877" y="-209" type="line"/>
      <point x="810" y="-189"/>
      <point x="686" y="-147"/>
      <point x="667" y="-123" type="curve" smooth="yes"/>
      <point x="632" y="-81"/>
      <point x="645" y="423"/>
      <point x="627" y="458" type="curve" smooth="yes"/>
      <point x="604" y="501"/>
      <point x="469" y="584"/>
      <point x="465" y="615" type="curve"/>
      <point x="469" y="646"/>
      <point x="604" y="730"/>
      <point x="625" y="772" type="curve" smooth="yes"/>
      <point x="644" y="808"/>
      <point x="632" y="1310"/>
      <point x="667" y="1353" type="curve" smooth="yes"/>
      <point x="685" y="1377"/>
      <point x="796" y="1419"/>
      <point x="860" y="1439" type="curve"/>
      <point x="813" y="1640" type="line"/>
      <point x="693" y="1613"/>
      <point x="513" y="1561"/>
      <point x="468" y="1515" type="curve" smooth="yes"/>
      <point x="395" y="1440"/>
      <point x="406" y="839"/>
      <point x="383" y="807" type="curve" smooth="yes"/>
      <point x="354" y="766"/>
      <point x="183" y="662"/>
      <point x="183" y="615" type="curve" smooth="yes"/>
      <point x="183" y="568"/>
      <point x="354" y="464"/>
      <point x="383" y="423" type="curve" smooth="yes"/>
      <point x="406" y="391"/>
      <point x="395" y="-210"/>
      <point x="468" y="-285" type="curve" smooth="yes"/>
      <point x="515" y="-332"/>
      <point x="705" y="-383"/>
      <point x="830" y="-410" type="curve"/>
    </contour>
  </outline>
</glyph>
<glyph name="bar" format="2">
  <advance width="690"/>
  <unicode hex="007C"/>
  <outline>
    <contour>
      <point x="250" y="1600" type="line"/>
      <point x="250" y="-390" type="line"/>
      <point x="440" y="-390" type="line"/>
      <point x="440" y="1600" type="line"/>
    </contour>
  </outline>
</glyph>
<glyph name="braceright" format="2">
  <advance width="1027"/>
  <unicode hex="007D"/>
  <outline>
    <contour>
      <point x="187" y="-410" type="line"/>
      <point x="312" y="-383"/>
      <point x="502" y="-332"/>
      <point x="548" y="-285" type="curve" smooth="yes"/>
      <point x="622" y="-210"/>
      <point x="611" y="391"/>
      <point x="633" y="423" type="curve" smooth="yes"/>
      <point x="662" y="464"/>
      <point x="833" y="568"/>
      <point x="833" y="615" type="curve" smooth="yes"/>
      <point x="833" y="662"/>
      <point x="662" y="766"/>
      <point x="633" y="807" type="curve" smooth="yes"/>
      <point x="611" y="839"/>
      <point x="621" y="1440"/>
      <point x="548" y="1515" type="curve" smooth="yes"/>
      <point x="504" y="1561"/>
      <point x="323" y="1613"/>
      <point x="203" y="1640" type="curve"/>
      <point x="157" y="1439" type="line"/>
      <point x="221" y="1419"/>
      <point x="332" y="1377"/>
      <point x="350" y="1353" type="curve" smooth="yes"/>
      <point x="384" y="1310"/>
      <point x="373" y="808"/>
      <point x="391" y="772" type="curve" smooth="yes"/>
      <point x="413" y="730"/>
      <point x="547" y="646"/>
      <point x="551" y="615" type="curve"/>
      <point x="547" y="584"/>
      <point x="412" y="501"/>
      <point x="390" y="458" type="curve" smooth="yes"/>
      <point x="371" y="423"/>
      <point x="384" y="-81"/>
      <point x="350" y="-123" type="curve" smooth="yes"/>
      <point x="331" y="-147"/>
      <point x="207" y="-189"/>
      <point x="140" y="-209" type="curve"/>
    </contour>
  </outline>
</glyph>
<glyph name="asciitilde" format="2">
  <advance width="1115"/>
  <unicode hex="007E"/>
  <outline>
    <contour>
      <point x="152" y="355" type="line"/>
      <point x="157" y="404"/>
      <point x="189" y="445"/>
      <point x="267" y="445" type="curve" smooth="yes"/>
      <point x="428" y="445"/>
      <point x="615" y="340"/>
      <point x="832" y="340" type="curve" smooth="yes"/>
      <point x="991" y="340"/>
      <point x="1080" y="502"/>
      <point x="1080" y="630" type="curve"/>
      <point x="948" y="630" type="line"/>
      <point x="941" y="584"/>
      <point x="911" y="530"/>
      <point x="828" y="530" type="curve" smooth="yes"/>
      <point x="606" y="530"/>
      <point x="461" y="635"/>
      <point x="253" y="635" type="curve" smooth="yes"/>
      <point x="101" y="635"/>
      <point x="20" y="477"/>
      <point x="20" y="355" type="curve"/>
    </contour>
  </outline>
</glyph>
<glyph name="exclamdown" format="2">
  <advance width="775"/>
  <unicode hex="00A1"/>
  <outline>
    <contour>
      <point x="256" y="610" type="line"/>
      <point x="249" y="320"/>
      <point x="252" y="14"/>
      <point x="214" y="-420" type="curve"/>
      <point x="523" y="-420" type="line"/>
      <point x="484" y="14"/>
      <point x="487" y="320"/>
      <point x="481" y="610" type="curve"/>
    </contour>
    <contour>
      <point x="209" y="949" type="curve" smooth="yes"/>
      <point x="209" y="857"/>
      <point x="278" y="788"/>
      <point x="370" y="788" type="curve" smooth="yes"/>
      <point x="463" y="788"/>
      <point x="532" y="857"/>
      <point x="532" y="949" type="curve" smooth="yes"/>
      <point x="532" y="1043"/>
      <point x="463" y="1111"/>
      <point x="370" y="1111" type="curve" smooth="yes"/>
      <point x="278" y="1111"/>
      <point x="209" y="1043"/>
    </contour>
  </outline>
</glyph>
<glyph name="cent" format="2">
  <advance width="1127"/>
  <unicode hex="00A2"/>
  <outline>
    <contour>
      <point x="955" y="990" type="line"/>
      <point x="886" y="1030"/>
      <point x="789" y="1062"/>
      <point x="664" y="1062" type="curve" smooth="yes"/>
      <point x="362" y="1062"/>
      <point x="168" y="833"/>
      <point x="168" y="539" type="curve" smooth="yes"/>
      <point x="168" y="230"/>
      <point x="376" y="50"/>
      <point x="631" y="50" type="curve" smooth="yes"/>
      <point x="773" y="50"/>
      <point x="869" y="82"/>
      <point x="965" y="145" type="curve"/>
      <point x="940" y="355" type="line"/>
      <point x="857" y="287"/>
      <point x="776" y="248"/>
      <point x="662" y="248" type="curve" smooth="yes"/>
      <point x="506" y="248"/>
      <point x="406" y="370"/>
      <point x="406" y="549" type="curve" smooth="yes"/>
      <point x="406" y="746"/>
      <point x="518" y="864"/>
      <point x="662" y="864" type="curve" smooth="yes"/>
      <point x="760" y="864"/>
      <point x="830" y="834"/>
      <point x="916" y="773" type="curve"/>
    </contour>
    <contour>
      <point x="577" y="1320" type="line"/>
      <point x="577" y="-210" type="line"/>
      <point x="747" y="-210" type="line"/>
      <point x="747" y="1320" type="line"/>
    </contour>
  </outline>
</glyph>
<glyph name="sterling" format="2">
  <advance width="1227"/>
  <unicode hex="00A3"/>
  <outline>
    <contour>
      <point x="1054" y="0" type="line"/>
      <point x="1054" y="223" type="line"/>
      <point x="979" y="209"/>
      <point x="829" y="208"/>
      <point x="643" y="208" type="curve" smooth="yes"/>
      <point x="445" y="208" type="line"/>
      <point x="522" y="296"/>
      <point x="546" y="401"/>
      <point x="546" y="538" type="curve" smooth="yes"/>
      <point x="546" y="694"/>
      <point x="508" y="899"/>
      <point x="508" y="1062" type="curve" smooth="yes"/>
      <point x="508" y="1218"/>
      <point x="583" y="1278"/>
      <point x="692" y="1278" type="curve" smooth="yes"/>
      <point x="754" y="1278"/>
      <point x="854" y="1255"/>
      <point x="908" y="1218" type="curve"/>
      <point x="954" y="1415" type="line"/>
      <point x="888" y="1459"/>
      <point x="774" y="1485"/>
      <point x="692" y="1485" type="curve" smooth="yes"/>
      <point x="426" y="1485"/>
      <point x="257" y="1333"/>
      <point x="257" y="1028" type="curve" smooth="yes"/>
      <point x="257" y="854"/>
      <point x="297" y="657"/>
      <point x="297" y="465" type="curve" smooth="yes"/>
      <point x="297" y="340"/>
      <point x="228" y="235"/>
      <point x="148" y="170" type="curve"/>
      <point x="148" y="0" type="line"/>
    </contour>
    <contour>
      <point x="152" y="677" type="line"/>
      <point x="824" y="677" type="line"/>
      <point x="824" y="858" type="line"/>
      <point x="152" y="858" type="line"/>
    </contour>
  </outline>
</glyph>
<glyph name="currency" format="2">
  <advance width="1227"/>
  <unicode hex="00A4"/>
  <outline>
    <contour>
      <point x="1188" y="417" type="line"/>
      <point x="978" y="628" type="line"/>
      <point x="1033" y="702"/>
      <point x="1057" y="781"/>
      <point x="1057" y="877" type="curve" smooth="yes"/>
      <point x="1057" y="973"/>
      <point x="1027" y="1059"/>
      <point x="976" y="1132" type="curve"/>
      <point x="1188" y="1345" type="line"/>
      <point x="1078" y="1456" type="line"/>
      <point x="861" y="1239" type="line"/>
      <point x="791" y="1293"/>
      <point x="711" y="1321"/>
      <point x="617" y="1321" type="curve" smooth="yes"/>
      <point x="521" y="1321"/>
      <point x="438" y="1295"/>
      <point x="365" y="1241" type="curve"/>
      <point x="150" y="1456" type="line"/>
      <point x="38" y="1345" type="line"/>
      <point x="253" y="1130" type="line"/>
      <point x="193" y="1058"/>
      <point x="170" y="969"/>
      <point x="170" y="874" type="curve" smooth="yes"/>
      <point x="170" y="778"/>
      <point x="194" y="701"/>
      <point x="249" y="627" type="curve"/>
      <point x="38" y="416" type="line"/>
      <point x="150" y="306" type="line"/>
      <point x="361" y="517" type="line"/>
      <point x="436" y="456"/>
      <point x="515" y="430"/>
      <point x="617" y="430" type="curve" smooth="yes"/>
      <point x="711" y="430"/>
      <point x="792" y="458"/>
      <point x="866" y="518" type="curve"/>
      <point x="1078" y="306" type="line"/>
    </contour>
    <contour>
      <point x="905" y="877" type="curve" smooth="yes"/>
      <point x="905" y="712"/>
      <point x="784" y="582"/>
      <point x="617" y="582" type="curve" smooth="yes"/>
      <point x="448" y="582"/>
      <point x="321" y="705"/>
      <point x="321" y="874" type="curve" smooth="yes"/>
      <point x="321" y="1046"/>
      <point x="446" y="1169"/>
      <point x="617" y="1169" type="curve" smooth="yes"/>
      <point x="783" y="1169"/>
      <point x="905" y="1040"/>
    </contour>
  </outline>
</glyph>
<glyph name="yen" format="2">
  <advance width="1227"/>
  <unicode hex="00A5"/>
  <outline>
    <contour>
      <point x="553" y="560" type="line"/>
      <point x="741" y="662" type="line"/>
      <point x="301" y="1460" type="line"/>
      <point x="3" y="1460" type="line"/>
      <point x="115" y="1311"/>
      <point x="181" y="1197"/>
      <point x="258" y="1065" type="curve" smooth="yes"/>
    </contour>
    <contour>
      <point x="676" y="560" type="line"/>
      <point x="973" y="1065" type="line" smooth="yes"/>
      <point x="1049" y="1195"/>
      <point x="1105" y="1291"/>
      <point x="1223" y="1460" type="curve"/>
      <point x="932" y="1460" type="line"/>
      <point x="504" y="662" type="line"/>
    </contour>
    <contour>
      <point x="472" y="0" type="curve"/>
      <point x="755" y="0" type="line"/>
      <point x="740" y="80"/>
      <point x="740" y="238"/>
      <point x="740" y="435" type="curve" smooth="yes"/>
      <point x="740" y="695" type="line"/>
      <point x="487" y="695" type="line"/>
      <point x="487" y="435" type="line" smooth="yes"/>
      <point x="487" y="238"/>
      <point x="487" y="80"/>
    </contour>
    <contour>
      <point x="160" y="655" type="line"/>
      <point x="1069" y="655" type="line"/>
      <point x="1069" y="843" type="line"/>
      <point x="160" y="843" type="line"/>
    </contour>
    <contour>
      <point x="160" y="361" type="line"/>
      <point x="1069" y="361" type="line"/>
      <point x="1069" y="549" type="line"/>
      <point x="160" y="549" type="line"/>
    </contour>
  </outline>
</glyph>
<glyph name="brokenbar" format="2">
  <advance width="1051"/>
  <unicode hex="00A6"/>
  <outline>
    <contour>
      <point x="433" y="445" type="line"/>
      <point x="433" y="-390" type="line"/>
      <point x="623" y="-390" type="line"/>
      <point x="623" y="445" type="line"/>
    </contour>
    <contour>
      <point x="623" y="775" type="line"/>
      <point x="623" y="1600" type="line"/>
      <point x="433" y="1600" type="line"/>
      <point x="433" y="775" type="line"/>
    </contour>
  </outline>
</glyph>
<glyph name="section" format="2">
  <advance width="1071"/>
  <unicode hex="00A7"/>
  <outline>
    <contour>
      <point x="882" y="1405" type="line"/>
      <point x="807" y="1443"/>
      <point x="692" y="1485"/>
      <point x="535" y="1485" type="curve" smooth="yes"/>
      <point x="212" y="1485"/>
      <point x="117" y="1271"/>
      <point x="117" y="1152" type="curve" smooth="yes"/>
      <point x="117" y="1015"/>
      <point x="225" y="900"/>
      <point x="448" y="769" type="curve" smooth="yes"/>
      <point x="643" y="655"/>
      <point x="700" y="590"/>
      <point x="700" y="523" type="curve" smooth="yes"/>
      <point x="700" y="434"/>
      <point x="622" y="379"/>
      <point x="492" y="379" type="curve"/>
      <point x="490" y="177" type="line"/>
      <point x="794" y="177"/>
      <point x="933" y="347"/>
      <point x="933" y="544" type="curve" smooth="yes"/>
      <point x="933" y="683"/>
      <point x="844" y="779"/>
      <point x="648" y="904" type="curve" smooth="yes"/>
      <point x="455" y="1027"/>
      <point x="353" y="1094"/>
      <point x="353" y="1172" type="curve" smooth="yes"/>
      <point x="353" y="1222"/>
      <point x="401" y="1282"/>
      <point x="525" y="1282" type="curve" smooth="yes"/>
      <point x="659" y="1282"/>
      <point x="772" y="1226"/>
      <point x="844" y="1187" type="curve"/>
    </contour>
    <contour>
      <point x="103" y="-355" type="line"/>
      <point x="188" y="-417"/>
      <point x="342" y="-470"/>
      <point x="515" y="-470" type="curve" smooth="yes"/>
      <point x="749" y="-470"/>
      <point x="933" y="-310"/>
      <point x="933" y="-109" type="curve" smooth="yes"/>
      <point x="933" y="68"/>
      <point x="835" y="178"/>
      <point x="637" y="307" type="curve" smooth="yes"/>
      <point x="466" y="419"/>
      <point x="349" y="511"/>
      <point x="349" y="592" type="curve" smooth="yes"/>
      <point x="349" y="676"/>
      <point x="418" y="726"/>
      <point x="551" y="726" type="curve"/>
      <point x="553" y="932" type="line"/>
      <point x="251" y="932"/>
      <point x="117" y="753"/>
      <point x="117" y="584" type="curve" smooth="yes"/>
      <point x="117" y="438"/>
      <point x="214" y="322"/>
      <point x="423" y="184" type="curve" smooth="yes"/>
      <point x="603" y="64"/>
      <point x="696" y="-20"/>
      <point x="696" y="-120" type="curve" smooth="yes"/>
      <point x="696" y="-212"/>
      <point x="613" y="-267"/>
      <point x="520" y="-267" type="curve" smooth="yes"/>
      <point x="407" y="-267"/>
      <point x="253" y="-213"/>
      <point x="157" y="-132" type="curve"/>
    </contour>
  </outline>
</glyph>
<glyph name="dieresis" format="2">
  <advance width="787"/>
  <unicode hex="00A8"/>
  <outline>
    <contour>
      <point x="467" y="1372" type="curve" smooth="yes"/>
      <point x="467" y="1278"/>
      <point x="535" y="1210"/>
      <point x="627" y="1210" type="curve" smooth="yes"/>
      <point x="720" y="1210"/>
      <point x="787" y="1278"/>
      <point x="787" y="1372" type="curve" smooth="yes"/>
      <point x="787" y="1464"/>
      <point x="720" y="1533"/>
      <point x="627" y="1533" type="curve" smooth="yes"/>
      <point x="535" y="1533"/>
      <point x="467" y="1464"/>
    </contour>
    <contour>
      <point x="0" y="1372" type="curve" smooth="yes"/>
      <point x="0" y="1278"/>
      <point x="68" y="1210"/>
      <point x="160" y="1210" type="curve" smooth="yes"/>
      <point x="253" y="1210"/>
      <point x="320" y="1278"/>
      <point x="320" y="1372" type="curve" smooth="yes"/>
      <point x="320" y="1464"/>
      <point x="253" y="1533"/>
      <point x="160" y="1533" type="curve" smooth="yes"/>
      <point x="68" y="1533"/>
      <point x="0" y="1464"/>
    </contour>
  </outline>
</glyph>
<glyph name="copyright" format="2">
  <advance width="1528"/>
  <unicode hex="00A9"/>
  <outline>
    <contour>
      <point x="762" y="1338" type="curve" smooth="yes"/>
      <point x="1051" y="1338"/>
      <point x="1329" y="1127"/>
      <point x="1329" y="730" type="curve" smooth="yes"/>
      <point x="1329" y="333"/>
      <point x="1051" y="122"/>
      <point x="762" y="122" type="curve" smooth="yes"/>
      <point x="472" y="122"/>
      <point x="200" y="333"/>
      <point x="200" y="730" type="curve" smooth="yes"/>
      <point x="200" y="1127"/>
      <point x="472" y="1338"/>
    </contour>
    <contour>
      <point x="762" y="1485" type="curve" smooth="yes"/>
      <point x="398" y="1485"/>
      <point x="47" y="1230"/>
      <point x="47" y="730" type="curve" smooth="yes"/>
      <point x="47" y="220"/>
      <point x="398" y="-25"/>
      <point x="762" y="-25" type="curve" smooth="yes"/>
      <point x="1114" y="-25"/>
      <point x="1482" y="220"/>
      <point x="1482" y="730" type="curve" smooth="yes"/>
      <point x="1482" y="1230"/>
      <point x="1114" y="1485"/>
    </contour>
    <contour>
      <point x="1016" y="530" type="line"/>
      <point x="951" y="462"/>
      <point x="857" y="417"/>
      <point x="769" y="417" type="curve" smooth="yes"/>
      <point x="615" y="417"/>
      <point x="521" y="549"/>
      <point x="521" y="732" type="curve" smooth="yes"/>
      <point x="521" y="940"/>
      <point x="631" y="1046"/>
      <point x="774" y="1046" type="curve" smooth="yes"/>
      <point x="850" y="1046"/>
      <point x="919" y="1021"/>
      <point x="997" y="958" type="curve"/>
      <point x="1036" y="1100" type="line"/>
      <point x="950" y="1165"/>
      <point x="870" y="1186"/>
      <point x="768" y="1186" type="curve" smooth="yes"/>
      <point x="556" y="1186"/>
      <point x="362" y="1026"/>
      <point x="362" y="717" type="curve" smooth="yes"/>
      <point x="362" y="449"/>
      <point x="512" y="274"/>
      <point x="751" y="274" type="curve" smooth="yes"/>
      <point x="850" y="274"/>
      <point x="972" y="312"/>
      <point x="1044" y="374" type="curve"/>
    </contour>
  </outline>
</glyph>
<glyph name="ordfeminine" format="2">
  <advance width="816"/>
  <unicode hex="00AA"/>
  <outline>
    <contour>
      <point x="304" y="663" type="curve" smooth="yes"/>
      <point x="388" y="663"/>
      <point x="478" y="696"/>
      <point x="558" y="772" type="curve"/>
      <point x="568" y="734"/>
      <point x="585" y="699"/>
      <point x="593" y="680" type="curve"/>
      <point x="761" y="680" type="line"/>
      <point x="731" y="752"/>
      <point x="711" y="827"/>
      <point x="711" y="920" type="curve"/>
      <point x="711" y="1174" type="line"/>
      <point x="711" y="1277"/>
      <point x="595" y="1356"/>
      <point x="419" y="1356" type="curve" smooth="yes"/>
      <point x="305" y="1356"/>
      <point x="225" y="1326"/>
      <point x="148" y="1297" type="curve"/>
      <point x="144" y="1253"/>
      <point x="142" y="1171"/>
      <point x="141" y="1143" type="curve"/>
      <point x="223" y="1196"/>
      <point x="295" y="1224"/>
      <point x="369" y="1224" type="curve" smooth="yes"/>
      <point x="474" y="1224"/>
      <point x="537" y="1200"/>
      <point x="537" y="1141" type="curve" smooth="yes"/>
      <point x="537" y="1104" type="line"/>
      <point x="508" y="1102"/>
      <point x="396" y="1094"/>
      <point x="348" y="1090" type="curve" smooth="yes"/>
      <point x="132" y="1070"/>
      <point x="68" y="958"/>
      <point x="68" y="859" type="curve" smooth="yes"/>
      <point x="68" y="755"/>
      <point x="167" y="663"/>
    </contour>
    <contour>
      <point x="79" y="467" type="line"/>
      <point x="757" y="467" type="line"/>
      <point x="757" y="601" type="line"/>
      <point x="79" y="601" type="line"/>
    </contour>
    <contour>
      <point x="346" y="799" type="curve" smooth="yes"/>
      <point x="282" y="799"/>
      <point x="240" y="832"/>
      <point x="240" y="879" type="curve" smooth="yes"/>
      <point x="240" y="928"/>
      <point x="274" y="968"/>
      <point x="378" y="980" type="curve" smooth="yes"/>
      <point x="417" y="984"/>
      <point x="506" y="992"/>
      <point x="537" y="993" type="curve"/>
      <point x="537" y="904" type="line"/>
      <point x="464" y="813"/>
      <point x="408" y="799"/>
    </contour>
  </outline>
</glyph>
<glyph name="guillemetleft" format="2">
  <advance width="1304"/>
  <unicode hex="00AB"/>
  <outline>
    <contour>
      <point x="732" y="0" type="line"/>
      <point x="355" y="511" type="line"/>
      <point x="732" y="1020" type="line"/>
      <point x="507" y="1020" type="line"/>
      <point x="72" y="511" type="line"/>
      <point x="508" y="0" type="line"/>
    </contour>
    <contour>
      <point x="1232" y="0" type="line"/>
      <point x="856" y="511" type="line"/>
      <point x="1232" y="1020" type="line"/>
      <point x="1007" y="1020" type="line"/>
      <point x="572" y="511" type="line"/>
      <point x="1008" y="0" type="line"/>
    </contour>
  </outline>
</glyph>
<glyph name="logicalnot" format="2">
  <advance width="1200"/>
  <unicode hex="00AC"/>
  <outline>
    <contour>
      <point x="1075" y="340" type="line"/>
      <point x="1075" y="820" type="line"/>
      <point x="100" y="820" type="line"/>
      <point x="100" y="630" type="line"/>
      <point x="885" y="630" type="line"/>
      <point x="885" y="340" type="line"/>
    </contour>
  </outline>
</glyph>
<glyph name="registered" format="2">
  <advance width="1568"/>
  <unicode hex="00AE"/>
  <outline>
    <contour>
      <point x="802" y="1485" type="curve" smooth="yes"/>
      <point x="435" y="1485"/>
      <point x="80" y="1230"/>
      <point x="80" y="730" type="curve" smooth="yes"/>
      <point x="80" y="220"/>
      <point x="435" y="-25"/>
      <point x="802" y="-25" type="curve" smooth="yes"/>
      <point x="1154" y="-25"/>
      <point x="1522" y="220"/>
      <point x="1522" y="730" type="curve" smooth="yes"/>
      <point x="1522" y="1230"/>
      <point x="1154" y="1485"/>
    </contour>
    <contour>
      <point x="802" y="1338" type="curve" smooth="yes"/>
      <point x="1091" y="1338"/>
      <point x="1369" y="1127"/>
      <point x="1369" y="730" type="curve" smooth="yes"/>
      <point x="1369" y="333"/>
      <point x="1091" y="122"/>
      <point x="802" y="122" type="curve" smooth="yes"/>
      <point x="509" y="122"/>
      <point x="233" y="333"/>
      <point x="233" y="730" type="curve" smooth="yes"/>
      <point x="233" y="1127"/>
      <point x="509" y="1338"/>
    </contour>
    <contour>
      <point x="640" y="655" type="line"/>
      <point x="736" y="655" type="line"/>
      <point x="969" y="297" type="line"/>
      <point x="1160" y="297" type="line"/>
      <point x="1127" y="333"/>
      <point x="954" y="582"/>
      <point x="887" y="674" type="curve"/>
      <point x="990" y="707"/>
      <point x="1076" y="777"/>
      <point x="1076" y="920" type="curve" smooth="yes"/>
      <point x="1076" y="1099"/>
      <point x="945" y="1176"/>
      <point x="758" y="1176" type="curve" smooth="yes"/>
      <point x="655" y="1176"/>
      <point x="537" y="1172"/>
      <point x="477" y="1169" type="curve"/>
      <point x="486" y="1120"/>
      <point x="486" y="1014"/>
      <point x="486" y="895" type="curve" smooth="yes"/>
      <point x="486" y="555" type="line" smooth="yes"/>
      <point x="486" y="436"/>
      <point x="486" y="346"/>
      <point x="477" y="297" type="curve"/>
      <point x="648" y="297" type="line"/>
      <point x="640" y="345"/>
      <point x="640" y="436"/>
      <point x="640" y="555" type="curve"/>
    </contour>
    <contour>
      <point x="641" y="1045" type="line"/>
      <point x="674" y="1047"/>
      <point x="698" y="1049"/>
      <point x="742" y="1049" type="curve" smooth="yes"/>
      <point x="860" y="1049"/>
      <point x="917" y="1006"/>
      <point x="917" y="914" type="curve" smooth="yes"/>
      <point x="917" y="815"/>
      <point x="850" y="776"/>
      <point x="739" y="776" type="curve"/>
      <point x="641" y="776" type="line"/>
    </contour>
  </outline>
</glyph>
<glyph name="macron" format="2">
  <advance width="790"/>
  <unicode hex="00AF"/>
  <outline>
    <contour>
      <point x="0" y="1240" type="line"/>
      <point x="790" y="1240" type="line"/>
      <point x="790" y="1423" type="line"/>
      <point x="0" y="1423" type="line"/>
    </contour>
  </outline>
</glyph>
<glyph name="degree" format="2">
  <advance width="690"/>
  <unicode hex="00B0"/>
  <outline>
    <contour>
      <point x="488" y="1205" type="curve"/>
      <point x="488" y="1126"/>
      <point x="426" y="1060"/>
      <point x="347" y="1060" type="curve" smooth="yes"/>
      <point x="268" y="1060"/>
      <point x="202" y="1126"/>
      <point x="202" y="1205" type="curve" smooth="yes"/>
      <point x="202" y="1285"/>
      <point x="268" y="1347"/>
      <point x="347" y="1347" type="curve" smooth="yes"/>
      <point x="426" y="1347"/>
      <point x="488" y="1285"/>
    </contour>
    <contour>
      <point x="63" y="1205" type="curve"/>
      <point x="63" y="1046"/>
      <point x="187" y="922"/>
      <point x="347" y="922" type="curve" smooth="yes"/>
      <point x="506" y="922"/>
      <point x="627" y="1046"/>
      <point x="627" y="1205" type="curve" smooth="yes"/>
      <point x="627" y="1364"/>
      <point x="506" y="1485"/>
      <point x="347" y="1485" type="curve" smooth="yes"/>
      <point x="187" y="1485"/>
      <point x="63" y="1364"/>
    </contour>
  </outline>
</glyph>
<glyph name="plusminus" format="2">
  <advance width="1200"/>
  <unicode hex="00B1"/>
  <outline>
    <contour>
      <point x="1045" y="815" type="line"/>
      <point x="1045" y="1005" type="line"/>
      <point x="695" y="1005" type="line"/>
      <point x="695" y="1365" type="line"/>
      <point x="505" y="1365" type="line"/>
      <point x="505" y="1005" type="line"/>
      <point x="155" y="1005" type="line"/>
      <point x="155" y="815" type="line"/>
      <point x="505" y="815" type="line"/>
      <point x="505" y="470" type="line"/>
      <point x="695" y="470" type="line"/>
      <point x="695" y="815" type="line"/>
    </contour>
    <contour>
      <point x="1045" y="180" type="line"/>
      <point x="1045" y="363" type="line"/>
      <point x="155" y="363" type="line"/>
      <point x="155" y="180" type="line"/>
    </contour>
  </outline>
</glyph>
<glyph name="twosuperior" format="2">
  <advance width="840"/>
  <unicode hex="00B2"/>
  <anchor x="420" y="615" name="L"/>
  <anchor x="420" y="1675" name="U"/>
  <outline>
    <contour>
      <point x="766" y="832" type="line"/>
      <point x="710" y="823"/>
      <point x="641" y="822"/>
      <point x="503" y="822" type="curve" smooth="yes"/>
      <point x="320" y="822" type="line"/>
      <point x="473" y="939"/>
      <point x="729" y="1158"/>
      <point x="729" y="1372" type="curve" smooth="yes"/>
      <point x="729" y="1540"/>
      <point x="588" y="1645"/>
      <point x="397" y="1645" type="curve" smooth="yes"/>
      <point x="279" y="1645"/>
      <point x="144" y="1591"/>
      <point x="83" y="1518" type="curve"/>
      <point x="124" y="1377" type="line"/>
      <point x="186" y="1448"/>
      <point x="291" y="1498"/>
      <point x="377" y="1498" type="curve" smooth="yes"/>
      <point x="482" y="1498"/>
      <point x="548" y="1438"/>
      <point x="548" y="1346" type="curve" smooth="yes"/>
      <point x="548" y="1175"/>
      <point x="274" y="939"/>
      <point x="84" y="812" type="curve"/>
      <point x="84" y="680" type="line"/>
      <point x="766" y="680" type="line"/>
    </contour>
  </outline>
</glyph>
<glyph name="threesuperior" format="2">
  <advance width="840"/>
  <unicode hex="00B3"/>
  <anchor x="420" y="615" name="L"/>
  <anchor x="420" y="1675" name="U"/>
  <outline>
    <contour>
      <point x="283" y="1252" type="line"/>
      <point x="283" y="1111" type="line"/>
      <point x="341" y="1111" type="line"/>
      <point x="501" y="1111"/>
      <point x="603" y="1045"/>
      <point x="603" y="956" type="curve" smooth="yes"/>
      <point x="603" y="858"/>
      <point x="503" y="803"/>
      <point x="401" y="803" type="curve" smooth="yes"/>
      <point x="283" y="803"/>
      <point x="176" y="852"/>
      <point x="100" y="932" type="curve"/>
      <point x="77" y="766" type="line"/>
      <point x="151" y="703"/>
      <point x="263" y="664"/>
      <point x="387" y="664" type="curve" smooth="yes"/>
      <point x="608" y="664"/>
      <point x="782" y="790"/>
      <point x="782" y="943" type="curve" smooth="yes"/>
      <point x="782" y="1117"/>
      <point x="622" y="1175"/>
      <point x="523" y="1191" type="curve"/>
      <point x="622" y="1210"/>
      <point x="747" y="1302"/>
      <point x="747" y="1421" type="curve" smooth="yes"/>
      <point x="747" y="1560"/>
      <point x="604" y="1645"/>
      <point x="411" y="1645" type="curve"/>
      <point x="294" y="1645"/>
      <point x="178" y="1600"/>
      <point x="122" y="1541" type="curve"/>
      <point x="146" y="1405" type="line"/>
      <point x="226" y="1480"/>
      <point x="310" y="1505"/>
      <point x="418" y="1505" type="curve" smooth="yes"/>
      <point x="492" y="1505"/>
      <point x="573" y="1467"/>
      <point x="573" y="1399" type="curve" smooth="yes"/>
      <point x="573" y="1325"/>
      <point x="472" y="1252"/>
      <point x="341" y="1252" type="curve"/>
    </contour>
  </outline>
</glyph>
<glyph name="acute" format="2">
  <advance width="620"/>
  <unicode hex="00B4"/>
  <anchor x="187" y="1635" name="U"/>
  <outline>
    <contour>
      <point x="310" y="1600" type="line"/>
      <point x="0" y="1190" type="line"/>
      <point x="213" y="1190" type="line"/>
      <point x="620" y="1600" type="line"/>
    </contour>
  </outline>
</glyph>
<glyph name="micro" format="2">
  <advance width="1225"/>
  <unicode hex="00B5"/>
  <outline>
    <contour>
      <point x="1137" y="0" type="line"/>
      <point x="1095" y="112"/>
      <point x="1072" y="256"/>
      <point x="1072" y="450" type="curve" smooth="yes"/>
      <point x="1072" y="586"/>
      <point x="1072" y="855"/>
      <point x="1072" y="1020" type="curve"/>
      <point x="803" y="1020" type="line"/>
      <point x="821" y="898"/>
      <point x="823" y="832"/>
      <point x="823" y="700" type="curve" smooth="yes"/>
      <point x="823" y="419" type="line"/>
      <point x="787" y="316"/>
      <point x="671" y="184"/>
      <point x="588" y="184" type="curve" smooth="yes"/>
      <point x="462" y="184"/>
      <point x="397" y="269"/>
      <point x="397" y="465" type="curve" smooth="yes"/>
      <point x="397" y="573"/>
      <point x="397" y="846"/>
      <point x="397" y="1020" type="curve"/>
      <point x="128" y="1020" type="line"/>
      <point x="146" y="900"/>
      <point x="148" y="827"/>
      <point x="148" y="700" type="curve" smooth="yes"/>
      <point x="148" y="-490" type="line"/>
      <point x="422" y="-490" type="line"/>
      <point x="405" y="-405"/>
      <point x="397" y="-310"/>
      <point x="397" y="-150" type="curve" smooth="yes"/>
      <point x="397" y="43" type="line"/>
      <point x="440" y="-4"/>
      <point x="498" y="-25"/>
      <point x="567" y="-25" type="curve" smooth="yes"/>
      <point x="661" y="-25"/>
      <point x="773" y="65"/>
      <point x="848" y="190" type="curve"/>
      <point x="858" y="119"/>
      <point x="884" y="44"/>
      <point x="903" y="0" type="curve"/>
    </contour>
  </outline>
</glyph>
<glyph name="paragraph" format="2">
  <advance width="1078"/>
  <unicode hex="00B6"/>
  <outline>
    <contour>
      <point x="1018" y="1325" type="line"/>
      <point x="1018" y="1460" type="line"/>
      <point x="453" y="1460" type="line" smooth="yes"/>
      <point x="282" y="1460"/>
      <point x="50" y="1382"/>
      <point x="50" y="1106" type="curve" smooth="yes"/>
      <point x="50" y="832"/>
      <point x="283" y="752"/>
      <point x="433" y="752" type="curve"/>
      <point x="433" y="0" type="line"/>
      <point x="588" y="0" type="line"/>
      <point x="588" y="1325" type="line"/>
      <point x="748" y="1325" type="line"/>
      <point x="748" y="0" type="line"/>
      <point x="903" y="0" type="line"/>
      <point x="903" y="1325" type="line"/>
    </contour>
  </outline>
</glyph>
<glyph name="periodcentered" format="2">
  <advance width="726"/>
  <unicode hex="00B7"/>
  <outline>
    <contour>
      <point x="202" y="710" type="curve" smooth="yes"/>
      <point x="202" y="616"/>
      <point x="271" y="548"/>
      <point x="363" y="548" type="curve" smooth="yes"/>
      <point x="456" y="548"/>
      <point x="524" y="616"/>
      <point x="524" y="710" type="curve" smooth="yes"/>
      <point x="524" y="802"/>
      <point x="456" y="871"/>
      <point x="363" y="871" type="curve" smooth="yes"/>
      <point x="271" y="871"/>
      <point x="202" y="802"/>
    </contour>
  </outline>
</glyph>
<glyph name="cedilla" format="2">
  <advance width="410"/>
  <unicode hex="00B8"/>
  <anchor x="122" y="-527" name="L"/>
  <outline>
    <contour>
      <point x="60" y="50" type="line"/>
      <point x="60" y="-212" type="line"/>
      <point x="81" y="-201"/>
      <point x="121" y="-190"/>
      <point x="156" y="-190" type="curve" smooth="yes"/>
      <point x="207" y="-190"/>
      <point x="248" y="-225"/>
      <point x="248" y="-270" type="curve"/>
      <point x="247" y="-332"/>
      <point x="183" y="-360"/>
      <point x="123" y="-360" type="curve" smooth="yes"/>
      <point x="78" y="-360"/>
      <point x="39" y="-349"/>
      <point x="10" y="-327" type="curve"/>
      <point x="0" y="-447" type="line"/>
      <point x="41" y="-470"/>
      <point x="96" y="-487"/>
      <point x="148" y="-487" type="curve" smooth="yes"/>
      <point x="274" y="-487"/>
      <point x="410" y="-403"/>
      <point x="410" y="-267" type="curve" smooth="yes"/>
      <point x="410" y="-168"/>
      <point x="344" y="-97"/>
      <point x="246" y="-97" type="curve" smooth="yes"/>
      <point x="224" y="-97"/>
      <point x="211" y="-99"/>
      <point x="198" y="-102" type="curve"/>
      <point x="198" y="50" type="line"/>
    </contour>
  </outline>
</glyph>
<glyph name="onesuperior" format="2">
  <advance width="840"/>
  <unicode hex="00B9"/>
  <anchor x="420" y="615" name="L"/>
  <anchor x="420" y="1675" name="U"/>
  <outline>
    <contour>
      <point x="727" y="680" type="line"/>
      <point x="727" y="819" type="line"/>
      <point x="509" y="819" type="line"/>
      <point x="509" y="1633" type="line"/>
      <point x="341" y="1633" type="line"/>
      <point x="114" y="1509" type="line"/>
      <point x="135" y="1357" type="line"/>
      <point x="336" y="1460" type="line"/>
      <point x="336" y="819" type="line"/>
      <point x="119" y="819" type="line"/>
      <point x="119" y="680" type="line"/>
    </contour>
  </outline>
</glyph>
<glyph name="ordmasculine" format="2">
  <advance width="799"/>
  <unicode hex="00BA"/>
  <outline>
    <contour>
      <point x="68" y="1009" type="curve" smooth="yes"/>
      <point x="68" y="786"/>
      <point x="204" y="664"/>
      <point x="398" y="664" type="curve" smooth="yes"/>
      <point x="584" y="664"/>
      <point x="743" y="786"/>
      <point x="743" y="1009" type="curve" smooth="yes"/>
      <point x="743" y="1232"/>
      <point x="607" y="1356"/>
      <point x="412" y="1356" type="curve" smooth="yes"/>
      <point x="226" y="1356"/>
      <point x="68" y="1232"/>
    </contour>
    <contour>
      <point x="240" y="1009" type="curve" smooth="yes"/>
      <point x="240" y="1143"/>
      <point x="308" y="1223"/>
      <point x="406" y="1223" type="curve" smooth="yes"/>
      <point x="509" y="1223"/>
      <point x="571" y="1143"/>
      <point x="571" y="1009" type="curve" smooth="yes"/>
      <point x="571" y="876"/>
      <point x="503" y="796"/>
      <point x="406" y="796" type="curve" smooth="yes"/>
      <point x="302" y="796"/>
      <point x="240" y="876"/>
    </contour>
    <contour>
      <point x="69" y="467" type="line"/>
      <point x="741" y="467" type="line"/>
      <point x="741" y="601" type="line"/>
      <point x="69" y="601" type="line"/>
    </contour>
  </outline>
</glyph>
<glyph name="guillemetright" format="2">
  <advance width="1304"/>
  <unicode hex="00BB"/>
  <outline>
    <contour>
      <point x="796" y="0" type="line"/>
      <point x="1232" y="511" type="line"/>
      <point x="797" y="1020" type="line"/>
      <point x="572" y="1020" type="line"/>
      <point x="949" y="511" type="line"/>
      <point x="572" y="0" type="line"/>
    </contour>
    <contour>
      <point x="296" y="0" type="line"/>
      <point x="732" y="511" type="line"/>
      <point x="297" y="1020" type="line"/>
      <point x="72" y="1020" type="line"/>
      <point x="448" y="511" type="line"/>
      <point x="72" y="0" type="line"/>
    </contour>
  </outline>
</glyph>
<glyph name="onequarter" format="2">
  <advance width="1684"/>
  <unicode hex="00BC"/>
  <outline>
    <contour>
      <point x="270" y="818" type="line"/>
      <point x="78" y="818" type="line"/>
      <point x="78" y="683" type="line"/>
      <point x="601" y="683" type="line"/>
      <point x="601" y="818" type="line"/>
      <point x="423" y="818" type="line"/>
      <point x="423" y="1593" type="line"/>
      <point x="275" y="1593" type="line"/>
      <point x="68" y="1474" type="line"/>
      <point x="93" y="1327" type="line"/>
      <point x="270" y="1427" type="line"/>
    </contour>
    <contour>
      <point x="1342" y="1600" type="line"/>
      <point x="268" y="-50" type="line"/>
      <point x="425" y="-50" type="line"/>
      <point x="1500" y="1600" type="line"/>
    </contour>
    <contour>
      <point x="1624" y="233" type="line"/>
      <point x="1624" y="364" type="line"/>
      <point x="1511" y="364" type="line"/>
      <point x="1511" y="918" type="line"/>
      <point x="1340" y="918" type="line"/>
      <point x="941" y="364" type="line"/>
      <point x="941" y="233" type="line"/>
      <point x="1355" y="233" type="line"/>
      <point x="1355" y="0" type="line"/>
      <point x="1511" y="0" type="line"/>
      <point x="1511" y="233" type="line"/>
    </contour>
    <contour>
      <point x="1355" y="364" type="line"/>
      <point x="1090" y="364" type="line"/>
      <point x="1355" y="727" type="line"/>
    </contour>
  </outline>
</glyph>
<glyph name="onehalf" format="2">
  <advance width="1684"/>
  <unicode hex="00BD"/>
  <outline>
    <contour>
      <point x="1291" y="1600" type="line"/>
      <point x="220" y="-50" type="line"/>
      <point x="376" y="-50" type="line"/>
      <point x="1448" y="1600" type="line"/>
    </contour>
    <contour>
      <point x="258" y="818" type="line"/>
      <point x="67" y="818" type="line"/>
      <point x="67" y="683" type="line"/>
      <point x="589" y="683" type="line"/>
      <point x="589" y="818" type="line"/>
      <point x="412" y="818" type="line"/>
      <point x="412" y="1593" type="line"/>
      <point x="263" y="1593" type="line"/>
      <point x="57" y="1474" type="line"/>
      <point x="81" y="1327" type="line"/>
      <point x="258" y="1427" type="line"/>
    </contour>
    <contour>
      <point x="1634" y="148" type="line"/>
      <point x="1584" y="140"/>
      <point x="1523" y="138"/>
      <point x="1401" y="138" type="curve" smooth="yes"/>
      <point x="1240" y="138" type="line"/>
      <point x="1377" y="248"/>
      <point x="1602" y="459"/>
      <point x="1602" y="665" type="curve" smooth="yes"/>
      <point x="1602" y="826"/>
      <point x="1476" y="928"/>
      <point x="1305" y="928" type="curve" smooth="yes"/>
      <point x="1207" y="928"/>
      <point x="1093" y="875"/>
      <point x="1038" y="812" type="curve"/>
      <point x="1075" y="674" type="line"/>
      <point x="1131" y="735"/>
      <point x="1218" y="782"/>
      <point x="1288" y="782" type="curve" smooth="yes"/>
      <point x="1382" y="782"/>
      <point x="1436" y="728"/>
      <point x="1436" y="641" type="curve" smooth="yes"/>
      <point x="1436" y="476"/>
      <point x="1195" y="252"/>
      <point x="1026" y="130" type="curve"/>
      <point x="1026" y="0" type="line"/>
      <point x="1634" y="0" type="line"/>
    </contour>
  </outline>
</glyph>
<glyph name="threequarters" format="2">
  <advance width="1684"/>
  <unicode hex="00BE"/>
  <outline>
    <contour>
      <point x="251" y="1230" type="line"/>
      <point x="251" y="1092" type="line"/>
      <point x="304" y="1092" type="line" smooth="yes"/>
      <point x="447" y="1092"/>
      <point x="528" y="1030"/>
      <point x="528" y="945" type="curve" smooth="yes"/>
      <point x="528" y="850"/>
      <point x="448" y="799"/>
      <point x="354" y="799" type="curve" smooth="yes"/>
      <point x="257" y="799"/>
      <point x="159" y="844"/>
      <point x="95" y="917" type="curve"/>
      <point x="75" y="757" type="line"/>
      <point x="138" y="698"/>
      <point x="238" y="661"/>
      <point x="347" y="661" type="curve" smooth="yes"/>
      <point x="544" y="661"/>
      <point x="691" y="787"/>
      <point x="691" y="934" type="curve" smooth="yes"/>
      <point x="691" y="1096"/>
      <point x="556" y="1158"/>
      <point x="467" y="1171" type="curve"/>
      <point x="556" y="1187"/>
      <point x="660" y="1275"/>
      <point x="660" y="1385" type="curve" smooth="yes"/>
      <point x="660" y="1519"/>
      <point x="540" y="1605"/>
      <point x="368" y="1605" type="curve" smooth="yes"/>
      <point x="268" y="1605"/>
      <point x="171" y="1567"/>
      <point x="114" y="1510" type="curve"/>
      <point x="137" y="1378" type="line"/>
      <point x="212" y="1447"/>
      <point x="282" y="1467"/>
      <point x="369" y="1467" type="curve" smooth="yes"/>
      <point x="437" y="1467"/>
      <point x="501" y="1433"/>
      <point x="501" y="1367" type="curve" smooth="yes"/>
      <point x="501" y="1297"/>
      <point x="421" y="1230"/>
      <point x="304" y="1230" type="curve" smooth="yes"/>
    </contour>
    <contour>
      <point x="1336" y="1600" type="line"/>
      <point x="265" y="-50" type="line"/>
      <point x="421" y="-50" type="line"/>
      <point x="1493" y="1600" type="line"/>
    </contour>
    <contour>
      <point x="1622" y="233" type="line"/>
      <point x="1622" y="364" type="line"/>
      <point x="1509" y="364" type="line"/>
      <point x="1509" y="918" type="line"/>
      <point x="1339" y="918" type="line"/>
      <point x="939" y="364" type="line"/>
      <point x="939" y="233" type="line"/>
      <point x="1353" y="233" type="line"/>
      <point x="1353" y="0" type="line"/>
      <point x="1509" y="0" type="line"/>
      <point x="1509" y="233" type="line"/>
    </contour>
    <contour>
      <point x="1353" y="364" type="line"/>
      <point x="1088" y="364" type="line"/>
      <point x="1353" y="727" type="line"/>
    </contour>
  </outline>
</glyph>
<glyph name="questiondown" format="2">
  <advance width="1077"/>
  <unicode hex="00BF"/>
  <outline>
    <contour>
      <point x="412" y="620" type="line"/>
      <point x="412" y="403"/>
      <point x="387" y="279"/>
      <point x="250" y="105" type="curve" smooth="yes"/>
      <point x="170" y="5"/>
      <point x="140" y="-50"/>
      <point x="140" y="-127" type="curve" smooth="yes"/>
      <point x="140" y="-315"/>
      <point x="288" y="-440"/>
      <point x="530" y="-440" type="curve" smooth="yes"/>
      <point x="668" y="-440"/>
      <point x="811" y="-378"/>
      <point x="877" y="-315" type="curve"/>
      <point x="832" y="-96" type="line"/>
      <point x="756" y="-175"/>
      <point x="651" y="-218"/>
      <point x="558" y="-218" type="curve" smooth="yes"/>
      <point x="444" y="-218"/>
      <point x="398" y="-162"/>
      <point x="398" y="-103" type="curve" smooth="yes"/>
      <point x="398" y="-64"/>
      <point x="413" y="-30"/>
      <point x="495" y="73" type="curve" smooth="yes"/>
      <point x="602" y="212"/>
      <point x="647" y="370"/>
      <point x="647" y="620" type="curve"/>
    </contour>
    <contour>
      <point x="691" y="950" type="curve" smooth="yes"/>
      <point x="691" y="1044"/>
      <point x="621" y="1111"/>
      <point x="529" y="1111" type="curve" smooth="yes"/>
      <point x="437" y="1111"/>
      <point x="368" y="1044"/>
      <point x="368" y="950" type="curve" smooth="yes"/>
      <point x="368" y="857"/>
      <point x="437" y="788"/>
      <point x="529" y="788" type="curve" smooth="yes"/>
      <point x="621" y="788"/>
      <point x="691" y="857"/>
    </contour>
  </outline>
</glyph>
<glyph name="AE" format="2">
  <advance width="1822"/>
  <unicode hex="00C6"/>
  <anchor x="1012" y="-100" name="L"/>
  <anchor x="1012" y="1530" name="U"/>
  <outline>
    <contour>
      <point x="1147" y="208" type="line"/>
      <point x="1147" y="662" type="line"/>
      <point x="1600" y="662" type="line"/>
      <point x="1600" y="865" type="line"/>
      <point x="1147" y="865" type="line"/>
      <point x="1147" y="1252" type="line"/>
      <point x="1675" y="1252" type="line"/>
      <point x="1675" y="1460" type="line"/>
      <point x="761" y="1460" type="line"/>
      <point x="229" y="370" type="line" smooth="yes"/>
      <point x="145" y="196"/>
      <point x="96" y="103"/>
      <point x="33" y="0" type="curve"/>
      <point x="299" y="0" type="line"/>
      <point x="472" y="365" type="line"/>
      <point x="893" y="365" type="line"/>
      <point x="893" y="200"/>
      <point x="892" y="70"/>
      <point x="878" y="0" type="curve"/>
      <point x="1705" y="0" type="line"/>
      <point x="1705" y="223" type="line"/>
      <point x="1626" y="209"/>
      <point x="1499" y="208"/>
      <point x="1306" y="208" type="curve" smooth="yes"/>
    </contour>
    <contour>
      <point x="893" y="560" type="line"/>
      <point x="564" y="560" type="line"/>
      <point x="893" y="1252" type="line"/>
    </contour>
  </outline>
</glyph>
<glyph name="Eth" format="2">
  <advance width="1478"/>
  <unicode hex="00D0"/>
  <anchor x="725" y="-100" name="L"/>
  <anchor x="725" y="1530" name="U"/>
  <outline>
    <contour>
      <point x="178" y="455" type="line" smooth="yes"/>
      <point x="178" y="257"/>
      <point x="178" y="80"/>
      <point x="163" y="0" type="curve"/>
      <point x="300" y="-4"/>
      <point x="517" y="-10"/>
      <point x="614" y="-10" type="curve" smooth="yes"/>
      <point x="919" y="-10"/>
      <point x="1362" y="145"/>
      <point x="1362" y="740" type="curve" smooth="yes"/>
      <point x="1362" y="1381"/>
      <point x="890" y="1470"/>
      <point x="635" y="1470" type="curve" smooth="yes"/>
      <point x="495" y="1470"/>
      <point x="251" y="1466"/>
      <point x="163" y="1460" type="curve"/>
      <point x="178" y="1380"/>
      <point x="178" y="1196"/>
      <point x="178" y="1000" type="curve" smooth="yes"/>
    </contour>
    <contour>
      <point x="432" y="1262" type="line"/>
      <point x="476" y="1264"/>
      <point x="573" y="1267"/>
      <point x="631" y="1267" type="curve" smooth="yes"/>
      <point x="901" y="1267"/>
      <point x="1102" y="1134"/>
      <point x="1102" y="720" type="curve" smooth="yes"/>
      <point x="1102" y="341"/>
      <point x="865" y="199"/>
      <point x="627" y="199" type="curve" smooth="yes"/>
      <point x="543" y="199"/>
      <point x="473" y="205"/>
      <point x="432" y="209" type="curve"/>
    </contour>
    <contour>
      <point x="1" y="848" type="line"/>
      <point x="1" y="659" type="line"/>
      <point x="792" y="659" type="line"/>
      <point x="792" y="848" type="line"/>
    </contour>
  </outline>
</glyph>
<glyph name="multiply" format="2">
  <advance width="1200"/>
  <unicode hex="00D7"/>
  <outline>
    <contour>
      <point x="196" y="1000" type="line"/>
      <point x="467" y="729" type="line"/>
      <point x="200" y="462" type="line"/>
      <point x="334" y="328" type="line"/>
      <point x="601" y="595" type="line"/>
      <point x="868" y="328" type="line"/>
      <point x="1002" y="463" type="line"/>
      <point x="735" y="729" type="line"/>
      <point x="1003" y="997" type="line"/>
      <point x="869" y="1131" type="line"/>
      <point x="601" y="863" type="line"/>
      <point x="331" y="1134" type="line"/>
    </contour>
  </outline>
</glyph>
<glyph name="Oslash" format="2">
  <advance width="1487"/>
  <unicode hex="00D8"/>
  <anchor x="730" y="-100" name="L"/>
  <anchor x="730" y="1530" name="U"/>
  <outline>
    <contour>
      <point x="1370" y="740" type="curve" smooth="yes"/>
      <point x="1370" y="1219"/>
      <point x="1077" y="1485"/>
      <point x="743" y="1485" type="curve" smooth="yes"/>
      <point x="405" y="1485"/>
      <point x="92" y="1199"/>
      <point x="92" y="720" type="curve" smooth="yes"/>
      <point x="92" y="241"/>
      <point x="386" y="-25"/>
      <point x="723" y="-25" type="curve" smooth="yes"/>
      <point x="1058" y="-25"/>
      <point x="1370" y="260"/>
    </contour>
    <contour>
      <point x="1115" y="715" type="curve" smooth="yes"/>
      <point x="1115" y="389"/>
      <point x="948" y="197"/>
      <point x="733" y="197" type="curve" smooth="yes"/>
      <point x="503" y="197"/>
      <point x="347" y="409"/>
      <point x="347" y="745" type="curve" smooth="yes"/>
      <point x="347" y="1062"/>
      <point x="508" y="1263"/>
      <point x="733" y="1263" type="curve" smooth="yes"/>
      <point x="959" y="1263"/>
      <point x="1115" y="1055"/>
    </contour>
    <contour>
      <point x="1067" y="1532" type="line"/>
      <point x="179" y="-78" type="line"/>
      <point x="382" y="-78" type="line"/>
      <point x="1269" y="1532" type="line"/>
    </contour>
  </outline>
</glyph>
<glyph name="Thorn" format="2">
  <advance width="1249"/>
  <unicode hex="00DE"/>
  <anchor x="679" y="-100" name="L"/>
  <anchor x="659" y="1530" name="U"/>
  <outline>
    <contour>
      <point x="153" y="1457" type="line"/>
      <point x="168" y="1377"/>
      <point x="168" y="1196"/>
      <point x="168" y="1000" type="curve" smooth="yes"/>
      <point x="168" y="435" type="line" smooth="yes"/>
      <point x="168" y="238"/>
      <point x="168" y="80"/>
      <point x="153" y="0" type="curve"/>
      <point x="437" y="0" type="line"/>
      <point x="424" y="71"/>
      <point x="422" y="147"/>
      <point x="422" y="310" type="curve"/>
      <point x="487" y="303"/>
      <point x="554" y="300"/>
      <point x="627" y="300" type="curve" smooth="yes"/>
      <point x="956" y="300"/>
      <point x="1172" y="487"/>
      <point x="1172" y="790" type="curve" smooth="yes"/>
      <point x="1172" y="1091"/>
      <point x="957" y="1243"/>
      <point x="634" y="1243" type="curve" smooth="yes"/>
      <point x="564" y="1243"/>
      <point x="491" y="1241"/>
      <point x="422" y="1241" type="curve"/>
      <point x="422" y="1457" type="line"/>
    </contour>
    <contour>
      <point x="422" y="1035" type="line"/>
      <point x="482" y="1038"/>
      <point x="523" y="1040"/>
      <point x="606" y="1040" type="curve" smooth="yes"/>
      <point x="836" y="1040"/>
      <point x="918" y="927"/>
      <point x="918" y="777" type="curve" smooth="yes"/>
      <point x="918" y="603"/>
      <point x="824" y="497"/>
      <point x="602" y="497" type="curve" smooth="yes"/>
      <point x="536" y="497"/>
      <point x="471" y="499"/>
      <point x="422" y="507" type="curve"/>
    </contour>
  </outline>
</glyph>
<glyph name="germandbls" format="2">
  <advance width="1360"/>
  <unicode hex="00DF"/>
  <anchor x="669" y="-100" name="L"/>
  <anchor x="693" y="1635" name="U"/>
  <outline>
    <contour>
      <point x="590" y="61" type="line"/>
      <point x="645" y="17"/>
      <point x="770" y="-25"/>
      <point x="876" y="-25" type="curve" smooth="yes"/>
      <point x="1123" y="-25"/>
      <point x="1302" y="106"/>
      <point x="1302" y="328" type="curve" smooth="yes"/>
      <point x="1302" y="508"/>
      <point x="1179" y="592"/>
      <point x="1070" y="657" type="curve" smooth="yes"/>
      <point x="973" y="714"/>
      <point x="875" y="755"/>
      <point x="875" y="852" type="curve" smooth="yes"/>
      <point x="875" y="1013"/>
      <point x="1190" y="971"/>
      <point x="1190" y="1271" type="curve" smooth="yes"/>
      <point x="1190" y="1448"/>
      <point x="1023" y="1620"/>
      <point x="693" y="1620" type="curve" smooth="yes"/>
      <point x="430" y="1620"/>
      <point x="173" y="1480"/>
      <point x="173" y="1120" type="curve" smooth="yes"/>
      <point x="173" y="494" type="line" smooth="yes"/>
      <point x="173" y="300"/>
      <point x="165" y="105"/>
      <point x="143" y="0" type="curve"/>
      <point x="422" y="0" type="line"/>
      <point x="422" y="1140" type="line" smooth="yes"/>
      <point x="422" y="1308"/>
      <point x="540" y="1418"/>
      <point x="724" y="1418" type="curve" smooth="yes"/>
      <point x="826" y="1418"/>
      <point x="949" y="1352"/>
      <point x="949" y="1257" type="curve" smooth="yes"/>
      <point x="949" y="1084"/>
      <point x="634" y="1091"/>
      <point x="634" y="845" type="curve" smooth="yes"/>
      <point x="634" y="688"/>
      <point x="737" y="606"/>
      <point x="839" y="546" type="curve" smooth="yes"/>
      <point x="949" y="480"/>
      <point x="1063" y="426"/>
      <point x="1063" y="319" type="curve" smooth="yes"/>
      <point x="1063" y="229"/>
      <point x="984" y="178"/>
      <point x="878" y="178" type="curve" smooth="yes"/>
      <point x="791" y="178"/>
      <point x="692" y="223"/>
      <point x="640" y="271" type="curve"/>
    </contour>
  </outline>
</glyph>
<glyph name="ae" format="2">
  <advance width="1767"/>
  <unicode hex="00E6"/>
  <anchor x="1121" y="0" name="H"/>
  <anchor x="858" y="-100" name="L"/>
  <anchor x="1584" y="0" name="O"/>
  <anchor x="1792" y="1000" name="R"/>
  <anchor x="916" y="1100" name="U"/>
  <outline>
    <contour>
      <point x="1650" y="284" type="line"/>
      <point x="1526" y="210"/>
      <point x="1405" y="183"/>
      <point x="1275" y="183" type="curve" smooth="yes"/>
      <point x="1114" y="183"/>
      <point x="1010" y="268"/>
      <point x="998" y="462" type="curve"/>
      <point x="1665" y="462" type="line"/>
      <point x="1665" y="543" type="line" smooth="yes"/>
      <point x="1665" y="785"/>
      <point x="1580" y="1040"/>
      <point x="1253" y="1040" type="curve" smooth="yes"/>
      <point x="1121" y="1040"/>
      <point x="1006" y="988"/>
      <point x="921" y="898" type="curve"/>
      <point x="847" y="989"/>
      <point x="728" y="1040"/>
      <point x="590" y="1040" type="curve" smooth="yes"/>
      <point x="430" y="1040"/>
      <point x="319" y="994"/>
      <point x="213" y="950" type="curve"/>
      <point x="207" y="881"/>
      <point x="204" y="756"/>
      <point x="203" y="712" type="curve"/>
      <point x="320" y="794"/>
      <point x="412" y="837"/>
      <point x="518" y="837" type="curve" smooth="yes"/>
      <point x="668" y="837"/>
      <point x="765" y="800"/>
      <point x="765" y="710" type="curve" smooth="yes"/>
      <point x="765" y="639" type="line"/>
      <point x="724" y="639"/>
      <point x="564" y="631"/>
      <point x="495" y="624" type="curve" smooth="yes"/>
      <point x="189" y="592"/>
      <point x="98" y="428"/>
      <point x="98" y="275" type="curve" smooth="yes"/>
      <point x="98" y="116"/>
      <point x="241" y="-25"/>
      <point x="437" y="-25" type="curve" smooth="yes"/>
      <point x="556" y="-25"/>
      <point x="678" y="26"/>
      <point x="795" y="138" type="curve" smooth="yes"/>
      <point x="807" y="151"/>
      <point x="827" y="170"/>
      <point x="840" y="185" type="curve"/>
      <point x="930" y="45"/>
      <point x="1083" y="-25"/>
      <point x="1250" y="-25" type="curve" smooth="yes"/>
      <point x="1405" y="-25"/>
      <point x="1527" y="2"/>
      <point x="1670" y="75" type="curve"/>
    </contour>
    <contour>
      <point x="758" y="468" type="curve"/>
      <point x="758" y="432"/>
      <point x="763" y="394"/>
      <point x="771" y="354" type="curve"/>
      <point x="766" y="344"/>
      <point x="759" y="336"/>
      <point x="752" y="328" type="curve" smooth="yes"/>
      <point x="658" y="203"/>
      <point x="580" y="183"/>
      <point x="495" y="183" type="curve" smooth="yes"/>
      <point x="407" y="183"/>
      <point x="347" y="238"/>
      <point x="347" y="307" type="curve" smooth="yes"/>
      <point x="347" y="381"/>
      <point x="390" y="434"/>
      <point x="538" y="454" type="curve" smooth="yes"/>
      <point x="590" y="461"/>
      <point x="710" y="467"/>
    </contour>
    <contour>
      <point x="1005" y="628" type="line"/>
      <point x="1032" y="783"/>
      <point x="1113" y="850"/>
      <point x="1239" y="850" type="curve" smooth="yes"/>
      <point x="1359" y="850"/>
      <point x="1435" y="779"/>
      <point x="1435" y="628" type="curve"/>
    </contour>
  </outline>
</glyph>
<glyph name="eth" format="2">
  <advance width="1162"/>
  <unicode hex="00F0"/>
  <anchor x="577" y="-100" name="L"/>
  <anchor x="577" y="1635" name="U"/>
  <outline>
    <contour>
      <point x="278" y="1532" type="line"/>
      <point x="498" y="1427"/>
      <point x="732" y="1138"/>
      <point x="811" y="868" type="curve"/>
      <point x="735" y="954"/>
      <point x="660" y="1000"/>
      <point x="525" y="1000" type="curve" smooth="yes"/>
      <point x="332" y="1000"/>
      <point x="92" y="811"/>
      <point x="92" y="487" type="curve" smooth="yes"/>
      <point x="92" y="153"/>
      <point x="287" y="-25"/>
      <point x="566" y="-25" type="curve" smooth="yes"/>
      <point x="877" y="-25"/>
      <point x="1063" y="185"/>
      <point x="1063" y="606" type="curve" smooth="yes"/>
      <point x="1063" y="1030"/>
      <point x="778" y="1452"/>
      <point x="499" y="1620" type="curve"/>
    </contour>
    <contour>
      <point x="341" y="487" type="curve" smooth="yes"/>
      <point x="341" y="678"/>
      <point x="428" y="801"/>
      <point x="576" y="801" type="curve" smooth="yes"/>
      <point x="717" y="801"/>
      <point x="813" y="686"/>
      <point x="813" y="487" type="curve" smooth="yes"/>
      <point x="813" y="297"/>
      <point x="724" y="172"/>
      <point x="576" y="172" type="curve" smooth="yes"/>
      <point x="437" y="172"/>
      <point x="341" y="287"/>
    </contour>
    <contour>
      <point x="1003" y="1460" type="line"/>
      <point x="896" y="1590" type="line"/>
      <point x="306" y="1225" type="line"/>
      <point x="407" y="1090" type="line"/>
    </contour>
  </outline>
</glyph>
<glyph name="divide" format="2">
  <advance width="1200"/>
  <unicode hex="00F7"/>
  <outline>
    <contour>
      <point x="155" y="637" type="line"/>
      <point x="1045" y="637" type="line"/>
      <point x="1045" y="820" type="line"/>
      <point x="155" y="820" type="line"/>
    </contour>
    <contour>
      <point x="436" y="1108" type="curve" smooth="yes"/>
      <point x="436" y="1014"/>
      <point x="507" y="945"/>
      <point x="600" y="945" type="curve" smooth="yes"/>
      <point x="693" y="945"/>
      <point x="762" y="1014"/>
      <point x="762" y="1108" type="curve" smooth="yes"/>
      <point x="762" y="1202"/>
      <point x="693" y="1271"/>
      <point x="600" y="1271" type="curve" smooth="yes"/>
      <point x="507" y="1271"/>
      <point x="436" y="1202"/>
    </contour>
    <contour>
      <point x="436" y="356" type="curve" smooth="yes"/>
      <point x="436" y="261"/>
      <point x="507" y="192"/>
      <point x="600" y="192" type="curve" smooth="yes"/>
      <point x="693" y="192"/>
      <point x="762" y="261"/>
      <point x="762" y="356" type="curve" smooth="yes"/>
      <point x="762" y="449"/>
      <point x="693" y="518"/>
      <point x="600" y="518" type="curve" smooth="yes"/>
      <point x="507" y="518"/>
      <point x="436" y="449"/>
    </contour>
  </outline>
</glyph>
<glyph name="oslash" format="2">
  <advance width="1153"/>
  <unicode hex="00F8"/>
  <anchor x="577" y="0" name="H"/>
  <anchor x="577" y="-100" name="L"/>
  <anchor x="833" y="0" name="O"/>
  <anchor x="1167" y="1000" name="R"/>
  <anchor x="577" y="1100" name="U"/>
  <outline>
    <contour>
      <point x="92" y="507" type="curve" smooth="yes"/>
      <point x="92" y="163"/>
      <point x="287" y="-25"/>
      <point x="567" y="-25" type="curve" smooth="yes"/>
      <point x="834" y="-25"/>
      <point x="1062" y="163"/>
      <point x="1062" y="507" type="curve" smooth="yes"/>
      <point x="1062" y="851"/>
      <point x="867" y="1040"/>
      <point x="587" y="1040" type="curve" smooth="yes"/>
      <point x="319" y="1040"/>
      <point x="92" y="851"/>
    </contour>
    <contour>
      <point x="337" y="507" type="curve" smooth="yes"/>
      <point x="337" y="713"/>
      <point x="437" y="837"/>
      <point x="577" y="837" type="curve" smooth="yes"/>
      <point x="725" y="837"/>
      <point x="817" y="713"/>
      <point x="817" y="507" type="curve" smooth="yes"/>
      <point x="817" y="302"/>
      <point x="716" y="178"/>
      <point x="577" y="178" type="curve" smooth="yes"/>
      <point x="428" y="178"/>
      <point x="337" y="302"/>
    </contour>
    <contour>
      <point x="799" y="1106" type="line"/>
      <point x="161" y="-76" type="line"/>
      <point x="350" y="-76" type="line"/>
      <point x="987" y="1106" type="line"/>
    </contour>
  </outline>
</glyph>
<glyph name="thorn" format="2">
  <advance width="1207"/>
  <unicode hex="00FE"/>
  <anchor x="713" y="-100" name="L"/>
  <anchor x="606" y="1635" name="U"/>
  <outline>
    <contour>
      <point x="125" y="1600" type="line"/>
      <point x="139" y="1487"/>
      <point x="142" y="1290"/>
      <point x="142" y="1130" type="curve" smooth="yes"/>
      <point x="142" y="-490" type="line"/>
      <point x="416" y="-490" type="line"/>
      <point x="399" y="-405"/>
      <point x="391" y="-310"/>
      <point x="391" y="-150" type="curve" smooth="yes"/>
      <point x="391" y="-73"/>
      <point x="391" y="-15"/>
      <point x="391" y="72" type="curve"/>
      <point x="484" y="13"/>
      <point x="561" y="-25"/>
      <point x="667" y="-25" type="curve" smooth="yes"/>
      <point x="914" y="-25"/>
      <point x="1116" y="193"/>
      <point x="1116" y="535" type="curve" smooth="yes"/>
      <point x="1116" y="828"/>
      <point x="966" y="1040"/>
      <point x="741" y="1040" type="curve" smooth="yes"/>
      <point x="600" y="1040"/>
      <point x="476" y="962"/>
      <point x="390" y="860" type="curve"/>
      <point x="390" y="1600" type="line"/>
    </contour>
    <contour>
      <point x="391" y="582" type="line"/>
      <point x="453" y="740"/>
      <point x="564" y="825"/>
      <point x="662" y="825" type="curve" smooth="yes"/>
      <point x="791" y="825"/>
      <point x="867" y="700"/>
      <point x="867" y="505" type="curve" smooth="yes"/>
      <point x="867" y="306"/>
      <point x="751" y="184"/>
      <point x="623" y="184" type="curve" smooth="yes"/>
      <point x="546" y="184"/>
      <point x="504" y="205"/>
      <point x="391" y="287" type="curve"/>
    </contour>
  </outline>
</glyph>
<glyph name="idotless" format="2">
  <advance width="618"/>
  <unicode hex="0131"/>
  <anchor x="308" y="0" name="H"/>
  <anchor x="308" y="-100" name="L"/>
  <anchor x="560" y="0" name="O"/>
  <anchor x="610" y="1000" name="R"/>
  <anchor x="308" y="1100" name="U"/>
  <outline>
    <contour>
      <point x="168" y="1020" type="line"/>
      <point x="181" y="915"/>
      <point x="183" y="725"/>
      <point x="183" y="530" type="curve" smooth="yes"/>
      <point x="183" y="388"/>
      <point x="183" y="144"/>
      <point x="183" y="0" type="curve"/>
      <point x="452" y="0" type="line"/>
      <point x="439" y="107"/>
      <point x="432" y="346"/>
      <point x="432" y="475" type="curve" smooth="yes"/>
      <point x="432" y="576"/>
      <point x="432" y="827"/>
      <point x="432" y="1020" type="curve"/>
    </contour>
  </outline>
</glyph>
<glyph name="OE" format="2">
  <advance width="1977"/>
  <unicode hex="0152"/>
  <anchor x="995" y="-100" name="L"/>
  <anchor x="995" y="1530" name="U"/>
  <outline>
    <contour>
      <point x="1860" y="0" type="line"/>
      <point x="1860" y="223" type="line"/>
      <point x="1781" y="209"/>
      <point x="1647" y="208"/>
      <point x="1454" y="208" type="curve" smooth="yes"/>
      <point x="1294" y="208" type="line"/>
      <point x="1294" y="662" type="line"/>
      <point x="1755" y="662" type="line"/>
      <point x="1755" y="865" type="line"/>
      <point x="1294" y="865" type="line"/>
      <point x="1294" y="1252" type="line"/>
      <point x="1830" y="1252" type="line"/>
      <point x="1830" y="1460" type="line"/>
      <point x="1030" y="1460" type="line"/>
      <point x="1030" y="1347" type="line"/>
      <point x="950" y="1429"/>
      <point x="834" y="1485"/>
      <point x="709" y="1485" type="curve" smooth="yes"/>
      <point x="387" y="1485"/>
      <point x="95" y="1199"/>
      <point x="95" y="720" type="curve" smooth="yes"/>
      <point x="95" y="241"/>
      <point x="369" y="-25"/>
      <point x="690" y="-25" type="curve" smooth="yes"/>
      <point x="814" y="-25"/>
      <point x="941" y="33"/>
      <point x="1030" y="123" type="curve"/>
      <point x="1030" y="0" type="line"/>
    </contour>
    <contour>
      <point x="1048" y="715" type="curve" smooth="yes"/>
      <point x="1048" y="389"/>
      <point x="902" y="197"/>
      <point x="700" y="197" type="curve" smooth="yes"/>
      <point x="490" y="197"/>
      <point x="350" y="409"/>
      <point x="350" y="745" type="curve" smooth="yes"/>
      <point x="350" y="1062"/>
      <point x="495" y="1263"/>
      <point x="700" y="1263" type="curve" smooth="yes"/>
      <point x="911" y="1263"/>
      <point x="1048" y="1055"/>
    </contour>
  </outline>
</glyph>
<glyph name="oe" format="2">
  <advance width="1827"/>
  <unicode hex="0153"/>
  <anchor x="1195" y="0" name="H"/>
  <anchor x="940" y="-100" name="L"/>
  <anchor x="1606" y="0" name="O"/>
  <anchor x="1845" y="1000" name="R"/>
  <anchor x="940" y="1100" name="U"/>
  <outline>
    <contour>
      <point x="1730" y="75" type="curve"/>
      <point x="1709" y="284" type="line"/>
      <point x="1586" y="210"/>
      <point x="1461" y="183"/>
      <point x="1331" y="183" type="curve" smooth="yes"/>
      <point x="1170" y="183"/>
      <point x="1070" y="268"/>
      <point x="1058" y="462" type="curve"/>
      <point x="1724" y="462" type="line"/>
      <point x="1725" y="480"/>
      <point x="1725" y="519"/>
      <point x="1725" y="542" type="curve" smooth="yes"/>
      <point x="1725" y="784"/>
      <point x="1639" y="1040"/>
      <point x="1306" y="1040" type="curve" smooth="yes"/>
      <point x="1151" y="1040"/>
      <point x="1026" y="983"/>
      <point x="942" y="885" type="curve"/>
      <point x="858" y="986"/>
      <point x="735" y="1040"/>
      <point x="587" y="1040" type="curve" smooth="yes"/>
      <point x="319" y="1040"/>
      <point x="92" y="851"/>
      <point x="92" y="507" type="curve" smooth="yes"/>
      <point x="92" y="163"/>
      <point x="287" y="-25"/>
      <point x="567" y="-25" type="curve" smooth="yes"/>
      <point x="711" y="-25"/>
      <point x="844" y="31"/>
      <point x="935" y="137" type="curve"/>
      <point x="1026" y="30"/>
      <point x="1161" y="-25"/>
      <point x="1306" y="-25" type="curve" smooth="yes"/>
      <point x="1461" y="-25"/>
      <point x="1587" y="2"/>
    </contour>
    <contour>
      <point x="340" y="507" type="curve" smooth="yes"/>
      <point x="340" y="713"/>
      <point x="437" y="837"/>
      <point x="577" y="837" type="curve" smooth="yes"/>
      <point x="725" y="837"/>
      <point x="813" y="713"/>
      <point x="813" y="507" type="curve" smooth="yes"/>
      <point x="813" y="302"/>
      <point x="716" y="178"/>
      <point x="577" y="178" type="curve" smooth="yes"/>
      <point x="428" y="178"/>
      <point x="340" y="302"/>
    </contour>
    <contour>
      <point x="1064" y="628" type="line"/>
      <point x="1089" y="783"/>
      <point x="1166" y="850"/>
      <point x="1292" y="850" type="curve" smooth="yes"/>
      <point x="1419" y="850"/>
      <point x="1495" y="779"/>
      <point x="1495" y="628" type="curve"/>
    </contour>
  </outline>
</glyph>
<glyph name="florin" format="2">
  <advance width="777"/>
  <unicode hex="0192"/>
  <anchor x="304" y="-500" name="L"/>
  <anchor x="580" y="1635" name="U"/>
  <outline>
    <contour>
      <point x="27" y="820" type="line"/>
      <point x="735" y="820" type="line"/>
      <point x="735" y="1002" type="line"/>
      <point x="27" y="1002" type="line"/>
    </contour>
    <contour>
      <point x="838" y="1550" type="line"/>
      <point x="778" y="1590"/>
      <point x="680" y="1620"/>
      <point x="605" y="1620" type="curve" smooth="yes"/>
      <point x="368" y="1620"/>
      <point x="227" y="1471"/>
      <point x="227" y="1170" type="curve" smooth="yes"/>
      <point x="227" y="1108"/>
      <point x="227" y="76"/>
      <point x="227" y="-35" type="curve" smooth="yes"/>
      <point x="227" y="-175"/>
      <point x="180" y="-251"/>
      <point x="65" y="-251" type="curve" smooth="yes"/>
      <point x="-2" y="-251"/>
      <point x="-74" y="-215"/>
      <point x="-117" y="-184" type="curve"/>
      <point x="-170" y="-394" type="line"/>
      <point x="-122" y="-429"/>
      <point x="-14" y="-470"/>
      <point x="67" y="-470" type="curve" smooth="yes"/>
      <point x="336" y="-470"/>
      <point x="475" y="-314"/>
      <point x="475" y="18" type="curve" smooth="yes"/>
      <point x="475" y="331"/>
      <point x="475" y="1025"/>
      <point x="475" y="1176" type="curve" smooth="yes"/>
      <point x="475" y="1345"/>
      <point x="522" y="1411"/>
      <point x="620" y="1411" type="curve" smooth="yes"/>
      <point x="672" y="1411"/>
      <point x="740" y="1387"/>
      <point x="785" y="1348" type="curve"/>
    </contour>
  </outline>
</glyph>
<glyph name="circumflex" format="2">
  <advance width="877"/>
  <unicode hex="02C6"/>
  <outline>
    <contour>
      <point x="3" y="1190" type="line"/>
      <point x="213" y="1190" type="line"/>
      <point x="438" y="1437" type="line"/>
      <point x="663" y="1190" type="line"/>
      <point x="873" y="1190" type="line"/>
      <point x="567" y="1600" type="line"/>
      <point x="310" y="1600" type="line"/>
    </contour>
  </outline>
</glyph>
<glyph name="caron" format="2">
  <advance width="870"/>
  <unicode hex="02C7"/>
  <anchor x="435" y="1635" name="U"/>
  <outline>
    <contour>
      <point x="0" y="1600" type="line"/>
      <point x="307" y="1190" type="line"/>
      <point x="563" y="1190" type="line"/>
      <point x="870" y="1600" type="line"/>
      <point x="660" y="1600" type="line"/>
      <point x="435" y="1353" type="line"/>
      <point x="210" y="1600" type="line"/>
    </contour>
  </outline>
</glyph>
<glyph name="breve" format="2">
  <advance width="790"/>
  <unicode hex="02D8"/>
  <anchor x="395" y="1632" name="U"/>
  <anchor x="395" y="1100" name="_U"/>
  <outline>
    <contour>
      <point x="790" y="1550" type="curve"/>
      <point x="629" y="1550" type="line"/>
      <point x="607" y="1424"/>
      <point x="513" y="1327"/>
      <point x="395" y="1327" type="curve" smooth="yes"/>
      <point x="278" y="1327"/>
      <point x="179" y="1424"/>
      <point x="160" y="1550" type="curve"/>
      <point x="0" y="1550" type="line"/>
      <point x="0" y="1356"/>
      <point x="153" y="1143"/>
      <point x="395" y="1143" type="curve" smooth="yes"/>
      <point x="635" y="1143"/>
      <point x="790" y="1356"/>
    </contour>
  </outline>
</glyph>
<glyph name="dotaccent" format="2">
  <advance width="323"/>
  <unicode hex="02D9"/>
  <outline>
    <contour>
      <point x="0" y="1372" type="curve" smooth="yes"/>
      <point x="0" y="1278"/>
      <point x="70" y="1210"/>
      <point x="162" y="1210" type="curve" smooth="yes"/>
      <point x="254" y="1210"/>
      <point x="323" y="1278"/>
      <point x="323" y="1372" type="curve" smooth="yes"/>
      <point x="323" y="1464"/>
      <point x="254" y="1533"/>
      <point x="162" y="1533" type="curve" smooth="yes"/>
      <point x="70" y="1533"/>
      <point x="0" y="1464"/>
    </contour>
  </outline>
</glyph>
<glyph name="ring" format="2">
  <advance width="470"/>
  <unicode hex="02DA"/>
  <outline>
    <contour>
      <point x="338" y="1395" type="curve" smooth="yes"/>
      <point x="338" y="1335"/>
      <point x="298" y="1295"/>
      <point x="235" y="1295" type="curve" smooth="yes"/>
      <point x="172" y="1295"/>
      <point x="132" y="1335"/>
      <point x="132" y="1395" type="curve" smooth="yes"/>
      <point x="132" y="1455"/>
      <point x="172" y="1495"/>
      <point x="235" y="1495" type="curve" smooth="yes"/>
      <point x="298" y="1495"/>
      <point x="338" y="1455"/>
    </contour>
    <contour>
      <point x="0" y="1395" type="curve" smooth="yes"/>
      <point x="0" y="1262"/>
      <point x="102" y="1163"/>
      <point x="235" y="1163" type="curve" smooth="yes"/>
      <point x="368" y="1163"/>
      <point x="470" y="1262"/>
      <point x="470" y="1395" type="curve" smooth="yes"/>
      <point x="470" y="1528"/>
      <point x="368" y="1627"/>
      <point x="235" y="1627" type="curve" smooth="yes"/>
      <point x="102" y="1627"/>
      <point x="0" y="1528"/>
    </contour>
  </outline>
</glyph>
<glyph name="ogonek" format="2">
  <advance width="472"/>
  <unicode hex="02DB"/>
  <anchor x="368" y="-400" name="L"/>
  <outline>
    <contour>
      <point x="175" y="0" type="line"/>
      <point x="71" y="-50"/>
      <point x="15" y="-121"/>
      <point x="15" y="-225" type="curve" smooth="yes"/>
      <point x="15" y="-345"/>
      <point x="133" y="-437"/>
      <point x="268" y="-437" type="curve" smooth="yes"/>
      <point x="342" y="-437"/>
      <point x="429" y="-405"/>
      <point x="487" y="-347" type="curve"/>
      <point x="457" y="-220" type="line"/>
      <point x="420" y="-264"/>
      <point x="331" y="-295"/>
      <point x="288" y="-295" type="curve" smooth="yes"/>
      <point x="221" y="-295"/>
      <point x="178" y="-257"/>
      <point x="178" y="-188" type="curve" smooth="yes"/>
      <point x="178" y="-118"/>
      <point x="232" y="-65"/>
      <point x="335" y="0" type="curve"/>
    </contour>
  </outline>
</glyph>
<glyph name="tilde" format="2">
  <advance width="790"/>
  <unicode hex="02DC"/>
  <outline>
    <contour>
      <point x="138" y="1195" type="line"/>
      <point x="144" y="1239"/>
      <point x="168" y="1283"/>
      <point x="218" y="1283" type="curve" smooth="yes"/>
      <point x="259" y="1283"/>
      <point x="311" y="1267"/>
      <point x="392" y="1232" type="curve" smooth="yes"/>
      <point x="459" y="1203"/>
      <point x="511" y="1183"/>
      <point x="570" y="1183" type="curve" smooth="yes"/>
      <point x="702" y="1183"/>
      <point x="790" y="1309"/>
      <point x="790" y="1467" type="curve"/>
      <point x="652" y="1467" type="line"/>
      <point x="644" y="1423"/>
      <point x="619" y="1378"/>
      <point x="572" y="1378" type="curve" smooth="yes"/>
      <point x="526" y="1378"/>
      <point x="488" y="1395"/>
      <point x="412" y="1426" type="curve" smooth="yes"/>
      <point x="336" y="1456"/>
      <point x="276" y="1478"/>
      <point x="214" y="1478" type="curve" smooth="yes"/>
      <point x="86" y="1478"/>
      <point x="0" y="1342"/>
      <point x="0" y="1195" type="curve"/>
    </contour>
  </outline>
</glyph>
<glyph name="hungarumlaut" format="2">
  <advance width="877"/>
  <unicode hex="02DD"/>
  <outline>
    <contour>
      <point x="607" y="1600" type="line"/>
      <point x="387" y="1183" type="line"/>
      <point x="573" y="1183" type="line"/>
      <point x="877" y="1600" type="line"/>
    </contour>
    <contour>
      <point x="220" y="1600" type="line"/>
      <point x="0" y="1183" type="line"/>
      <point x="187" y="1183" type="line"/>
      <point x="490" y="1600" type="line"/>
    </contour>
  </outline>
</glyph>
<glyph name="gravecomb" format="2">
  <unicode hex="0300"/>
  <anchor x="-577" y="1635" name="U"/>
  <anchor x="-603" y="1100" name="_U"/>
  <outline>
    <contour>
      <point x="-1013" y="1600" type="line"/>
      <point x="-607" y="1190" type="line"/>
      <point x="-393" y="1190" type="line"/>
      <point x="-703" y="1600" type="line"/>
    </contour>
  </outline>
</glyph>
<glyph name="acutecomb" format="2">
  <unicode hex="0301"/>
  <anchor x="-590" y="1635" name="U"/>
  <anchor x="-550" y="1100" name="_U"/>
  <outline>
    <contour>
      <point x="-447" y="1600" type="line"/>
      <point x="-757" y="1190" type="line"/>
      <point x="-543" y="1190" type="line"/>
      <point x="-137" y="1600" type="line"/>
    </contour>
  </outline>
</glyph>
<glyph name="dieresiscomb" format="2">
  <unicode hex="0308"/>
  <anchor x="-577" y="1558" name="U"/>
  <anchor x="-577" y="1100" name="_U"/>
  <outline>
    <contour>
      <point x="-503" y="1372" type="curve" smooth="yes"/>
      <point x="-503" y="1278"/>
      <point x="-435" y="1210"/>
      <point x="-343" y="1210" type="curve" smooth="yes"/>
      <point x="-250" y="1210"/>
      <point x="-183" y="1278"/>
      <point x="-183" y="1372" type="curve" smooth="yes"/>
      <point x="-183" y="1464"/>
      <point x="-250" y="1533"/>
      <point x="-343" y="1533" type="curve" smooth="yes"/>
      <point x="-435" y="1533"/>
      <point x="-503" y="1464"/>
    </contour>
    <contour>
      <point x="-970" y="1372" type="curve" smooth="yes"/>
      <point x="-970" y="1278"/>
      <point x="-902" y="1210"/>
      <point x="-810" y="1210" type="curve" smooth="yes"/>
      <point x="-717" y="1210"/>
      <point x="-650" y="1278"/>
      <point x="-650" y="1372" type="curve" smooth="yes"/>
      <point x="-650" y="1464"/>
      <point x="-717" y="1533"/>
      <point x="-810" y="1533" type="curve" smooth="yes"/>
      <point x="-902" y="1533"/>
      <point x="-970" y="1464"/>
    </contour>
  </outline>
</glyph>
<glyph name="ringcomb" format="2">
  <unicode hex="030A"/>
  <anchor x="-577" y="1635" name="U"/>
  <anchor x="-577" y="1100" name="_U"/>
  <outline>
    <contour>
      <point x="-473" y="1395" type="curve" smooth="yes"/>
      <point x="-473" y="1335"/>
      <point x="-513" y="1295"/>
      <point x="-577" y="1295" type="curve" smooth="yes"/>
      <point x="-640" y="1295"/>
      <point x="-680" y="1335"/>
      <point x="-680" y="1395" type="curve" smooth="yes"/>
      <point x="-680" y="1455"/>
      <point x="-640" y="1495"/>
      <point x="-577" y="1495" type="curve" smooth="yes"/>
      <point x="-513" y="1495"/>
      <point x="-473" y="1455"/>
    </contour>
    <contour>
      <point x="-812" y="1395" type="curve" smooth="yes"/>
      <point x="-812" y="1262"/>
      <point x="-710" y="1163"/>
      <point x="-577" y="1163" type="curve" smooth="yes"/>
      <point x="-443" y="1163"/>
      <point x="-342" y="1262"/>
      <point x="-342" y="1395" type="curve" smooth="yes"/>
      <point x="-342" y="1528"/>
      <point x="-443" y="1627"/>
      <point x="-577" y="1627" type="curve" smooth="yes"/>
      <point x="-710" y="1627"/>
      <point x="-812" y="1528"/>
    </contour>
  </outline>
</glyph>
<glyph name="caroncomb" format="2">
  <unicode hex="030C"/>
  <anchor x="-582" y="1635" name="U"/>
  <anchor x="-582" y="1100" name="_U"/>
  <outline>
    <contour>
      <point x="-1012" y="1600" type="line"/>
      <point x="-705" y="1190" type="line"/>
      <point x="-448" y="1190" type="line"/>
      <point x="-142" y="1600" type="line"/>
      <point x="-352" y="1600" type="line"/>
      <point x="-577" y="1353" type="line"/>
      <point x="-802" y="1600" type="line"/>
    </contour>
  </outline>
</glyph>
<glyph name="cedillacomb" format="2">
  <unicode hex="0327"/>
  <anchor x="-510" y="-527" name="L"/>
  <anchor x="-477" y="0" name="_H"/>
  <outline>
    <contour>
      <point x="-558" y="50" type="line"/>
      <point x="-558" y="-212" type="line"/>
      <point x="-537" y="-201"/>
      <point x="-498" y="-190"/>
      <point x="-462" y="-190" type="curve" smooth="yes"/>
      <point x="-412" y="-190"/>
      <point x="-370" y="-225"/>
      <point x="-370" y="-270" type="curve"/>
      <point x="-371" y="-332"/>
      <point x="-435" y="-360"/>
      <point x="-495" y="-360" type="curve" smooth="yes"/>
      <point x="-540" y="-360"/>
      <point x="-579" y="-349"/>
      <point x="-608" y="-327" type="curve"/>
      <point x="-618" y="-447" type="line"/>
      <point x="-577" y="-470"/>
      <point x="-522" y="-487"/>
      <point x="-470" y="-487" type="curve" smooth="yes"/>
      <point x="-344" y="-487"/>
      <point x="-208" y="-403"/>
      <point x="-208" y="-267" type="curve" smooth="yes"/>
      <point x="-208" y="-168"/>
      <point x="-274" y="-97"/>
      <point x="-372" y="-97" type="curve" smooth="yes"/>
      <point x="-394" y="-97"/>
      <point x="-407" y="-99"/>
      <point x="-420" y="-102" type="curve"/>
      <point x="-420" y="50" type="line"/>
    </contour>
  </outline>
</glyph>
<glyph name="pi" format="2">
  <advance width="1373"/>
  <unicode hex="03C0"/>
  <anchor x="681" y="-100" name="L"/>
  <anchor x="681" y="1100" name="U"/>
  <outline>
    <contour>
      <point x="1301" y="838" type="line"/>
      <point x="1301" y="1020" type="line"/>
      <point x="57" y="1020" type="line"/>
      <point x="57" y="838" type="line"/>
      <point x="262" y="838" type="line"/>
      <point x="262" y="0" type="line"/>
      <point x="511" y="0" type="line"/>
      <point x="511" y="838" type="line"/>
      <point x="848" y="838" type="line"/>
      <point x="848" y="599" type="line"/>
      <point x="848" y="456"/>
      <point x="849" y="316"/>
      <point x="853" y="227" type="curve" smooth="yes"/>
      <point x="858" y="132"/>
      <point x="868" y="58"/>
      <point x="893" y="0" type="curve"/>
      <point x="1151" y="0" type="line"/>
      <point x="1109" y="107"/>
      <point x="1096" y="197"/>
      <point x="1096" y="383" type="curve"/>
      <point x="1096" y="838" type="line"/>
    </contour>
  </outline>
</glyph>
<glyph name="endash" format="2">
  <advance width="1088"/>
  <unicode hex="2013"/>
  <outline>
    <contour>
      <point x="97" y="538" type="line"/>
      <point x="992" y="538" type="line"/>
      <point x="992" y="722" type="line"/>
      <point x="97" y="722" type="line"/>
    </contour>
  </outline>
</glyph>
<glyph name="emdash" format="2">
  <advance width="1768"/>
  <unicode hex="2014"/>
  <outline>
    <contour>
      <point x="97" y="538" type="line"/>
      <point x="1672" y="538" type="line"/>
      <point x="1672" y="722" type="line"/>
      <point x="97" y="722" type="line"/>
    </contour>
  </outline>
</glyph>
<glyph name="horizontalbar" format="2">
  <advance width="2000"/>
  <unicode hex="2015"/>
  <outline>
    <contour>
      <point x="1920" y="538" type="line"/>
      <point x="1920" y="722" type="line"/>
      <point x="80" y="722" type="line"/>
      <point x="80" y="538" type="line"/>
    </contour>
  </outline>
</glyph>
<glyph name="quoteleft" format="2">
  <advance width="687"/>
  <unicode hex="2018"/>
  <outline>
    <contour>
      <point x="532" y="1282" type="line"/>
      <point x="378" y="1282" type="line"/>
      <point x="378" y="1371"/>
      <point x="441" y="1491"/>
      <point x="530" y="1585" type="curve"/>
      <point x="400" y="1645" type="line"/>
      <point x="278" y="1537"/>
      <point x="188" y="1377"/>
      <point x="188" y="1217" type="curve" smooth="yes"/>
      <point x="188" y="1100"/>
      <point x="257" y="1022"/>
      <point x="360" y="1022" type="curve" smooth="yes"/>
      <point x="454" y="1022"/>
      <point x="527" y="1091"/>
      <point x="532" y="1162" type="curve"/>
    </contour>
  </outline>
</glyph>
<glyph name="quoteright" format="2">
  <advance width="698"/>
  <unicode hex="2019"/>
  <outline>
    <contour>
      <point x="222" y="1385" type="line"/>
      <point x="375" y="1385" type="line"/>
      <point x="375" y="1295"/>
      <point x="313" y="1176"/>
      <point x="223" y="1082" type="curve"/>
      <point x="353" y="1022" type="line"/>
      <point x="475" y="1130"/>
      <point x="565" y="1290"/>
      <point x="565" y="1450" type="curve" smooth="yes"/>
      <point x="565" y="1566"/>
      <point x="496" y="1645"/>
      <point x="393" y="1645" type="curve" smooth="yes"/>
      <point x="299" y="1645"/>
      <point x="226" y="1576"/>
      <point x="222" y="1505" type="curve"/>
    </contour>
  </outline>
</glyph>
<glyph name="quotesinglbase" format="2">
  <advance width="780"/>
  <unicode hex="201A"/>
  <outline>
    <contour>
      <point x="265" y="50" type="line"/>
      <point x="418" y="50" type="line"/>
      <point x="418" y="-40"/>
      <point x="356" y="-159"/>
      <point x="267" y="-253" type="curve"/>
      <point x="397" y="-313" type="line"/>
      <point x="518" y="-205"/>
      <point x="608" y="-45"/>
      <point x="608" y="115" type="curve" smooth="yes"/>
      <point x="608" y="231"/>
      <point x="539" y="310"/>
      <point x="437" y="310" type="curve" smooth="yes"/>
      <point x="342" y="310"/>
      <point x="269" y="241"/>
      <point x="265" y="170" type="curve"/>
    </contour>
  </outline>
</glyph>
